<svg version="1.1" xmlns="http://www.w3.org/2000/svg" xmlns:xlink="http://www.w3.org/1999/xlink" xml:space="preserve"
	 viewBox="0 0 1176.6 533.2" id="background" class="animated-background">

<g class="inner" >
	<g class="main">
		<polygon points="520.4,-11.9 586.5,54.3 586.5,-50.4 		"/>
		<polygon points="652.6,-11.9 586.5,54.3 586.5,-50.4 		"/>
		<polygon points="520.4,-11.9 534.6,106.1 495.5,59 		"/>
		<polygon points="652.6,-11.9 638.4,106.1 677.5,59 		"/>
		<polygon points="494.8,565.5 470.6,475.1 418.3,565.7 		"/>
		<polygon points="380.3,499.4 470.6,475.1 418.3,565.7 		"/>
		<polygon points="792.8,499.4 702.4,475.1 754.8,565.7 		"/>
		<polygon points="678.3,565.5 702.4,475.1 754.8,565.7 		"/>
		<polygon points="678.3,-16.8 702.4,73.6 754.8,-17 		"/>
		<polygon points="792.8,49.3 702.4,73.6 754.8,-17 		"/>
		<polygon points="380.3,49.4 470.6,73.6 418.3,-17 		"/>
		<polygon points="494.8,-16.8 470.6,73.6 418.3,-17 		"/>
		<polygon points="801.4,74 777.1,164.3 867.7,112 		"/>
		<polygon points="867.5,188.5 777.1,164.3 867.7,112 		"/>
		<polygon points="801.4,74 706.3,145.3 727.5,87.9 		"/>
		<polygon points="371.7,474.7 395.9,384.4 305.3,436.7 		"/>
		<polygon points="305.6,360.2 395.9,384.4 305.3,436.7 		"/>
		<polygon points="371.7,474.7 466.7,403.4 445.5,460.9 		"/>
		<polygon points="652.6,560.6 586.5,494.4 586.5,599.1 		"/>
		<polygon points="520.4,560.6 586.5,494.4 586.5,599.1 		"/>
		<polygon points="652.6,560.6 638.4,442.6 677.5,489.7 		"/>
		<polygon points="520.4,560.6 534.6,442.6 495.5,489.7 		"/>
		<polygon points="867.5,360.2 777.1,384.4 867.7,436.7 		"/>
		<polygon points="801.4,474.7 777.1,384.4 867.7,436.7 		"/>
		<polygon points="801.4,474.7 706.3,403.4 727.5,460.8 		"/>
		<polygon points="371.7,74 466.7,145.3 445.5,87.9 		"/>
		<polygon points="371.7,74 395.9,164.3 305.3,112 		"/>
		<polygon points="305.6,188.5 395.9,164.3 305.3,112 		"/>
	</g>
	<g class="accents">
		<polygon points="550.5,76.1 561.7,37.5 581.2,77.2 		"/>
		<polygon points="624,76.1 612.8,37.5 593.2,77.2 		"/>
		<polygon points="587.2,86.4 581.2,77.2 587.2,73.4 		"/>
		<polygon points="587.2,86.4 593.2,77.2 587.2,73.4 		"/>
		<polygon points="587.2,-29.7 561.7,37.5 587.2,22.8 			"/>
		<polygon points="587.2,-29.7 612.8,37.5 587.2,22.8 			"/>
		<polygon points="385.6,213.8 357.8,184.7 401.9,187.6 		"/>
		<polygon points="422.4,150.1 383.3,140.5 407.9,177.2 		"/>
		<polygon points="412.9,187 401.9,187.6 401.7,180.6 		"/>
		<polygon points="412.9,187 407.9,177.2 401.7,180.6 		"/>
		<polygon points="312.4,129 357.8,184.7 357.8,155.2 		"/>
		<polygon points="312.4,129 383.3,140.5 357.8,155.2 		"/>
		<polygon points="422.4,425.4 383.3,434.9 407.9,398.2 		"/>
		<polygon points="385.6,361.6 357.8,390.7 401.9,387.8 		"/>
		<polygon points="412.9,388.4 407.9,398.2 401.7,394.8 		"/>
		<polygon points="412.9,388.4 401.9,387.8 401.7,394.8 		"/>
		<polygon points="312.4,446.4 383.3,434.9 357.8,420.2 		"/>
		<polygon points="312.4,446.4 357.8,390.7 357.8,420.2 		"/>
		<polygon points="624,499.3 612.8,537.9 593.3,498.2 		"/>
		<polygon points="550.5,499.3 561.7,537.9 581.2,498.2 		"/>
		<polygon points="587.2,489 593.3,498.2 587.2,502 		"/>
		<polygon points="587.2,489 581.2,498.2 587.2,502 		"/>
		<polygon points="788.9,361.6 816.7,390.7 772.6,387.8 		"/>
		<polygon points="752.1,425.4 791.2,434.9 766.6,398.2 		"/>
		<polygon points="761.6,388.4 772.6,387.8 772.8,394.8 		"/>
		<polygon points="761.6,388.4 766.6,398.2 772.8,394.8 		"/>
		<polygon points="862.1,446.4 816.7,390.7 816.7,420.2 		"/>
		<polygon points="862.1,446.4 791.2,434.9 816.7,420.2 		"/>
		<polygon points="752.1,150 791.2,140.5 766.6,177.2 		"/>
		<polygon points="788.9,213.8 816.7,184.7 772.6,187.6 		"/>
		<polygon points="761.6,187 766.6,177.2 772.8,180.6 		"/>
		<polygon points="761.6,187 772.6,187.6 772.8,180.6 		"/>
		<polygon points="862.1,129 791.2,140.5 816.7,155.2 		"/>
		<polygon points="862.1,129 816.7,184.7 816.7,155.2 		"/>
		<polygon points="691,108 690.4,97 697.5,96.8 		"/>
		<polygon points="691,108 700.8,103 697.5,96.8 		"/>
		<polygon points="749,7.5 693.3,52.9 722.8,52.9 		"/>
		<polygon points="749,7.5 737.5,78.4 722.8,52.9 		"/>
		<polygon points="483.5,108 473.7,103 477,96.8 		"/>
		<polygon points="483.5,108 484.1,97 477,96.8 		"/>
		<polygon points="425.5,7.5 436.9,78.4 451.7,52.9 		"/>
		<polygon points="425.5,7.5 481.2,52.9 451.7,52.9 		"/>
		<polygon points="379.7,287.7 370.5,293.7 366.8,287.7 		"/>
		<polygon points="379.7,287.7 370.5,281.7 366.8,287.7 		"/>
		<polygon points="263.7,287.7 330.9,313.2 316.1,287.7 		"/>
		<polygon points="263.7,287.7 330.9,262.2 316.1,287.7 		"/>
		<polygon points="483.5,467.4 484.1,478.4 477,478.6 		"/>
		<polygon points="483.5,467.4 473.7,472.4 477,478.6 		"/>
		<polygon points="425.5,567.9 481.2,522.5 451.7,522.5 		"/>
		<polygon points="425.5,567.9 436.9,497 451.7,522.5 		"/>
		<polygon points="691,467.4 700.8,472.4 697.5,478.6 		"/>
		<polygon points="691,467.4 690.4,478.4 697.5,478.6 		"/>
		<polygon points="749,567.9 737.6,497 722.8,522.5 		"/>
		<polygon points="749,567.9 693.3,522.5 722.8,522.5 		"/>
		<polygon points="794.8,287.7 804,281.7 807.7,287.7 		"/>
		<polygon points="794.8,287.7 804,293.7 807.7,287.7 		"/>
		<polygon points="910.8,287.7 843.6,262.2 858.4,287.7 		"/>
		<polygon points="910.8,287.7 843.6,313.2 858.4,287.7 		"/>
	</g>
</g>

<g class="outer">
	<g class="main">
		<polygon points="203.5,133.9 93.1,140.3 150.7,78.7 		"/>
		<polygon points="150.7,78.7 213.2,58.8 234,70.9 234.5,84.3 		"/>
		<polygon points="199.2,-5.3 213.2,58.8 234,70.9 245.9,64.5 		"/>
		<polygon points="199.2,554 213.2,489.9 234,477.9 245.9,484.2 		"/>
		<polygon points="150.7,470 213.2,489.9 234,477.9 234.5,464.4 		"/>
		<polygon points="1022.4,470 959.9,489.9 939,477.9 938.6,464.4 		"/>
		<polygon points="973.9,554 959.9,489.9 939,477.9 927.2,484.2 		"/>
		<polygon points="973.9,-5.3 959.9,58.8 939,70.9 927.2,64.5 		"/>
		<polygon points="1022.4,78.7 959.9,58.8 939,70.9 938.6,84.3 		"/>
		<polygon points="99.5,322.9 143.7,274.4 167.8,274.4 174.9,285.8 		"/>
		<polygon points="99.5,225.9 143.7,274.4 167.8,274.4 174.9,263 		"/>
		<polygon points="1073.5,225.9 1029.4,274.4 1005.3,274.4 998.2,263 		"/>
		<polygon points="1073.5,322.9 1029.4,274.4 1005.3,274.4 998.2,285.8 		"/>
		<polygon points="899.6,12.9 949.4,-85.9 973.9,-5.3 		"/>
		<polygon points="969.5,133.9 1080,140.3 1022.4,78.7 		"/>
		<polygon points="273.4,12.9 223.7,-85.9 199.2,-5.3 		"/>
		<polygon points="969.5,414.8 1080,408.5 1022.4,470 		"/>
		<polygon points="203.5,414.8 93.1,408.5 150.7,470 		"/>
	</g>
	<g class="accents">
		<polygon points="89.8,277.1 58.3,275.4 57.6,295.7 		"/>
		<polygon points="1091.7,277.1 1106,305.3 1123.9,295.7 		"/>
		<polygon points="292.7,504.2 264.5,518.5 274.1,536.4 		"/>
		<polygon points="888.9,504.2 887.2,535.8 907.5,536.4 		"/>
	</g>
</g>
</svg>
