<svg version="1.1" xmlns="http://www.w3.org/2000/svg" xmlns:xlink="http://www.w3.org/1999/xlink" xml:space="preserve"
	 viewBox="200 200 446 360" id="background" class="animated-background hidden-xs">
<g class="inner">
	<g class="main">
		<polygon points="371.9,179.5 419.3,226.9 419.3,152 		"/>
		<polygon points="466.6,179.5 419.3,226.9 419.3,152 		"/>
		<polygon points="371.9,179.5 382.1,264 354.1,230.3 		"/>
		<polygon points="466.6,179.5 456.4,264 484.4,230.3 		"/>
		<polygon points="218.1,323 282.8,305.7 217.9,268.2 		"/>
		<polygon points="265.4,241 282.8,305.7 217.9,268.2 		"/>
		<polygon points="265.4,241 333.5,292 318.3,250.9 		"/>
		<polygon points="265.4,527.9 282.8,463.2 217.9,500.7 		"/>
		<polygon points="218.1,445.9 282.8,463.2 217.9,500.7 		"/>
		<polygon points="265.4,527.9 333.5,476.9 318.3,518 		"/>
		<polygon points="466.6,589.4 419.3,542 419.3,616.9 		"/>
		<polygon points="371.9,589.4 419.3,542 419.3,616.9 		"/>
		<polygon points="466.6,589.4 456.4,504.9 484.4,538.6 		"/>
		<polygon points="371.9,589.4 382.1,504.9 354.1,538.6 		"/>
		<polygon points="620.4,445.9 555.7,463.2 620.6,500.7 		"/>
		<polygon points="573.1,527.9 555.7,463.2 620.6,500.7 		"/>
		<polygon points="573.1,527.9 505,476.9 520.2,518 		"/>
		<polygon points="573.1,241 555.7,305.7 620.6,268.2 		"/>
		<polygon points="620.4,323 555.7,305.7 620.6,268.2 		"/>
		<polygon points="573.1,241 505,292 520.2,250.9 		"/>
		<polygon points="484.9,176 502.2,240.7 539.7,175.8 		"/>
		<polygon points="566.9,223.4 502.2,240.7 539.7,175.8 		"/>
		<polygon points="271.6,223.4 336.3,240.7 298.8,175.8 		"/>
		<polygon points="353.6,176 336.3,240.7 298.8,175.8 		"/>
		<polygon points="353.6,592.9 336.3,528.2 298.8,593.1 		"/>
		<polygon points="271.6,545.6 336.3,528.2 298.8,593.1 		"/>
		<polygon points="566.9,545.6 502.2,528.2 539.7,593.1 		"/>
		<polygon points="484.9,592.9 502.2,528.2 539.7,593.1 		"/>
	</g>
	<g class="accents">
		<polygon points="345.5,522.7 345.9,530.5 340.9,530.7 "/>
		<polygon points="494.1,522.7 501.1,526.2 498.7,530.7 	"/>
		<polygon points="494.1,522.7 493.6,530.5 498.7,530.7 	"/>
		<polygon points="393.4,242.5 401.5,214.9 415.5,243.3 		"/>
		<polygon points="446.1,242.5 438.1,214.9 424.1,243.3 		"/>
		<polygon points="419.8,249.9 415.5,243.3 419.8,240.6 		"/>
		<polygon points="419.8,249.9 424.1,243.3 419.8,240.6 		"/>
		<polygon points="419.8,166.8 401.5,214.9 419.8,204.3 		"/>
		<polygon points="419.8,166.8 438.1,214.9 419.8,204.3 		"/>
		<polygon points="275.4,341.1 255.5,320.3 287.1,322.4 		"/>
		<polygon points="301.8,295.5 273.8,288.6 291.4,314.9 		"/>
		<polygon points="294.9,321.9 287.1,322.4 286.9,317.3 		"/>
		<polygon points="294.9,321.9 291.4,314.9 286.9,317.3 		"/>
		<polygon points="223,280.4 255.5,320.3 255.5,299.2 		"/>
		<polygon points="223,280.4 273.8,288.6 255.5,299.2 		"/>
		<polygon points="301.8,492.6 273.8,499.4 291.4,473.1 		"/>
		<polygon points="275.4,446.9 255.5,467.7 287.1,465.7 		"/>
		<polygon points="294.9,466.1 291.4,473.1 286.9,470.7 		"/>
		<polygon points="294.9,466.1 287.1,465.7 286.9,470.7 		"/>
		<polygon points="223,507.6 273.8,499.4 255.5,488.9 		"/>
		<polygon points="223,507.6 255.5,467.7 255.5,488.9 		"/>
		<polygon points="446.1,545.5 438.1,573.1 424.1,544.7 		"/>
		<polygon points="393.4,545.5 401.5,573.1 415.5,544.7 		"/>
		<polygon points="419.8,538.2 424.1,544.7 419.8,547.4 		"/>
		<polygon points="419.8,538.2 415.5,544.7 419.8,547.4 		"/>
		<polygon points="419.8,621.3 438.1,573.1 419.8,583.7 		"/>
		<polygon points="419.8,621.3 401.5,573.1 419.8,583.7 		"/>
		<polygon points="564.1,446.9 584,467.7 552.5,465.7 		"/>
		<polygon points="537.8,492.6 565.8,499.4 548.2,473.1 		"/>
		<polygon points="544.6,466.1 552.5,465.7 552.6,470.7 		"/>
		<polygon points="544.6,466.1 548.2,473.1 552.6,470.7 		"/>
		<polygon points="616.6,507.6 584,467.7 584.1,488.9 		"/>
		<polygon points="616.6,507.6 565.8,499.4 584.1,488.9 		"/>
		<polygon points="537.8,295.5 565.8,288.6 548.2,314.9 		"/>
		<polygon points="564.1,341.1 584,320.3 552.5,322.4 		"/>
		<polygon points="544.6,321.9 548.2,314.9 552.6,317.3 		"/>
		<polygon points="544.6,321.9 552.5,322.4 552.6,317.3 		"/>
		<polygon points="616.6,280.4 565.8,288.6 584.1,299.2 		"/>
		<polygon points="616.6,280.4 584,320.3 584.1,299.2 		"/>
		<polygon points="494.1,265.3 493.6,257.5 498.7,257.3 		"/>
		<polygon points="494.1,265.3 501.1,261.8 498.7,257.3 		"/>
		<polygon points="535.6,193.4 495.7,225.9 516.8,225.9 		"/>
		<polygon points="535.6,193.4 527.4,244.2 516.8,225.9 		"/>
		<polygon points="345.5,265.3 338.5,261.8 340.9,257.3 		"/>
		<polygon points="345.5,265.3 345.9,257.5 340.9,257.3 		"/>
		<polygon points="303.9,193.4 312.2,244.2 322.7,225.9 		"/>
		<polygon points="303.9,193.4 343.8,225.9 322.7,225.9 		"/>
		<polygon points="271.2,394 264.6,398.3 261.9,394 		"/>
		<polygon points="271.2,394 264.6,389.7 261.9,394 		"/>
		<polygon points="188.1,394 236.2,412.3 225.7,394 		"/>
		<polygon points="188.1,394 236.2,375.7 225.7,394 		"/>
		<polygon points="345.5,522.7 338.5,526.2 340.9,530.7 		"/>
		<polygon points="303.9,594.6 343.8,562.1 322.7,562.1 		"/>
		<polygon points="303.9,594.6 312.2,543.8 322.7,562.1 		"/>
		<polygon points="535.6,594.6 527.4,543.8 516.8,562.1 		"/>
		<polygon points="535.6,594.6 495.7,562.1 516.8,562.1 		"/>
		<polygon points="568.3,394 574.9,389.7 577.6,394 		"/>
		<polygon points="568.3,394 574.9,398.3 577.6,394 		"/>
		<polygon points="651.4,394 603.3,375.7 613.9,394 		"/>
		<polygon points="651.4,394 603.3,412.3 613.9,394 		"/>
		<polygon points="422.3,593.5 409.9,612.5 422.3,620.1 		"/>
	</g>
</g>

<g class="outer">
	<g class="main">
		<polygon points="369.2,96.7 325.8,30.5 384.5,44.2 	"/>
		<polygon points="469.3,96.7 512.8,30.5 454,44.2 	"/>
		<polygon points="384.5,44.2 419.3,75.8 419.3,93.1 411.1,98.1 	"/>
		<polygon points="454,44.2 419.3,75.8 419.3,93.1 427.4,98.1 	"/>
		<polygon points="145,283.9 66,288.5 107.2,244.4 	"/>
		<polygon points="195.1,197.3 159.5,126.5 141.9,184.3 	"/>
		<polygon points="107.2,244.4 152,230.1 166.9,238.8 167.2,248.4 	"/>
		<polygon points="141.9,184.3 152,230.1 166.9,238.8 175.4,234.2 	"/>
		<polygon points="195.1,571.7 159.5,642.4 141.9,584.7 	"/>
		<polygon points="145,485 66,480.5 107.2,524.5 	"/>
		<polygon points="141.9,584.7 152,538.8 166.9,530.2 175.4,534.7 	"/>
		<polygon points="107.2,524.5 152,538.8 166.9,530.2 167.2,520.6 	"/>
		<polygon points="469.3,672.2 512.8,738.4 454,724.7 	"/>
		<polygon points="369.2,672.2 325.8,738.4 384.5,724.7 	"/>
		<polygon points="454,724.7 419.3,693.1 419.3,675.9 427.4,670.8 	"/>
		<polygon points="384.5,724.7 419.3,693.1 419.3,675.9 411.1,670.8 	"/>
		<polygon points="693.5,485 772.5,480.5 731.3,524.5 	"/>
		<polygon points="643.4,571.7 679,642.4 696.6,584.7 	"/>
		<polygon points="731.3,524.5 686.6,538.8 671.6,530.2 671.3,520.6 	"/>
		<polygon points="696.6,584.7 686.6,538.8 671.6,530.2 663.1,534.7 	"/>
		<polygon points="643.4,197.3 679,126.5 696.6,184.2 	"/>
		<polygon points="693.5,283.9 772.5,288.5 731.3,244.4 	"/>
		<polygon points="696.6,184.2 686.6,230.1 671.6,238.8 663.1,234.2 	"/>
		<polygon points="731.3,244.4 686.6,230.1 671.6,238.8 671.3,248.4 	"/>
		<polygon points="563.5,65.1 577.8,109.9 569.2,124.8 559.6,125.1 	"/>
		<polygon points="623.7,99.9 577.8,109.9 569.2,124.8 573.7,133.3 	"/>
		<polygon points="214.8,99.9 260.7,109.9 269.4,124.8 264.8,133.3 	"/>
		<polygon points="275,65.1 260.7,109.9 269.4,124.8 279,125.1 	"/>
		<polygon points="70.6,419.2 102.2,384.5 119.5,384.5 124.5,392.6 	"/>
		<polygon points="70.6,349.7 102.2,384.5 119.5,384.5 124.5,376.3 	"/>
		<polygon points="275,703.8 260.7,659 269.4,644.1 279,643.8 	"/>
		<polygon points="214.8,669 260.7,659 269.4,644.1 264.8,635.6 	"/>
		<polygon points="623.7,669 577.8,659 569.2,644.1 573.7,635.6 	"/>
		<polygon points="563.5,703.8 577.8,659 569.2,644.1 559.6,643.8 	"/>
		<polygon points="767.9,349.7 736.3,384.5 719.1,384.5 714,376.3 	"/>
		<polygon points="767.9,419.2 736.3,384.5 719.1,384.5 714,392.6 	"/>
	</g>
	<g class="accents">
		<polygon points="63.6,386.5 41,385.2 40.6,399.8 	"/>
		<polygon points="781,386.4 791.2,406.6 804,399.8 	"/>
		<polygon points="208.9,549 188.7,559.3 195.6,572.1 	"/>
		<polygon points="635.7,549 634.5,571.6 649,572.1 	"/>
		<polygon points="781,254.1 803.5,255.3 804,240.8 	"/>
		<polygon points="63.6,254.1 53.4,233.9 40.6,240.8 	"/>
		<polygon points="635.7,91.5 655.9,81.3 649,68.5 	"/>
		<polygon points="208.9,91.5 210.1,68.9 195.6,68.5 	"/>
		<polygon points="215.7,682.8 195.6,693 202.4,705.8 	"/>
		<polygon points="642.6,682.8 641.4,705.4 655.9,705.8 	"/>
	</g>
</g>
</svg>
