<?xml version="1.0" encoding="utf-8"?>
<!-- Generator: Adobe Illustrator 19.1.0, SVG Export Plug-In . SVG Version: 6.00 Build 0)  -->
<svg version="1.1" id="Layer_1" xmlns="http://www.w3.org/2000/svg" xmlns:xlink="http://www.w3.org/1999/xlink" x="0px" y="0px"
	 viewBox="0 0 185.9 146" style="enable-background:new 0 0 185.9 146;" xml:space="preserve">
<style type="text/css">
	.st0{fill:#5E5E5E;}
	.st1{fill:#FFFFFF;}
	.st2{fill:#BEC945;}
	.st3{fill:#E466A1;}
	.st4{fill:#36B7BC;}
	.st5{fill:none;stroke:#FFFFFF;stroke-linecap:round;stroke-miterlimit:10;}
	.st6{fill:none;stroke:#FFFFFF;stroke-linecap:round;stroke-miterlimit:10;stroke-dasharray:0,1.9982;}
	.st7{fill:none;stroke:#575756;stroke-linecap:round;stroke-miterlimit:10;}
	.st8{fill:none;stroke:#575756;stroke-linecap:round;stroke-miterlimit:10;stroke-dasharray:0,2;}
	.st9{fill:#575756;}
	.st10{opacity:0.15;}
	.st11{clip-path:url(#SVGID_2_);}
	.st12{fill:#E5007E;}
	.st13{fill:none;stroke:#FFFFFF;stroke-width:1.6159;stroke-miterlimit:10;}
	.st14{fill:#3C3C3B;}
	.st15{clip-path:url(#SVGID_4_);}
	.st16{clip-path:url(#_448054032_9_);}
	.st17{clip-path:url(#_448054032_10_);}
	.st18{clip-path:url(#_376300088_5_);}
	.st19{clip-path:url(#SVGID_6_);fill:#36B7BC;}
	.st20{clip-path:url(#SVGID_6_);fill:#E466A1;}
	.st21{clip-path:url(#SVGID_6_);}
	.st22{clip-path:url(#SVGID_8_);}
	.st23{fill:#2A2A2A;}
	.st24{fill:none;}
	.st25{clip-path:url(#SVGID_10_);}
	.st26{clip-path:url(#SVGID_12_);fill:#36B7BC;}
	.st27{clip-path:url(#SVGID_12_);fill:#E466A1;}
	.st28{clip-path:url(#SVGID_12_);}
	.st29{clip-path:url(#_376302392_6_);}
	.st30{clip-path:url(#_376304864_6_);}
	.st31{fill:none;stroke:#575756;stroke-linecap:round;stroke-miterlimit:10;stroke-dasharray:0,2.029;}
	.st32{fill:none;stroke:#575756;stroke-linecap:round;stroke-miterlimit:10;stroke-dasharray:0,1.9959;}
	.st33{fill:none;stroke:#575756;stroke-linecap:round;stroke-miterlimit:10;stroke-dasharray:0,1.9956;}
</style>
<g>
	<g>
		<path class="st9" d="M17,70.8h6.3c1.3,0,2.5,0.2,3.6,0.6c1.1,0.4,2,1,2.8,1.8s1.4,1.6,1.8,2.7c0.4,1,0.6,2.1,0.6,3.3v0
			c0,1.2-0.2,2.3-0.6,3.3c-0.4,1-1,1.9-1.8,2.7s-1.7,1.3-2.8,1.8c-1.1,0.4-2.3,0.6-3.6,0.6H17V70.8z M23.3,84.9
			c0.9,0,1.7-0.1,2.4-0.4c0.7-0.3,1.3-0.7,1.8-1.2c0.5-0.5,0.9-1.1,1.2-1.8c0.3-0.7,0.4-1.5,0.4-2.3v0c0-0.8-0.1-1.6-0.4-2.3
			c-0.3-0.7-0.7-1.3-1.2-1.8c-0.5-0.5-1.1-0.9-1.8-1.2c-0.7-0.3-1.5-0.4-2.4-0.4h-3.3v11.5H23.3z"/>
		<path class="st9" d="M35.9,70.8h2.9v16.8h-2.9V70.8z"/>
		<path class="st9" d="M43.4,70.8h7.5c1.1,0,2,0.1,2.8,0.4c0.8,0.3,1.5,0.7,2,1.2c0.4,0.5,0.8,1,1,1.6c0.2,0.6,0.4,1.3,0.4,2v0
			c0,0.7-0.1,1.3-0.3,1.9s-0.5,1-0.8,1.5c-0.4,0.4-0.8,0.8-1.3,1.1s-1,0.5-1.6,0.7l4.5,6.4h-3.5L50,81.7h0h-3.7v5.9h-2.9V70.8z
			 M50.6,79.1c1.1,0,1.9-0.3,2.5-0.8c0.6-0.5,0.9-1.2,0.9-2.1v0c0-0.9-0.3-1.6-0.9-2.1c-0.6-0.5-1.5-0.7-2.6-0.7h-4.3v5.7H50.6z"/>
		<path class="st9" d="M60.7,70.8h12.4v2.7h-9.5v4.3h8.4v2.7h-8.4v4.5h9.6v2.7H60.7V70.8z"/>
		<path class="st9" d="M84.6,87.9c-1.2,0-2.4-0.2-3.4-0.7c-1-0.4-1.9-1.1-2.7-1.8c-0.8-0.8-1.4-1.7-1.8-2.7
			c-0.4-1.1-0.7-2.2-0.7-3.4v0c0-1.2,0.2-2.3,0.6-3.4c0.4-1,1-2,1.8-2.8c0.8-0.8,1.7-1.4,2.7-1.9s2.2-0.7,3.5-0.7
			c0.8,0,1.5,0.1,2.1,0.2c0.6,0.1,1.2,0.3,1.7,0.5c0.5,0.2,1,0.5,1.5,0.8c0.4,0.3,0.9,0.7,1.3,1.1l-1.9,2.2
			c-0.7-0.6-1.4-1.1-2.1-1.5c-0.8-0.4-1.6-0.6-2.6-0.6c-0.8,0-1.5,0.2-2.2,0.5c-0.7,0.3-1.3,0.7-1.8,1.3s-0.9,1.2-1.2,1.9
			c-0.3,0.7-0.4,1.5-0.4,2.3v0c0,0.8,0.1,1.6,0.4,2.3c0.3,0.7,0.7,1.4,1.2,1.9s1.1,1,1.8,1.3c0.7,0.3,1.4,0.5,2.2,0.5
			c1,0,1.9-0.2,2.6-0.6s1.5-0.9,2.2-1.6l1.9,1.9c-0.4,0.5-0.9,0.9-1.4,1.2c-0.5,0.4-1,0.7-1.5,0.9c-0.5,0.3-1.1,0.5-1.8,0.6
			S85.4,87.9,84.6,87.9z"/>
		<path class="st9" d="M98.6,73.5h-5.3v-2.7H107v2.7h-5.3v14.1h-3V73.5z"/>
		<path class="st9" d="M110.2,70.8h2.9v16.8h-2.9V70.8z"/>
		<path class="st9" d="M125.7,87.9c-1.3,0-2.5-0.2-3.6-0.7s-2-1.1-2.8-1.9c-0.8-0.8-1.4-1.7-1.8-2.7c-0.4-1-0.6-2.2-0.6-3.3v0
			c0-1.2,0.2-2.3,0.6-3.3c0.4-1,1-2,1.8-2.8c0.8-0.8,1.7-1.4,2.8-1.9c1.1-0.5,2.3-0.7,3.6-0.7s2.5,0.2,3.6,0.7
			c1.1,0.5,2,1.1,2.8,1.9c0.8,0.8,1.4,1.7,1.8,2.7c0.4,1,0.6,2.2,0.6,3.3v0c0,1.2-0.2,2.3-0.6,3.3c-0.4,1-1,2-1.8,2.8
			s-1.7,1.4-2.8,1.9C128.2,87.6,127,87.9,125.7,87.9z M125.7,85.2c0.8,0,1.6-0.2,2.3-0.5c0.7-0.3,1.3-0.7,1.8-1.3
			c0.5-0.5,0.9-1.2,1.2-1.9c0.3-0.7,0.4-1.5,0.4-2.3v0c0-0.8-0.1-1.6-0.4-2.3c-0.3-0.7-0.7-1.4-1.2-1.9s-1.1-1-1.8-1.3
			c-0.7-0.3-1.5-0.5-2.3-0.5s-1.6,0.2-2.3,0.5c-0.7,0.3-1.3,0.7-1.8,1.3s-0.9,1.2-1.2,1.9c-0.3,0.7-0.4,1.5-0.4,2.3v0
			c0,0.8,0.1,1.6,0.4,2.3c0.3,0.7,0.7,1.4,1.2,1.9s1.1,1,1.8,1.3C124.1,85,124.9,85.2,125.7,85.2z"/>
		<path class="st9" d="M138.1,70.8h2.7l9,11.6V70.8h2.9v16.8h-2.5l-9.2-12v12h-2.9V70.8z"/>
		<path class="st9" d="M162.9,87.8c-1.3,0-2.5-0.2-3.7-0.7c-1.2-0.4-2.3-1.1-3.3-2l1.8-2.1c0.8,0.7,1.6,1.2,2.5,1.6s1.8,0.6,2.8,0.6
			c0.9,0,1.6-0.2,2.2-0.6c0.5-0.4,0.8-0.9,0.8-1.5v0c0-0.3-0.1-0.6-0.2-0.8c-0.1-0.2-0.3-0.5-0.6-0.7c-0.3-0.2-0.7-0.4-1.2-0.6
			c-0.5-0.2-1.1-0.4-1.9-0.5c-0.9-0.2-1.7-0.4-2.4-0.7c-0.7-0.3-1.3-0.6-1.8-1c-0.5-0.4-0.8-0.8-1.1-1.4c-0.2-0.5-0.4-1.2-0.4-2v0
			c0-0.7,0.1-1.4,0.4-2s0.7-1.1,1.2-1.5c0.5-0.4,1.1-0.8,1.8-1c0.7-0.2,1.5-0.4,2.3-0.4c1.2,0,2.3,0.2,3.3,0.5
			c1,0.4,1.9,0.9,2.8,1.6l-1.6,2.2c-0.8-0.6-1.5-1-2.3-1.3s-1.5-0.4-2.3-0.4c-0.9,0-1.5,0.2-2,0.6c-0.5,0.4-0.7,0.9-0.7,1.4v0
			c0,0.3,0.1,0.6,0.2,0.9c0.1,0.2,0.3,0.5,0.6,0.7s0.7,0.4,1.2,0.6c0.5,0.2,1.2,0.4,2,0.6c0.9,0.2,1.7,0.5,2.3,0.7
			c0.7,0.3,1.2,0.6,1.7,1c0.4,0.4,0.8,0.8,1,1.4c0.2,0.5,0.3,1.1,0.3,1.8v0c0,0.8-0.1,1.5-0.4,2.1s-0.7,1.2-1.2,1.6s-1.2,0.8-1.9,1
			C164.6,87.7,163.8,87.8,162.9,87.8z"/>
	</g>
	<g>
		<polygon class="st4" points="81.7,54.5 88.9,62.1 92.2,54.7 92.2,48.8 		"/>
		<polygon class="st4" points="102.6,54.5 95.4,62.1 92.2,54.7 92.2,48.8 		"/>
		<polygon id="_377572792_10_" class="st4" points="78.9,56.1 81.9,66.2 73.9,65.3 68.7,62.3 		"/>
		<polygon id="_372230688_10_" class="st4" points="78.9,100.6 81.9,90.5 73.9,91.4 68.7,94.3 		"/>
		<polygon id="_376306592_10_" class="st4" points="102.6,102.2 95.4,94.5 92.2,102 92.2,107.9 		"/>
		<polygon id="_376294064_10_" class="st4" points="81.7,102.2 88.9,94.5 92.2,102 92.2,107.9 		"/>
		<polygon id="_376300160_10_" class="st4" points="105.4,100.6 102.4,90.5 110.4,91.4 115.6,94.3 		"/>
		<polygon id="_374223960_10_" class="st4" points="105.4,56.1 102.4,66.2 110.4,65.3 115.6,62.3 		"/>
		<polygon class="st2" points="92.2,48.8 80.1,36.8 92.2,44.2 		"/>
		<polygon class="st2" points="92.2,48.8 104.2,36.8 92.2,44.2 		"/>
		<polygon id="_377572696_10_" class="st2" points="68.7,62.3 52.3,66.7 64.7,60 		"/>
		<polygon id="_377572720_10_" class="st2" points="68.7,62.3 64.3,45.9 64.7,60 		"/>
		<polygon id="_372230592_10_" class="st2" points="68.7,94.3 64.3,110.8 64.7,96.7 		"/>
		<polygon id="_372230616_10_" class="st2" points="68.7,94.3 52.3,89.9 64.7,96.7 		"/>
		<polygon id="_376302320_10_" class="st2" points="92.2,107.9 104.2,119.9 92.2,112.5 		"/>
		<polygon id="_376306376_10_" class="st2" points="92.2,107.9 80.1,119.9 92.2,112.5 		"/>
		<polygon id="_376299176_10_" class="st2" points="115.6,94.3 132,89.9 119.6,96.7 		"/>
		<polygon id="_376299080_10_" class="st2" points="115.6,94.3 120,110.8 119.6,96.7 		"/>
		<polygon id="_374223288_10_" class="st2" points="115.6,62.3 120,45.9 119.6,60 		"/>
		<polygon id="_374223456_10_" class="st2" points="115.6,62.3 132,66.7 119.6,60 		"/>
	</g>
</g>
<g class="st10">
	<defs>
		<polygon id="SVGID_7_" class="st10" points="572.6,354 -269.2,354 -267.4,284.2 574.5,284.2 		"/>
	</defs>
	<clipPath id="SVGID_2_">
		<use xlink:href="#SVGID_7_"  style="overflow:visible;"/>
	</clipPath>
	<g class="st11">
		<polygon class="st4" points="102,192.9 58.5,126.7 117.3,140.3 		"/>
		<polygon class="st4" points="117.3,140.3 152,172 152,189.2 143.9,194.3 		"/>
		<polygon class="st4" points="186.8,140.3 152,172 152,189.2 160.2,194.3 		"/>
	</g>
	<g class="st11">
	</g>
</g>
</svg>
