<?xml version="1.0" encoding="utf-8"?>
<!-- Generator: Adobe Illustrator 19.1.0, SVG Export Plug-In . SVG Version: 6.00 Build 0)  -->
<svg version="1.1" id="Layer_1" xmlns="http://www.w3.org/2000/svg" xmlns:xlink="http://www.w3.org/1999/xlink" x="0px" y="0px"
	 viewBox="-257 240.3 102.7 102.7" style="enable-background:new -257 240.3 102.7 102.7;" xml:space="preserve">
<style type="text/css">
	.st0{fill:#E466A1;}
	.st1{fill:#BEC945;}
	.st2{fill:#575756;}
	.st3{font-family:'GothamMedium';}
	.st4{font-size:21.3985px;}
</style>
<g>
	<polygon class="st0" points="-218.9,266.2 -210,275.7 -206,266.4 -206,259.1 	"/>
	<polygon class="st0" points="-193,266.2 -201.9,275.7 -206,266.4 -206,259.1 	"/>
	<polygon id="_377572792_5_" class="st0" points="-222.4,268.2 -218.6,280.7 -228.6,279.6 -235,275.9 	"/>
	<polygon id="_372230688_5_" class="st0" points="-222.4,317.1 -218.6,304.6 -228.6,305.7 -235,309.4 	"/>
	<polygon id="_376306592_5_" class="st0" points="-193,319.1 -201.9,309.7 -206,318.8 -206,326.1 	"/>
	<polygon id="_376294064_5_" class="st0" points="-218.9,319.1 -210,309.7 -206,318.8 -206,326.1 	"/>
	<polygon id="_376300160_5_" class="st0" points="-189.5,317.1 -193.3,304.6 -183.3,305.7 -177,309.4 	"/>
	<polygon id="_374223960_5_" class="st0" points="-189.5,268.2 -193.3,280.7 -183.3,279.6 -177,275.9 	"/>
	<g>
		<polygon class="st1" points="-206,259.1 -220.9,244.3 -206,253.4 		"/>
		<polygon class="st1" points="-206,259.1 -191,244.3 -206,253.4 		"/>
		<polygon id="_377572696_6_" class="st1" points="-235,275.9 -255.3,281.4 -239.9,273 		"/>
		<polygon id="_377572720_6_" class="st1" points="-235,275.9 -240.4,255.6 -239.9,273 		"/>
		<polygon id="_372230592_8_" class="st1" points="-235,309.4 -240.4,329.7 -239.9,312.3 		"/>
		<polygon id="_372230616_8_" class="st1" points="-235,309.4 -255.3,304 -239.9,312.3 		"/>
		<polygon id="_376302320_8_" class="st1" points="-206,326.1 -191,341 -206,331.8 		"/>
		<polygon id="_376306376_8_" class="st1" points="-206,326.1 -220.9,341 -206,331.8 		"/>
		<polygon id="_376299176_8_" class="st1" points="-177,309.4 -156.6,304 -172,312.3 		"/>
		<polygon id="_376299080_8_" class="st1" points="-177,309.4 -171.5,329.7 -172,312.3 		"/>
		<polygon id="_374223288_6_" class="st1" points="-177,275.9 -171.5,255.6 -172,273 		"/>
		<polygon id="_374223456_6_" class="st1" points="-177,275.9 -156.6,281.4 -172,273 		"/>
	</g>
</g>
<text transform="matrix(1 0 0 1 -254.461 300.2125)" class="st2 st3 st4">AGENDA</text>
</svg>
