<?xml version="1.0" encoding="utf-8"?>
<!-- Generator: Adobe Illustrator 19.1.0, SVG Export Plug-In . SVG Version: 6.00 Build 0)  -->
<svg version="1.1" id="Layer_1" xmlns="http://www.w3.org/2000/svg" xmlns:xlink="http://www.w3.org/1999/xlink" x="0px" y="0px"
	 viewBox="-1149 1643.69 84.7 84.7" enable-background="new -1149 1643.69 84.7 84.7" xml:space="preserve">
<g>
	<polygon fill="#E466A1" points="-1117.9,1664.19 -1110.7,1671.89 -1107.5,1664.39 -1107.5,1658.49 	"/>
	<polygon fill="#E466A1" points="-1097,1664.19 -1104.2,1671.89 -1107.5,1664.39 -1107.5,1658.49 	"/>
	<polygon id="_377572792_5_" fill="#E466A1" points="-1120.7,1665.79 -1117.7,1675.89 -1125.7,1674.99 -1130.9,1671.99 	"/>
	<polygon id="_372230688_5_" fill="#E466A1" points="-1120.7,1705.29 -1117.7,1695.19 -1125.7,1696.09 -1130.9,1699.09 	"/>
	<polygon id="_376306592_5_" fill="#E466A1" points="-1097,1706.89 -1104.2,1699.29 -1107.5,1706.69 -1107.5,1712.59 	"/>
	<polygon id="_376294064_5_" fill="#E466A1" points="-1117.9,1706.89 -1110.7,1699.29 -1107.5,1706.69 -1107.5,1712.59 	"/>
	<polygon id="_376300160_5_" fill="#E466A1" points="-1094.2,1705.29 -1097.2,1695.19 -1089.2,1696.09 -1084.1,1699.09 	"/>
	<polygon id="_374223960_5_" fill="#E466A1" points="-1094.2,1665.79 -1097.2,1675.89 -1089.2,1674.99 -1084.1,1671.99 	"/>
	<g>
		<polygon fill="#BEC945" points="-1107.5,1658.49 -1119.5,1646.49 -1107.5,1653.89 		"/>
		<polygon fill="#BEC945" points="-1107.5,1658.49 -1095.4,1646.49 -1107.5,1653.89 		"/>
		<polygon id="_377572696_6_" fill="#BEC945" points="-1130.9,1671.99 -1147.3,1676.49 -1134.9,1669.69 		"/>
		<polygon id="_377572720_6_" fill="#BEC945" points="-1130.9,1671.99 -1135.3,1655.59 -1134.9,1669.69 		"/>
		<polygon id="_372230592_8_" fill="#BEC945" points="-1130.9,1699.09 -1135.3,1715.49 -1134.9,1701.39 		"/>
		<polygon id="_372230616_8_" fill="#BEC945" points="-1130.9,1699.09 -1147.3,1694.69 -1134.9,1701.39 		"/>
		<polygon id="_376302320_8_" fill="#BEC945" points="-1107.5,1712.59 -1095.4,1724.59 -1107.5,1717.19 		"/>
		<polygon id="_376306376_8_" fill="#BEC945" points="-1107.5,1712.59 -1119.5,1724.59 -1107.5,1717.19 		"/>
		<polygon id="_376299176_8_" fill="#BEC945" points="-1084.1,1699.09 -1067.6,1694.69 -1080,1701.39 		"/>
		<polygon id="_376299080_8_" fill="#BEC945" points="-1084.1,1699.09 -1079.6,1715.49 -1080,1701.39 		"/>
		<polygon id="_374223288_6_" fill="#BEC945" points="-1084.1,1671.99 -1079.6,1655.59 -1080,1669.69 		"/>
		<polygon id="_374223456_6_" fill="#BEC945" points="-1084.1,1671.99 -1067.6,1676.49 -1080,1669.69 		"/>
	</g>
</g>
<g>
	<path fill="#575756" d="M-1140.68,1679.27h2.4l5.08,11.94h-2.73l-1.08-2.66h-5.01l-1.08,2.66h-2.66L-1140.68,1679.27z
		 M-1137.94,1686.25l-1.57-3.84l-1.57,3.84H-1137.94z"/>
	<path fill="#575756" d="M-1125.66,1691.41c-0.93,0-1.77-0.15-2.53-0.46c-0.76-0.3-1.42-0.73-1.96-1.27
		c-0.55-0.54-0.97-1.19-1.28-1.93c-0.3-0.74-0.46-1.56-0.46-2.44v-0.03c0-0.85,0.15-1.64,0.47-2.38s0.74-1.39,1.3-1.95
		c0.55-0.56,1.21-1,1.96-1.32s1.59-0.48,2.49-0.48c0.53,0,1.01,0.04,1.45,0.11s0.84,0.18,1.21,0.31c0.37,0.14,0.72,0.3,1.05,0.51
		c0.33,0.2,0.64,0.43,0.95,0.69l-1.64,1.98c-0.23-0.19-0.45-0.36-0.68-0.51c-0.23-0.15-0.46-0.27-0.7-0.37
		c-0.24-0.1-0.51-0.18-0.79-0.24s-0.59-0.08-0.93-0.08c-0.47,0-0.92,0.1-1.33,0.3c-0.41,0.2-0.77,0.46-1.08,0.8
		c-0.31,0.33-0.55,0.72-0.73,1.17c-0.18,0.45-0.26,0.92-0.26,1.43v0.03c0,0.54,0.09,1.04,0.26,1.5c0.17,0.46,0.42,0.86,0.75,1.2
		c0.32,0.34,0.7,0.6,1.13,0.79c0.43,0.19,0.92,0.28,1.45,0.28c0.97,0,1.79-0.24,2.45-0.72v-1.71h-2.62v-2.25h5.15v5.15
		c-0.61,0.52-1.33,0.96-2.18,1.33C-1123.62,1691.23-1124.58,1691.41-1125.66,1691.41z"/>
	<path fill="#575756" d="M-1118.09,1679.36h8.92v2.32h-6.35v2.4h5.59v2.32h-5.59v2.49h6.43v2.32h-9.01V1679.36z"/>
	<path fill="#575756" d="M-1106.75,1679.36h2.4l5.55,7.3v-7.3h2.57v11.85h-2.22l-5.74-7.53v7.53h-2.57V1679.36z"/>
	<path fill="#575756" d="M-1093.38,1679.36h4.62c0.93,0,1.78,0.15,2.55,0.45c0.77,0.3,1.44,0.71,2,1.24
		c0.56,0.53,0.99,1.15,1.29,1.87s0.46,1.49,0.46,2.33v0.03c0,0.84-0.15,1.61-0.46,2.34c-0.3,0.72-0.74,1.35-1.29,1.88
		c-0.56,0.53-1.23,0.95-2,1.25c-0.77,0.3-1.62,0.46-2.55,0.46h-4.62V1679.36z M-1088.75,1688.85c0.53,0,1.02-0.08,1.46-0.25
		c0.44-0.17,0.82-0.41,1.13-0.73c0.31-0.32,0.55-0.69,0.73-1.12c0.17-0.43,0.26-0.91,0.26-1.44v-0.03c0-0.52-0.09-1-0.26-1.44
		c-0.17-0.44-0.42-0.82-0.73-1.13c-0.31-0.32-0.69-0.56-1.13-0.74c-0.44-0.17-0.92-0.26-1.46-0.26h-2.01v7.15H-1088.75z"/>
	<path fill="#575756" d="M-1076.07,1679.27h2.4l5.08,11.94h-2.73l-1.08-2.66h-5.01l-1.08,2.66h-2.66L-1076.07,1679.27z
		 M-1073.33,1686.25l-1.57-3.84l-1.58,3.84H-1073.33z"/>
</g>
</svg>
