<?xml version="1.0" encoding="utf-8"?>
<!-- Generator: Adobe Illustrator 19.1.0, SVG Export Plug-In . SVG Version: 6.00 Build 0)  -->
<svg version="1.1" id="Layer_1" xmlns="http://www.w3.org/2000/svg" xmlns:xlink="http://www.w3.org/1999/xlink" x="0px" y="0px"
	 viewBox="0 0 185.9 146" style="enable-background:new 0 0 185.9 146;" xml:space="preserve">
<style type="text/css">
	.st0{fill:#5E5E5E;}
	.st1{fill:#FFFFFF;}
	.st2{fill:#BEC945;}
	.st3{fill:#E466A1;}
	.st4{fill:#36B7BC;}
	.st5{fill:none;stroke:#FFFFFF;stroke-linecap:round;stroke-miterlimit:10;}
	.st6{fill:none;stroke:#FFFFFF;stroke-linecap:round;stroke-miterlimit:10;stroke-dasharray:0,1.9982;}
	.st7{fill:none;stroke:#575756;stroke-linecap:round;stroke-miterlimit:10;}
	.st8{fill:none;stroke:#575756;stroke-linecap:round;stroke-miterlimit:10;stroke-dasharray:0,2;}
	.st9{fill:#575756;}
	.st10{opacity:0.15;}
	.st11{clip-path:url(#SVGID_2_);}
	.st12{fill:#E5007E;}
	.st13{fill:none;stroke:#FFFFFF;stroke-width:1.6159;stroke-miterlimit:10;}
	.st14{fill:#3C3C3B;}
	.st15{clip-path:url(#SVGID_4_);}
	.st16{clip-path:url(#_448054032_9_);}
	.st17{clip-path:url(#_448054032_10_);}
	.st18{clip-path:url(#_376300088_5_);}
	.st19{clip-path:url(#SVGID_6_);fill:#36B7BC;}
	.st20{clip-path:url(#SVGID_6_);fill:#E466A1;}
	.st21{clip-path:url(#SVGID_6_);}
	.st22{clip-path:url(#SVGID_8_);}
	.st23{fill:#2A2A2A;}
	.st24{fill:none;}
	.st25{clip-path:url(#SVGID_10_);}
	.st26{clip-path:url(#SVGID_12_);fill:#36B7BC;}
	.st27{clip-path:url(#SVGID_12_);fill:#E466A1;}
	.st28{clip-path:url(#SVGID_12_);}
	.st29{clip-path:url(#_376302392_6_);}
	.st30{clip-path:url(#_376304864_6_);}
	.st31{fill:none;stroke:#575756;stroke-linecap:round;stroke-miterlimit:10;stroke-dasharray:0,2.029;}
	.st32{fill:none;stroke:#575756;stroke-linecap:round;stroke-miterlimit:10;stroke-dasharray:0,1.9959;}
	.st33{fill:none;stroke:#575756;stroke-linecap:round;stroke-miterlimit:10;stroke-dasharray:0,1.9956;}
</style>
<g class="st10">
	<defs>
		<polygon id="SVGID_7_" class="st10" points="371.1,354 -470.8,354 -468.9,284.2 372.9,284.2 		"/>
	</defs>
	<clipPath id="SVGID_2_">
		<use xlink:href="#SVGID_7_"  style="overflow:visible;"/>
	</clipPath>
	<g class="st11">
		<polygon class="st4" points="0.5,192.9 43.9,126.7 -14.8,140.3 		"/>
	</g>
	<g class="st11">
	</g>
</g>
<g>
	<g>
		<path class="st9" d="M49.7,70.1h9.1c2.3,0,4.1,0.6,5.3,1.8c0.9,0.9,1.4,2,1.4,3.4v0.1c0,0.6-0.1,1.2-0.2,1.6
			c-0.2,0.5-0.4,0.9-0.6,1.2c-0.3,0.4-0.6,0.7-0.9,0.9c-0.4,0.3-0.7,0.5-1.1,0.7c0.6,0.2,1.1,0.5,1.6,0.7c0.5,0.3,0.9,0.6,1.3,1
			c0.4,0.4,0.6,0.8,0.8,1.4c0.2,0.5,0.3,1.1,0.3,1.8v0.1c0,0.9-0.2,1.7-0.5,2.4c-0.4,0.7-0.9,1.3-1.5,1.7c-0.7,0.5-1.4,0.8-2.4,1.1
			c-0.9,0.2-1.9,0.4-3.1,0.4h-9.4V70.1z M58.1,78.6c1.2,0,2.1-0.2,2.8-0.7c0.7-0.5,1-1.1,1-2.1v-0.1c0-0.8-0.3-1.4-0.9-1.9
			c-0.6-0.5-1.5-0.7-2.6-0.7h-5.1v5.4H58.1z M59.1,87.2c1.2,0,2.2-0.2,2.9-0.7c0.7-0.5,1-1.2,1-2.1v-0.1c0-0.9-0.3-1.5-1-2
			c-0.7-0.5-1.7-0.7-3.1-0.7h-5.6v5.6H59.1z"/>
		<path class="st9" d="M80.3,90.7c-1.6,0-3-0.3-4.3-0.8c-1.3-0.6-2.4-1.3-3.3-2.2c-0.9-0.9-1.7-2.1-2.2-3.3c-0.5-1.3-0.8-2.6-0.8-4
			v-0.1c0-1.4,0.3-2.8,0.8-4c0.5-1.3,1.3-2.4,2.2-3.3c0.9-1,2.1-1.7,3.4-2.3c1.3-0.6,2.7-0.8,4.3-0.8c1.6,0,3,0.3,4.3,0.8
			s2.4,1.3,3.3,2.2c0.9,0.9,1.7,2,2.2,3.3c0.5,1.3,0.8,2.6,0.8,4v0.1c0,1.4-0.3,2.8-0.8,4c-0.5,1.3-1.3,2.4-2.2,3.3
			c-0.9,1-2.1,1.7-3.4,2.3C83.3,90.4,81.8,90.7,80.3,90.7z M80.3,87.4c1,0,1.9-0.2,2.8-0.6c0.8-0.4,1.6-0.9,2.1-1.5
			c0.6-0.6,1.1-1.4,1.4-2.3c0.3-0.9,0.5-1.8,0.5-2.8v-0.1c0-1-0.2-1.9-0.5-2.8c-0.3-0.9-0.8-1.6-1.4-2.3c-0.6-0.6-1.3-1.2-2.2-1.5
			c-0.8-0.4-1.8-0.6-2.8-0.6c-1,0-1.9,0.2-2.8,0.6c-0.8,0.4-1.6,0.9-2.1,1.5c-0.6,0.6-1.1,1.4-1.4,2.3c-0.3,0.9-0.5,1.8-0.5,2.8v0.1
			c0,1,0.2,1.9,0.5,2.8c0.3,0.9,0.8,1.6,1.4,2.3c0.6,0.6,1.3,1.2,2.2,1.5C78.4,87.2,79.3,87.4,80.3,87.4z"/>
		<path class="st9" d="M104.9,90.7c-1.6,0-3-0.3-4.3-0.8c-1.3-0.6-2.4-1.3-3.3-2.2c-0.9-0.9-1.6-2.1-2.2-3.3c-0.5-1.3-0.8-2.6-0.8-4
			v-0.1c0-1.4,0.3-2.8,0.8-4c0.5-1.3,1.3-2.4,2.2-3.3c0.9-1,2.1-1.7,3.4-2.3c1.3-0.6,2.7-0.8,4.3-0.8c1.6,0,3,0.3,4.3,0.8
			c1.3,0.6,2.4,1.3,3.3,2.2c0.9,0.9,1.7,2,2.2,3.3c0.5,1.3,0.8,2.6,0.8,4v0.1c0,1.4-0.3,2.8-0.8,4c-0.5,1.3-1.3,2.4-2.2,3.3
			c-0.9,1-2.1,1.7-3.4,2.3C107.9,90.4,106.4,90.7,104.9,90.7z M104.9,87.4c1,0,1.9-0.2,2.8-0.6c0.8-0.4,1.6-0.9,2.1-1.5
			c0.6-0.6,1.1-1.4,1.4-2.3c0.3-0.9,0.5-1.8,0.5-2.8v-0.1c0-1-0.2-1.9-0.5-2.8c-0.3-0.9-0.8-1.6-1.4-2.3c-0.6-0.6-1.3-1.2-2.2-1.5
			c-0.8-0.4-1.8-0.6-2.8-0.6c-1,0-1.9,0.2-2.8,0.6c-0.8,0.4-1.6,0.9-2.1,1.5c-0.6,0.6-1.1,1.4-1.4,2.3c-0.3,0.9-0.5,1.8-0.5,2.8v0.1
			c0,1,0.2,1.9,0.5,2.8c0.3,0.9,0.8,1.6,1.4,2.3c0.6,0.6,1.3,1.2,2.2,1.5C103,87.2,103.9,87.4,104.9,87.4z"/>
		<path class="st9" d="M119.8,70.1h3.5v10.2l9.6-10.2h4.4l-8.4,8.7l8.8,11.6h-4.3l-6.9-9.1l-3.2,3.2v5.9h-3.5V70.1z"/>
	</g>
	<g>
		<polygon class="st3" points="80.3,50.4 89,59.6 93,50.7 93,43.6 		"/>
		<polygon class="st3" points="105.6,50.4 96.9,59.6 93,50.7 93,43.6 		"/>
		<polygon id="_377572792_11_" class="st3" points="77,52.4 80.6,64.5 70.9,63.4 64.7,59.9 		"/>
		<polygon id="_372230688_11_" class="st3" points="77,106 80.6,93.9 70.9,94.9 64.7,98.5 		"/>
		<polygon id="_376306592_11_" class="st3" points="105.6,107.9 96.9,98.7 93,107.7 93,114.8 		"/>
		<polygon id="_376294064_11_" class="st3" points="80.3,107.9 89,98.7 93,107.7 93,114.8 		"/>
		<polygon id="_376300160_11_" class="st3" points="108.9,106 105.3,93.9 115,94.9 121.2,98.5 		"/>
		<polygon id="_374223960_11_" class="st3" points="108.9,52.4 105.3,64.5 115,63.4 121.2,59.9 		"/>
		<polygon class="st2" points="93,43.6 78.4,29 93,38 		"/>
		<polygon class="st2" points="93,43.6 107.5,29 93,38 		"/>
		<polygon id="_377572696_11_" class="st2" points="64.7,59.9 44.9,65.2 59.9,57.1 		"/>
		<polygon id="_377572720_11_" class="st2" points="64.7,59.9 59.4,40 59.9,57.1 		"/>
		<polygon id="_372230592_11_" class="st2" points="64.7,98.5 59.4,118.4 59.9,101.3 		"/>
		<polygon id="_372230616_11_" class="st2" points="64.7,98.5 44.9,93.2 59.9,101.3 		"/>
		<polygon id="_376302320_11_" class="st2" points="93,114.8 107.5,129.3 93,120.4 		"/>
		<polygon id="_376306376_11_" class="st2" points="93,114.8 78.4,129.3 93,120.4 		"/>
		<polygon id="_376299176_11_" class="st2" points="121.2,98.5 141,93.2 126,101.3 		"/>
		<polygon id="_376299080_11_" class="st2" points="121.2,98.5 126.5,118.4 126,101.3 		"/>
		<polygon id="_374223288_11_" class="st2" points="121.2,59.9 126.5,40 126,57.1 		"/>
		<polygon id="_374223456_11_" class="st2" points="121.2,59.9 141,65.2 126,57.1 		"/>
	</g>
</g>
</svg>
