<?xml version="1.0" encoding="utf-8"?>
<!-- Generator: Adobe Illustrator 19.1.0, SVG Export Plug-In . SVG Version: 6.00 Build 0)  -->
<svg version="1.1" id="Layer_1" xmlns="http://www.w3.org/2000/svg" xmlns:xlink="http://www.w3.org/1999/xlink" x="0px" y="0px"
	 viewBox="0 0 841.89 1190.55" enable-background="new 0 0 841.89 1190.55" xml:space="preserve">
<rect fill="#5F5F5F" width="841.89" height="1190.55"/>
<g opacity="0.15">
	<defs>
		<polygon id="SVGID_1_" opacity="0.15" points="840,1194.26 -1.89,1194.26 0,0.82 841.89,0.82 		"/>
	</defs>
	<clipPath id="SVGID_2_">
		<use xlink:href="#SVGID_1_"  overflow="visible"/>
	</clipPath>
	<g clip-path="url(#SVGID_2_)">
		<polygon fill="#37B8BD" points="339.86,-117.16 268.68,-225.6 364.93,-203.18 		"/>
		<polygon fill="#37B8BD" points="503.77,-117.16 574.95,-225.6 478.69,-203.18 		"/>
		<polygon fill="#37B8BD" points="364.93,-203.18 421.82,-151.4 421.82,-123.15 408.44,-114.84 		"/>
		<polygon fill="#37B8BD" points="478.69,-203.18 421.82,-151.4 421.82,-123.15 435.18,-114.84 		"/>
		<polygon fill="#37B8BD" points="344.29,18.46 421.82,96.07 421.82,-26.66 		"/>
		<polygon fill="#37B8BD" points="499.34,18.46 421.82,96.07 421.82,-26.66 		"/>
		<polygon fill="#37B8BD" points="344.29,18.46 360.98,156.78 315.09,101.59 		"/>
		<polygon fill="#37B8BD" points="499.34,18.46 482.65,156.78 528.54,101.59 		"/>
		<polygon id="_377432192_1_" fill="#37B8BD" points="-27.31,189.46 -156.81,196.88 -89.27,124.73 		"/>
		<polygon id="_377432216_1_" fill="#37B8BD" points="54.64,47.51 -3.67,-68.35 -32.39,26.22 		"/>
		<polygon id="_377432288_1_" fill="#37B8BD" points="-89.27,124.73 -15.99,101.36 8.48,115.49 8.99,131.22 		"/>
		<polygon id="_377432312_1_" fill="#37B8BD" points="-32.39,26.22 -15.99,101.36 8.48,115.49 22.36,108.07 		"/>
		<polygon id="_375375696_1_" fill="#37B8BD" points="92.35,253.43 198.33,225.1 92.05,163.74 		"/>
		<polygon id="_375375720_1_" fill="#37B8BD" points="169.88,119.16 198.33,225.1 92.05,163.74 		"/>
		<polygon id="_375375816_1_" fill="#37B8BD" points="169.88,119.16 281.33,202.77 256.48,135.44 		"/>
		<polygon id="_379072240_1_" fill="#37B8BD" points="54.65,660.74 -3.67,776.6 -32.38,682.04 		"/>
		<polygon id="_379072264_1_" fill="#37B8BD" points="-27.3,518.8 -156.8,511.37 -89.27,583.53 		"/>
		<polygon id="_379072336_1_" fill="#37B8BD" points="-32.38,682.04 -15.98,606.89 8.48,592.77 22.37,600.19 		"/>
		<polygon id="_379072360_1_" fill="#37B8BD" points="-89.27,583.53 -15.98,606.89 8.48,592.77 9,577.04 		"/>
		<polygon id="_438677912_1_" fill="#37B8BD" points="169.88,589.1 198.33,483.16 92.05,544.52 		"/>
		<polygon id="_438677936_1_" fill="#37B8BD" points="92.36,454.82 198.33,483.16 92.05,544.52 		"/>
		<polygon id="_438678008_1_" fill="#37B8BD" points="169.88,589.1 281.33,505.49 256.48,572.82 		"/>
		<polygon id="_379001920_1_" fill="#37B8BD" points="503.77,825.41 574.96,933.85 478.7,911.43 		"/>
		<polygon id="_379001752_1_" fill="#37B8BD" points="339.87,825.41 268.69,933.85 364.94,911.43 		"/>
		<polygon id="_379003912_1_" fill="#37B8BD" points="478.7,911.43 421.82,859.66 421.82,831.41 435.19,823.09 		"/>
		<polygon id="_379004992_1_" fill="#37B8BD" points="364.94,911.43 421.82,859.66 421.82,831.41 408.45,823.09 		"/>
		<polygon id="_376302392_1_" fill="#37B8BD" points="499.34,689.79 421.82,612.18 421.82,734.91 		"/>
		<polygon id="_376304864_1_" fill="#37B8BD" points="344.29,689.79 421.82,612.18 421.82,734.91 		"/>
		<polygon id="_376304384_1_" fill="#37B8BD" points="499.34,689.79 482.66,551.47 528.55,606.66 		"/>
		<polygon id="_376304432_1_" fill="#37B8BD" points="344.29,689.79 360.98,551.47 315.09,606.66 		"/>
		<polygon id="_376297280_1_" fill="#37B8BD" points="870.94,518.8 1000.44,511.37 932.9,583.52 		"/>
		<polygon id="_376297448_1_" fill="#37B8BD" points="788.99,660.74 847.3,776.6 876.02,682.04 		"/>
		<polygon id="_376298120_1_" fill="#37B8BD" points="932.9,583.52 859.62,606.89 835.15,592.77 834.64,577.03 		"/>
		<polygon id="_376298360_1_" fill="#37B8BD" points="876.02,682.04 859.62,606.89 835.15,592.77 821.27,600.19 		"/>
		<polygon id="_376293872_1_" fill="#37B8BD" points="751.28,454.82 645.31,483.15 751.58,544.51 		"/>
		<polygon id="_376293200_1_" fill="#37B8BD" points="673.76,589.09 645.31,483.15 751.58,544.51 		"/>
		<polygon id="_376300088_1_" fill="#37B8BD" points="673.76,589.09 562.3,505.48 587.16,572.81 		"/>
		<polygon id="_374219928_1_" fill="#37B8BD" points="788.98,47.51 847.3,-68.36 876.02,26.21 		"/>
		<polygon id="_374220096_1_" fill="#37B8BD" points="870.94,189.45 1000.44,196.88 932.89,124.73 		"/>
		<polygon id="_374220600_1_" fill="#37B8BD" points="876.02,26.21 859.62,101.36 835.15,115.48 821.27,108.06 		"/>
		<polygon id="_374220768_1_" fill="#37B8BD" points="932.89,124.73 859.61,101.36 835.15,115.48 834.63,131.22 		"/>
		<polygon id="_374221608_1_" fill="#37B8BD" points="673.75,119.15 645.3,225.09 751.58,163.73 		"/>
		<polygon id="_374221776_1_" fill="#37B8BD" points="751.28,253.43 645.3,225.09 751.58,163.73 		"/>
		<polygon id="_374222280_1_" fill="#37B8BD" points="673.75,119.15 562.3,202.76 587.15,135.43 		"/>
		<polygon id="_446190800_1_" fill="#37B8BD" points="658.09,-168.88 681.46,-95.6 667.33,-71.13 651.6,-70.61 		"/>
		<polygon id="_446190632_1_" fill="#37B8BD" points="756.61,-112 681.46,-95.6 667.33,-71.13 674.75,-57.25 		"/>
		<polygon id="_446189792_1_" fill="#37B8BD" points="529.39,12.74 557.72,118.72 619.09,12.44 		"/>
		<polygon id="_446189624_1_" fill="#37B8BD" points="663.67,90.27 557.72,118.72 619.09,12.44 		"/>
		<polygon id="_446191640_1_" fill="#37B8BD" points="87.02,-112 162.17,-95.6 176.29,-71.13 168.87,-57.25 		"/>
		<polygon id="_448048104_1_" fill="#37B8BD" points="185.54,-168.88 162.17,-95.6 176.29,-71.13 192.03,-70.61 		"/>
		<polygon id="_448054032_1_" fill="#37B8BD" points="179.96,90.27 285.9,118.72 224.54,12.44 		"/>
		<polygon id="_375838080_1_" fill="#37B8BD" points="314.24,12.75 285.9,118.72 224.54,12.44 		"/>
		<polygon id="_448054872_1_" fill="#37B8BD" points="-149.25,411.01 -97.48,354.13 -69.22,354.13 -60.91,367.5 		"/>
		<polygon id="_448054704_1_" fill="#37B8BD" points="-149.25,297.25 -97.48,354.13 -69.22,354.13 -60.91,340.76 		"/>
		<polygon id="_374225544_1_" fill="#37B8BD" points="185.54,877.13 162.17,803.85 176.29,779.38 192.03,778.87 		"/>
		<polygon id="_374225712_1_" fill="#37B8BD" points="87.02,820.25 162.17,803.85 176.3,779.38 168.87,765.5 		"/>
		<polygon id="_374226552_1_" fill="#37B8BD" points="314.24,695.5 285.9,589.53 224.54,695.81 		"/>
		<polygon id="_379020712_1_" fill="#37B8BD" points="179.96,617.98 285.91,589.53 224.54,695.81 		"/>
		<polygon id="_379019872_1_" fill="#37B8BD" points="756.62,820.25 681.47,803.85 667.34,779.38 674.76,765.5 		"/>
		<polygon id="_379019704_1_" fill="#37B8BD" points="658.09,877.13 681.47,803.85 667.34,779.38 651.6,778.86 		"/>
		<polygon id="_379003696_1_" fill="#37B8BD" points="663.67,617.98 557.72,589.53 619.09,695.81 		"/>
		<polygon id="_379003744_1_" fill="#37B8BD" points="529.4,695.5 557.72,589.53 619.09,695.81 		"/>
		<polygon id="_379019152_1_" fill="#37B8BD" points="992.88,297.24 941.11,354.13 912.86,354.13 904.54,340.75 		"/>
		<polygon id="_379001632_1_" fill="#37B8BD" points="992.88,411.01 941.11,354.13 912.86,354.13 904.54,367.49 		"/>
	</g>
	<g clip-path="url(#SVGID_2_)">
		<polygon fill="#E6007E" points="379.52,121.66 392.72,76.38 415.63,122.89 		"/>
		<polygon fill="#E6007E" points="465.81,121.66 452.61,76.38 429.7,122.89 		"/>
		<polygon fill="#E6007E" points="422.67,133.68 415.63,122.89 422.67,118.51 		"/>
		<polygon fill="#E6007E" points="422.67,133.68 429.7,122.89 422.67,118.51 		"/>
		<g>
			<polygon fill="#E6007E" points="422.67,-2.42 392.72,76.38 422.67,59.08 			"/>
			<polygon fill="#E6007E" points="422.67,-2.42 452.61,76.38 422.67,59.08 			"/>
		</g>
		<polygon id="_436337512_1_" fill="#E6007E" points="186.23,283.08 153.61,249.01 205.34,252.42 		"/>
		<polygon id="_436337440_1_" fill="#E6007E" points="229.37,208.36 183.55,197.14 212.38,240.23 		"/>
		<polygon id="_377432384_1_" fill="#E6007E" points="218.21,251.73 205.34,252.42 205.07,244.14 		"/>
		<polygon id="_375375672_2_" fill="#E6007E" points="218.21,251.73 212.38,240.23 205.07,244.14 		"/>
		<polygon id="_376011184_1_" fill="#E6007E" points="100.34,183.68 153.61,249.01 153.6,214.43 		"/>
		<polygon id="_376011208_1_" fill="#E6007E" points="100.34,183.68 183.55,197.14 153.6,214.43 		"/>
		<polygon id="_379072192_1_" fill="#E6007E" points="229.37,531.19 183.56,542.4 212.38,499.31 		"/>
		<polygon id="_379072216_1_" fill="#E6007E" points="186.23,456.46 153.61,490.54 205.34,487.12 		"/>
		<polygon id="_438677864_1_" fill="#E6007E" points="218.21,487.82 212.38,499.31 205.07,495.4 		"/>
		<polygon id="_438677888_4_" fill="#E6007E" points="218.21,487.82 205.34,487.12 205.07,495.4 		"/>
		<polygon id="_379017784_1_" fill="#E6007E" points="100.34,555.87 183.56,542.4 153.6,525.12 		"/>
		<polygon id="_379017616_1_" fill="#E6007E" points="100.34,555.87 153.61,490.54 153.6,525.12 		"/>
		<polygon id="_379021432_1_" fill="#E6007E" points="465.81,617.88 452.61,663.16 429.71,616.65 		"/>
		<polygon id="_379002088_1_" fill="#E6007E" points="379.53,617.88 392.72,663.16 415.63,616.65 		"/>
		<polygon id="_379005136_1_" fill="#E6007E" points="422.67,605.86 429.71,616.65 422.67,621.03 		"/>
		<polygon id="_379005304_2_" fill="#E6007E" points="422.67,605.86 415.63,616.65 422.67,621.03 		"/>
		<polygon id="_376300664_1_" fill="#E6007E" points="422.67,741.96 452.61,663.16 422.67,680.46 		"/>
		<polygon id="_376301792_1_" fill="#E6007E" points="422.67,741.96 392.72,663.16 422.67,680.46 		"/>
		<polygon id="_376296776_1_" fill="#E6007E" points="659.1,456.46 691.73,490.53 640,487.12 		"/>
		<polygon id="_376297016_1_" fill="#E6007E" points="615.96,531.19 661.78,542.4 632.96,499.31 		"/>
		<polygon id="_376294400_1_" fill="#E6007E" points="627.13,487.81 640,487.12 640.27,495.4 		"/>
		<polygon id="_376294568_2_" fill="#E6007E" points="627.13,487.81 632.96,499.31 640.27,495.4 		"/>
		<polygon id="_316591864_1_" fill="#E6007E" points="744.99,555.86 691.73,490.53 691.73,525.12 		"/>
		<polygon id="_374218584_1_" fill="#E6007E" points="744.99,555.86 661.78,542.4 691.73,525.12 		"/>
		<polygon id="_374219592_1_" fill="#E6007E" points="615.96,208.35 661.78,197.14 632.96,240.23 		"/>
		<polygon id="_374219760_1_" fill="#E6007E" points="659.1,283.08 691.72,249 639.99,252.42 		"/>
		<polygon id="_374221272_1_" fill="#E6007E" points="627.13,251.72 632.96,240.23 640.26,244.14 		"/>
		<polygon id="_374221440_2_" fill="#E6007E" points="627.13,251.72 639.99,252.42 640.26,244.14 		"/>
		<polygon id="_374224848_1_" fill="#E6007E" points="744.99,183.67 661.78,197.14 691.73,214.42 		"/>
		<polygon id="_374225016_1_" fill="#E6007E" points="744.99,183.67 691.72,249 691.73,214.42 		"/>
		<polygon id="_446190128_1_" fill="#E6007E" points="544.33,159.03 543.64,146.17 551.92,145.9 		"/>
		<polygon id="_446189960_2_" fill="#E6007E" points="544.33,159.03 555.83,153.21 551.92,145.9 		"/>
		<polygon id="_446189120_1_" fill="#E6007E" points="612.38,41.17 547.05,94.44 581.63,94.43 		"/>
		<polygon id="_448048608_1_" fill="#E6007E" points="612.38,41.17 598.92,124.38 581.63,94.43 		"/>
		<polygon id="_375378696_2_" fill="#E6007E" points="301,159.03 289.51,153.21 293.41,145.9 		"/>
		<polygon id="_373704912_2_" fill="#E6007E" points="301,159.04 301.7,146.17 293.41,145.9 		"/>
		<polygon id="_448055376_1_" fill="#E6007E" points="232.95,41.17 246.41,124.38 263.7,94.43 		"/>
		<polygon id="_448055208_1_" fill="#E6007E" points="232.95,41.17 298.28,94.44 263.7,94.43 		"/>
		<polygon id="_448054200_1_" fill="#E6007E" points="179.33,369.77 168.54,376.81 164.16,369.77 		"/>
		<polygon id="_448049784_1_" fill="#E6007E" points="179.33,369.77 168.54,362.73 164.16,369.77 		"/>
		<polygon id="_448056048_1_" fill="#E6007E" points="43.23,369.77 122.03,399.72 104.73,369.77 		"/>
		<polygon id="_448056216_1_" fill="#E6007E" points="43.23,369.77 122.03,339.83 104.73,369.77 		"/>
		<polygon id="_374226216_1_" fill="#E6007E" points="301,580.5 301.7,593.38 293.41,593.64 		"/>
		<polygon id="_374226384_2_" fill="#E6007E" points="301,580.5 289.51,586.33 293.41,593.64 		"/>
		<polygon id="_379020208_1_" fill="#E6007E" points="232.95,698.37 298.28,645.1 263.7,645.11 		"/>
		<polygon id="_379020040_1_" fill="#E6007E" points="232.95,698.37 246.42,615.16 263.7,645.11 		"/>
		<polygon id="_379004944_1_" fill="#E6007E" points="544.33,580.5 555.83,586.33 551.92,593.64 		"/>
		<polygon id="_379005760_2_" fill="#E6007E" points="544.33,580.5 543.64,593.37 551.92,593.64 		"/>
		<polygon id="_379021072_1_" fill="#E6007E" points="612.38,698.37 598.92,615.16 581.64,645.11 		"/>
		<polygon id="_379020904_1_" fill="#E6007E" points="612.38,698.37 547.05,645.1 581.64,645.11 		"/>
		<polygon id="_379016896_1_" fill="#E6007E" points="666.01,369.77 676.8,362.73 681.17,369.77 		"/>
		<polygon id="_379002472_1_" fill="#E6007E" points="666.01,369.77 676.8,376.81 681.17,369.77 		"/>
		<polygon id="_316586128_1_" fill="#E6007E" points="802.1,369.77 723.3,339.82 740.6,369.77 		"/>
		<polygon id="_380188392_1_" fill="#E6007E" points="802.1,369.77 723.3,399.72 740.6,369.77 		"/>
	</g>
	<g clip-path="url(#SVGID_2_)">
		<polygon fill="#E6007E" points="426.79,-660.11 447,-691.13 426.79,-703.7 		"/>
		<polygon id="_375375672_1_" fill="#E6007E" points="-160.68,-320.94 -177.42,-353.96 -198.42,-342.74 		"/>
		<polygon id="_438677888_3_" fill="#E6007E" points="-160.67,357.4 -197.64,355.39 -198.42,379.19 		"/>
		<polygon id="_379005304_1_" fill="#E6007E" points="426.79,696.55 406.57,727.57 426.79,740.15 		"/>
		<polygon id="_376294568_1_" fill="#E6007E" points="1014.25,357.38 1030.99,390.41 1052,379.19 		"/>
		<polygon id="_374221440_1_" fill="#E6007E" points="1014.24,-320.95 1051.21,-318.95 1051.99,-342.75 		"/>
		<polygon id="_446189960_1_" fill="#E6007E" points="776.36,-587.27 809.38,-604.01 798.15,-625.02 		"/>
		<g>
			<polygon id="_375378696_1_" fill="#E6007E" points="77.21,-587.27 44.18,-604.01 55.41,-625.02 			"/>
			<polygon id="_373704912_1_" fill="#E6007E" points="77.21,-587.26 79.21,-624.24 55.41,-625.01 			"/>
		</g>
		<polygon id="_374226384_1_" fill="#E6007E" points="77.21,623.7 44.19,640.46 55.42,661.46 		"/>
		<polygon id="_379005760_1_" fill="#E6007E" points="776.36,623.7 774.36,660.67 798.16,661.46 		"/>
	</g>
	<g clip-path="url(#SVGID_2_)">
		<polygon fill="#37B8BD" points="339.86,396.58 268.68,288.14 364.93,310.56 		"/>
		<polygon fill="#37B8BD" points="503.77,396.58 574.95,288.14 478.69,310.56 		"/>
		<polygon fill="#37B8BD" points="364.93,310.56 421.82,362.33 421.82,390.59 408.44,398.9 		"/>
		<polygon fill="#37B8BD" points="478.69,310.56 421.82,362.33 421.82,390.59 435.18,398.9 		"/>
		<polygon fill="#37B8BD" points="344.29,532.19 421.82,609.8 421.82,487.08 		"/>
		<polygon fill="#37B8BD" points="499.34,532.19 421.82,609.8 421.82,487.08 		"/>
		<polygon fill="#37B8BD" points="344.29,532.19 360.98,670.52 315.09,615.33 		"/>
		<polygon fill="#37B8BD" points="499.34,532.19 482.65,670.52 528.54,615.33 		"/>
		<polygon id="_377432192_2_" fill="#37B8BD" points="-27.31,703.19 -156.81,710.62 -89.27,638.47 		"/>
		<polygon id="_377432216_2_" fill="#37B8BD" points="54.64,561.25 -3.67,445.39 -32.39,539.95 		"/>
		<polygon id="_377432288_2_" fill="#37B8BD" points="-89.27,638.47 -15.99,615.1 8.48,629.23 8.99,644.96 		"/>
		<polygon id="_377432312_2_" fill="#37B8BD" points="-32.39,539.95 -15.99,615.1 8.48,629.23 22.36,621.81 		"/>
		<polygon id="_375375696_2_" fill="#37B8BD" points="92.35,767.17 198.33,738.84 92.05,677.48 		"/>
		<polygon id="_375375720_2_" fill="#37B8BD" points="169.88,632.9 198.33,738.84 92.05,677.48 		"/>
		<polygon id="_375375816_2_" fill="#37B8BD" points="169.88,632.9 281.33,716.51 256.48,649.17 		"/>
		<polygon id="_379072240_2_" fill="#37B8BD" points="54.65,1174.48 -3.67,1290.34 -32.38,1195.78 		"/>
		<polygon id="_379072264_2_" fill="#37B8BD" points="-27.3,1032.54 -156.8,1025.11 -89.27,1097.26 		"/>
		<polygon id="_379072336_2_" fill="#37B8BD" points="-32.38,1195.78 -15.98,1120.63 8.48,1106.5 22.37,1113.93 		"/>
		<polygon id="_379072360_2_" fill="#37B8BD" points="-89.27,1097.26 -15.98,1120.63 8.48,1106.5 9,1090.77 		"/>
		<polygon id="_438677912_2_" fill="#37B8BD" points="169.88,1102.84 198.33,996.9 92.05,1058.26 		"/>
		<polygon id="_438677936_2_" fill="#37B8BD" points="92.36,968.56 198.33,996.9 92.05,1058.26 		"/>
		<polygon id="_438678008_2_" fill="#37B8BD" points="169.88,1102.84 281.33,1019.23 256.48,1086.56 		"/>
		<polygon id="_379001920_2_" fill="#37B8BD" points="503.77,1339.15 574.96,1447.59 478.7,1425.17 		"/>
		<polygon id="_379001752_2_" fill="#37B8BD" points="339.87,1339.15 268.69,1447.59 364.94,1425.17 		"/>
		<polygon id="_379003912_2_" fill="#37B8BD" points="478.7,1425.17 421.82,1373.39 421.82,1345.14 435.19,1336.83 		"/>
		<polygon id="_379004992_2_" fill="#37B8BD" points="364.94,1425.17 421.82,1373.39 421.82,1345.14 408.45,1336.83 		"/>
		<polygon id="_376302392_2_" fill="#37B8BD" points="499.34,1203.53 421.82,1125.92 421.82,1248.64 		"/>
		<polygon id="_376304864_2_" fill="#37B8BD" points="344.29,1203.53 421.82,1125.92 421.82,1248.64 		"/>
		<polygon id="_376304384_2_" fill="#37B8BD" points="499.34,1203.53 482.66,1065.21 528.55,1120.4 		"/>
		<polygon id="_376304432_2_" fill="#37B8BD" points="344.29,1203.53 360.98,1065.21 315.09,1120.4 		"/>
		<polygon id="_376297280_2_" fill="#37B8BD" points="870.94,1032.54 1000.44,1025.11 932.9,1097.26 		"/>
		<polygon id="_376297448_2_" fill="#37B8BD" points="788.99,1174.48 847.3,1290.34 876.02,1195.78 		"/>
		<polygon id="_376298120_2_" fill="#37B8BD" points="932.9,1097.26 859.62,1120.63 835.15,1106.5 834.64,1090.77 		"/>
		<polygon id="_376298360_2_" fill="#37B8BD" points="876.02,1195.78 859.62,1120.63 835.15,1106.5 821.27,1113.93 		"/>
		<polygon id="_376293872_2_" fill="#37B8BD" points="751.28,968.56 645.31,996.89 751.58,1058.25 		"/>
		<polygon id="_376293200_2_" fill="#37B8BD" points="673.76,1102.83 645.31,996.89 751.58,1058.25 		"/>
		<polygon id="_376300088_2_" fill="#37B8BD" points="673.76,1102.83 562.3,1019.22 587.16,1086.55 		"/>
		<polygon id="_374219928_2_" fill="#37B8BD" points="788.98,561.25 847.3,445.38 876.02,539.95 		"/>
		<polygon id="_374220096_2_" fill="#37B8BD" points="870.94,703.19 1000.44,710.62 932.89,638.47 		"/>
		<polygon id="_374220600_2_" fill="#37B8BD" points="876.02,539.95 859.62,615.1 835.15,629.22 821.27,621.8 		"/>
		<polygon id="_374220768_2_" fill="#37B8BD" points="932.89,638.47 859.61,615.1 835.15,629.22 834.63,644.96 		"/>
		<polygon id="_374221608_2_" fill="#37B8BD" points="673.75,632.89 645.3,738.83 751.58,677.47 		"/>
		<polygon id="_374221776_2_" fill="#37B8BD" points="751.28,767.16 645.3,738.83 751.58,677.47 		"/>
		<polygon id="_374222280_2_" fill="#37B8BD" points="673.75,632.89 562.3,716.5 587.15,649.17 		"/>
		<polygon id="_446190800_2_" fill="#37B8BD" points="658.09,344.86 681.46,418.14 667.33,442.61 651.6,443.12 		"/>
		<polygon id="_446190632_2_" fill="#37B8BD" points="756.61,401.74 681.46,418.14 667.33,442.61 674.75,456.49 		"/>
		<polygon id="_446189792_2_" fill="#37B8BD" points="529.39,526.48 557.72,632.46 619.09,526.18 		"/>
		<polygon id="_446189624_2_" fill="#37B8BD" points="663.67,604.01 557.72,632.46 619.09,526.18 		"/>
		<polygon id="_446191640_2_" fill="#37B8BD" points="87.02,401.74 162.17,418.14 176.29,442.61 168.87,456.49 		"/>
		<polygon id="_448048104_2_" fill="#37B8BD" points="185.54,344.86 162.17,418.14 176.29,442.61 192.03,443.12 		"/>
		<polygon id="_448054032_2_" fill="#37B8BD" points="179.96,604.01 285.9,632.46 224.54,526.18 		"/>
		<polygon id="_375838080_2_" fill="#37B8BD" points="314.24,526.49 285.9,632.46 224.54,526.18 		"/>
		<polygon id="_448054872_2_" fill="#37B8BD" points="-149.25,924.75 -97.48,867.86 -69.22,867.86 -60.91,881.24 		"/>
		<polygon id="_448054704_2_" fill="#37B8BD" points="-149.25,810.99 -97.48,867.86 -69.22,867.86 -60.91,854.5 		"/>
		<polygon id="_374225544_2_" fill="#37B8BD" points="185.54,1390.87 162.17,1317.59 176.29,1293.12 192.03,1292.61 		"/>
		<polygon id="_374225712_2_" fill="#37B8BD" points="87.02,1333.98 162.17,1317.59 176.3,1293.12 168.87,1279.24 		"/>
		<polygon id="_374226552_2_" fill="#37B8BD" points="314.24,1209.24 285.9,1103.27 224.54,1209.55 		"/>
		<polygon id="_379020712_2_" fill="#37B8BD" points="179.96,1131.72 285.91,1103.27 224.54,1209.55 		"/>
		<polygon id="_379019872_2_" fill="#37B8BD" points="756.62,1333.98 681.47,1317.59 667.34,1293.12 674.76,1279.24 		"/>
		<polygon id="_379019704_2_" fill="#37B8BD" points="658.09,1390.87 681.47,1317.59 667.34,1293.12 651.6,1292.6 		"/>
		<polygon id="_379003696_2_" fill="#37B8BD" points="663.67,1131.72 557.72,1103.27 619.09,1209.55 		"/>
		<polygon id="_379003744_2_" fill="#37B8BD" points="529.4,1209.24 557.72,1103.27 619.09,1209.55 		"/>
		<polygon id="_379019152_2_" fill="#37B8BD" points="992.88,810.98 941.11,867.86 912.86,867.86 904.54,854.49 		"/>
		<polygon id="_379001632_2_" fill="#37B8BD" points="992.88,924.75 941.11,867.86 912.86,867.86 904.54,881.23 		"/>
	</g>
	<g clip-path="url(#SVGID_2_)">
		<polygon fill="#E6007E" points="379.52,635.4 392.72,590.12 415.63,636.62 		"/>
		<polygon fill="#E6007E" points="465.81,635.4 452.61,590.12 429.7,636.62 		"/>
		<polygon fill="#E6007E" points="422.67,647.42 415.63,636.62 422.67,632.25 		"/>
		<polygon fill="#E6007E" points="422.67,647.42 429.7,636.62 422.67,632.25 		"/>
		<g>
			<polygon fill="#E6007E" points="422.67,511.32 392.72,590.12 422.67,572.82 			"/>
			<polygon fill="#E6007E" points="422.67,511.32 452.61,590.12 422.67,572.82 			"/>
		</g>
		<polygon id="_436337512_2_" fill="#E6007E" points="186.23,796.82 153.61,762.75 205.34,766.16 		"/>
		<polygon id="_436337440_2_" fill="#E6007E" points="229.37,722.1 183.55,710.88 212.38,753.97 		"/>
		<polygon id="_377432384_2_" fill="#E6007E" points="218.21,765.46 205.34,766.16 205.07,757.88 		"/>
		<polygon id="_375375672_4_" fill="#E6007E" points="218.21,765.46 212.38,753.97 205.07,757.88 		"/>
		<polygon id="_376011184_2_" fill="#E6007E" points="100.34,697.42 153.61,762.75 153.6,728.16 		"/>
		<polygon id="_376011208_2_" fill="#E6007E" points="100.34,697.42 183.55,710.88 153.6,728.16 		"/>
		<polygon id="_379072192_2_" fill="#E6007E" points="229.37,1044.93 183.56,1056.14 212.38,1013.05 		"/>
		<polygon id="_379072216_2_" fill="#E6007E" points="186.23,970.2 153.61,1004.28 205.34,1000.86 		"/>
		<polygon id="_438677864_2_" fill="#E6007E" points="218.21,1001.56 212.38,1013.05 205.07,1009.14 		"/>
		<polygon id="_438677888_6_" fill="#E6007E" points="218.21,1001.56 205.34,1000.86 205.07,1009.14 		"/>
		<polygon id="_379017784_2_" fill="#E6007E" points="100.34,1069.61 183.56,1056.14 153.6,1038.85 		"/>
		<polygon id="_379017616_2_" fill="#E6007E" points="100.34,1069.61 153.61,1004.28 153.6,1038.85 		"/>
		<polygon id="_379021432_2_" fill="#E6007E" points="465.81,1131.62 452.61,1176.9 429.71,1130.39 		"/>
		<polygon id="_379002088_2_" fill="#E6007E" points="379.53,1131.62 392.72,1176.9 415.63,1130.39 		"/>
		<polygon id="_379005136_2_" fill="#E6007E" points="422.67,1119.6 429.71,1130.39 422.67,1134.77 		"/>
		<polygon id="_379005304_4_" fill="#E6007E" points="422.67,1119.6 415.63,1130.39 422.67,1134.77 		"/>
		<polygon id="_376300664_2_" fill="#E6007E" points="422.67,1255.7 452.61,1176.9 422.67,1194.2 		"/>
		<polygon id="_376301792_2_" fill="#E6007E" points="422.67,1255.7 392.72,1176.9 422.67,1194.2 		"/>
		<polygon id="_376296776_2_" fill="#E6007E" points="659.1,970.2 691.73,1004.27 640,1000.85 		"/>
		<polygon id="_376297016_2_" fill="#E6007E" points="615.96,1044.93 661.78,1056.14 632.96,1013.05 		"/>
		<polygon id="_376294400_2_" fill="#E6007E" points="627.13,1001.55 640,1000.85 640.27,1009.14 		"/>
		<polygon id="_376294568_4_" fill="#E6007E" points="627.13,1001.55 632.96,1013.05 640.27,1009.14 		"/>
		<polygon id="_316591864_2_" fill="#E6007E" points="744.99,1069.6 691.73,1004.27 691.73,1038.85 		"/>
		<polygon id="_374218584_2_" fill="#E6007E" points="744.99,1069.6 661.78,1056.14 691.73,1038.85 		"/>
		<polygon id="_374219592_2_" fill="#E6007E" points="615.96,722.09 661.78,710.88 632.96,753.97 		"/>
		<polygon id="_374219760_2_" fill="#E6007E" points="659.1,796.82 691.72,762.74 639.99,766.16 		"/>
		<polygon id="_374221272_2_" fill="#E6007E" points="627.13,765.46 632.96,753.97 640.26,757.88 		"/>
		<polygon id="_374221440_4_" fill="#E6007E" points="627.13,765.46 639.99,766.16 640.26,757.88 		"/>
		<polygon id="_374224848_2_" fill="#E6007E" points="744.99,697.41 661.78,710.88 691.73,728.16 		"/>
		<polygon id="_374225016_2_" fill="#E6007E" points="744.99,697.41 691.72,762.74 691.73,728.16 		"/>
		<polygon id="_446190128_2_" fill="#E6007E" points="544.33,672.77 543.64,659.91 551.92,659.64 		"/>
		<polygon id="_446189960_4_" fill="#E6007E" points="544.33,672.77 555.83,666.94 551.92,659.64 		"/>
		<polygon id="_446189120_2_" fill="#E6007E" points="612.38,554.91 547.05,608.18 581.63,608.17 		"/>
		<polygon id="_448048608_2_" fill="#E6007E" points="612.38,554.91 598.92,638.12 581.63,608.17 		"/>
		<polygon id="_375378696_4_" fill="#E6007E" points="301,672.77 289.51,666.94 293.41,659.64 		"/>
		<polygon id="_373704912_4_" fill="#E6007E" points="301,672.77 301.7,659.91 293.41,659.64 		"/>
		<polygon id="_448055376_2_" fill="#E6007E" points="232.95,554.91 246.41,638.12 263.7,608.17 		"/>
		<polygon id="_448055208_2_" fill="#E6007E" points="232.95,554.91 298.28,608.18 263.7,608.17 		"/>
		<polygon id="_448054200_2_" fill="#E6007E" points="179.33,883.51 168.54,890.55 164.16,883.51 		"/>
		<polygon id="_448049784_2_" fill="#E6007E" points="179.33,883.51 168.54,876.47 164.16,883.51 		"/>
		<polygon id="_448056048_2_" fill="#E6007E" points="43.23,883.51 122.03,913.45 104.73,883.51 		"/>
		<polygon id="_448056216_2_" fill="#E6007E" points="43.23,883.51 122.03,853.56 104.73,883.51 		"/>
		<polygon id="_374226216_2_" fill="#E6007E" points="301,1094.24 301.7,1107.11 293.41,1107.38 		"/>
		<polygon id="_374226384_4_" fill="#E6007E" points="301,1094.24 289.51,1100.07 293.41,1107.38 		"/>
		<polygon id="_379020208_2_" fill="#E6007E" points="232.95,1212.11 298.28,1158.84 263.7,1158.85 		"/>
		<polygon id="_379020040_2_" fill="#E6007E" points="232.95,1212.11 246.42,1128.9 263.7,1158.85 		"/>
		<polygon id="_379004944_2_" fill="#E6007E" points="544.33,1094.24 555.83,1100.07 551.92,1107.38 		"/>
		<polygon id="_379005760_4_" fill="#E6007E" points="544.33,1094.24 543.64,1107.11 551.92,1107.38 		"/>
		<polygon id="_379021072_2_" fill="#E6007E" points="612.38,1212.11 598.92,1128.9 581.64,1158.85 		"/>
		<polygon id="_379020904_2_" fill="#E6007E" points="612.38,1212.11 547.05,1158.84 581.64,1158.85 		"/>
		<polygon id="_379016896_2_" fill="#E6007E" points="666.01,883.51 676.8,876.47 681.17,883.51 		"/>
		<polygon id="_379002472_2_" fill="#E6007E" points="666.01,883.51 676.8,890.55 681.17,883.51 		"/>
		<polygon id="_316586128_2_" fill="#E6007E" points="802.1,883.51 723.3,853.56 740.6,883.51 		"/>
		<polygon id="_380188392_2_" fill="#E6007E" points="802.1,883.51 723.3,913.45 740.6,883.51 		"/>
	</g>
	<g clip-path="url(#SVGID_2_)">
		<polygon fill="#E6007E" points="426.79,-146.38 447,-177.39 426.79,-189.96 		"/>
		<polygon id="_375375672_3_" fill="#E6007E" points="-160.68,192.79 -177.42,159.78 -198.42,171 		"/>
		<polygon id="_438677888_5_" fill="#E6007E" points="-160.67,871.13 -197.64,869.13 -198.42,892.92 		"/>
		<polygon id="_379005304_3_" fill="#E6007E" points="426.79,1210.29 406.57,1241.31 426.79,1253.89 		"/>
		<polygon id="_376294568_3_" fill="#E6007E" points="1014.25,871.12 1030.99,904.15 1052,892.92 		"/>
		<polygon id="_374221440_3_" fill="#E6007E" points="1014.24,192.79 1051.21,194.79 1051.99,170.99 		"/>
		<polygon id="_446189960_3_" fill="#E6007E" points="776.36,-73.53 809.38,-90.28 798.15,-111.28 		"/>
		<g>
			<polygon id="_375378696_3_" fill="#E6007E" points="77.21,-73.53 44.18,-90.28 55.41,-111.28 			"/>
			<polygon id="_373704912_3_" fill="#E6007E" points="77.21,-73.52 79.21,-110.5 55.41,-111.27 			"/>
		</g>
		<polygon id="_374226384_3_" fill="#E6007E" points="77.21,1137.44 44.19,1154.2 55.42,1175.2 		"/>
		<polygon id="_379005760_3_" fill="#E6007E" points="776.36,1137.44 774.36,1174.41 798.16,1175.2 		"/>
	</g>
</g>
<rect x="28.54" y="189.13" fill="#C6C6C6" width="780.7" height="880.05"/>
<rect x="146.74" y="141.42" fill="#FFFFFF" width="662.5" height="46.35"/>
<g>
	<rect x="127.17" y="107.78" fill="none" width="451.11" height="22.22"/>
	<text transform="matrix(0.9715 0 0 1 194.112 117.3324)"><tspan x="0" y="0" fill="#38B7BC" font-family="'GothamMedium'" font-size="13.081px">MET OFFICE </tspan><tspan x="87.29" y="0" fill="#E366A1" font-family="'GothamMedium'" font-size="13.081px"> </tspan><tspan x="91.21" y="0" fill="#38B7BC" font-family="'GothamMedium'" font-size="13.081px">       EXETER        UNITED KINGDOM</tspan></text>
	<polygon id="_438677888_1_" fill="#E40D7E" points="302.69,108.05 284.76,107.05 284.39,118.92 	"/>
	<polygon id="_438677888_2_" fill="#E40D7E" points="388.58,118.64 375.66,105.83 370.09,111.66 	"/>
</g>
<g>
	<g>
		
			<line fill="none" stroke="#FFFFFF" stroke-linecap="round" stroke-miterlimit="10" x1="171.57" y1="57.21" x2="171.57" y2="57.21"/>
		
			<line fill="none" stroke="#FFFFFF" stroke-linecap="round" stroke-miterlimit="10" stroke-dasharray="0,1.999" x1="173.57" y1="57.21" x2="808.25" y2="57.21"/>
		
			<line fill="none" stroke="#FFFFFF" stroke-linecap="round" stroke-miterlimit="10" x1="809.24" y1="57.21" x2="809.24" y2="57.21"/>
	</g>
</g>
<rect x="29.01" y="186.81" fill="#EDEDED" width="779.8" height="60.57"/>
<rect x="29.01" y="295.31" fill="#EDEDED" width="779.8" height="131.81"/>
<rect x="29.01" y="631.51" fill="#EDEDED" width="779.8" height="109.69"/>
<rect x="29.01" y="743.17" fill="#EDEDED" width="779.8" height="110.81"/>
<rect x="29.01" y="960.15" fill="#EDEDED" width="779.8" height="103.95"/>
<rect x="29.01" y="249.03" fill="#EDEDED" width="779.8" height="44.3"/>
<rect x="29.01" y="566.6" fill="#EDEDED" width="779.8" height="33.93"/>
<rect x="29.01" y="458.15" fill="#EDEDED" width="779.8" height="107"/>
<rect x="29.01" y="884.68" fill="#EDEDED" width="779.8" height="74.05"/>
<rect x="29.01" y="186.81" fill="#9D9D9C" width="120.6" height="60.57"/>
<rect x="29.01" y="295.31" fill="#9D9D9C" width="120.6" height="131.81"/>
<rect x="29.01" y="631.51" fill="#9D9D9C" width="120.6" height="109.69"/>
<rect x="29.01" y="743.17" fill="#9D9D9C" width="120.6" height="110.81"/>
<rect x="29.01" y="960.15" fill="#9D9D9C" width="120.6" height="103.95"/>
<rect x="29.01" y="249.03" fill="#9D9D9C" width="120.6" height="44.3"/>
<rect x="29.01" y="566.6" fill="#9D9D9C" width="120.6" height="33.93"/>
<rect x="29.01" y="458.15" fill="#9D9D9C" width="120.6" height="107"/>
<rect x="29.01" y="884.68" fill="#9D9D9C" width="120.6" height="74.05"/>
<g opacity="0.1">
	<rect x="146.27" y="182.65" fill="#E40D7E" width="160.34" height="990.96"/>
	<rect x="313.66" y="182.65" fill="#38B7BC" width="160.34" height="990.96"/>
	<rect x="481.87" y="182.65" fill="#E40D7E" width="160.34" height="990.96"/>
	<rect x="649.26" y="182.65" fill="#38B7BC" width="160.34" height="990.96"/>
</g>
<rect x="645.54" y="936.86" fill="#B2B2B2" width="163.27" height="162.18"/>
<rect x="645.54" y="884.54" fill="#B2B2B2" width="163.27" height="70.05"/>
<rect x="38.22" y="215.92" fill="none" width="105.35" height="17.86"/>
<text transform="matrix(0.9715 0 0 1 38.225 223.9508)" fill="#FFFFFF" font-family="'GothamLight'" font-size="11px">08:00 - 09:00</text>
<rect x="38.22" y="268.45" fill="none" width="105.35" height="17.86"/>
<text transform="matrix(0.9715 0 0 1 38.225 276.4785)" fill="#FFFFFF" font-family="'GothamLight'" font-size="11px">09:00 - 09:30</text>
<rect x="38.22" y="315.37" fill="none" width="105.35" height="17.86"/>
<text transform="matrix(0.9715 0 0 1 38.225 323.4016)" fill="#FFFFFF" font-family="'GothamLight'" font-size="11px">10:00 - 10:45</text>
<rect x="38.22" y="472.91" fill="none" width="105.35" height="17.86"/>
<text transform="matrix(0.9715 0 0 1 38.225 480.9352)" fill="#FFFFFF" font-family="'GothamLight'" font-size="11px">11:00 - 11:45</text>
<rect x="38.22" y="579.41" fill="none" width="105.35" height="17.86"/>
<text transform="matrix(0.9715 0 0 1 38.225 587.4392)" fill="#FFFFFF" font-family="'GothamLight'" font-size="11px">11:45 - 12:15</text>
<rect x="38.22" y="647.93" fill="none" width="105.35" height="17.86"/>
<text transform="matrix(0.9715 0 0 1 38.225 655.9607)" fill="#FFFFFF" font-family="'GothamLight'" font-size="11px">13:00 - 14:00</text>
<rect x="38.22" y="760.21" fill="none" width="105.35" height="17.86"/>
<text transform="matrix(0.9715 0 0 1 38.225 768.2388)" fill="#FFFFFF" font-family="'GothamLight'" font-size="11px">14:00 - 15:00</text>
<rect x="38.22" y="898.63" fill="none" width="105.35" height="17.86"/>
<text transform="matrix(0.9715 0 0 1 38.225 906.6551)" fill="#FFFFFF" font-family="'GothamLight'" font-size="11px">15:20 - 16:00</text>
<rect x="29.01" y="1098.24" fill="#DADADA" width="780.25" height="73.8"/>
<rect x="38.22" y="972.92" fill="none" width="105.35" height="17.86"/>
<text transform="matrix(0.9715 0 0 1 38.225 980.954)" fill="#FFFFFF" font-family="'GothamLight'" font-size="11px">16:00 - 17:00</text>
<rect x="38.22" y="1119.04" fill="none" width="105.35" height="17.86"/>
<text transform="matrix(0.9715 0 0 1 38.225 1127.0665)" fill="#575756" font-family="'GothamLight'" font-size="11px">17:10 - 19:00</text>
<rect x="250.11" y="29.86" fill="none" width="724.01" height="82.76"/>
<text transform="matrix(1 0 0 1 412.6974 44.1864)" fill="#FFFFFF" font-family="'GothamLight'" font-size="19.6227px">VISUALISING THE CONNECTED WORLD</text>
<rect x="482.71" y="103.56" fill="none" width="452.88" height="22.22"/>
<text transform="matrix(1 0 0 1 605.1558 117.8804)" fill="#E366A1" font-family="'GothamBold'" font-size="19.6227px">1-4 NOVEMBER 2016</text>
<rect x="145.74" y="153.47" fill="none" width="158.58" height="23.11"/>
<text transform="matrix(1 0 0 1 180.4506 165.3319)" fill="#E366A1" font-family="'GothamBold'" font-size="16.2498px">TUE 1 NOV</text>
<rect x="315.02" y="153.47" fill="none" width="158.58" height="23.11"/>
<text transform="matrix(1 0 0 1 344.0424 165.3319)" fill="#E366A1" font-family="'GothamBold'" font-size="16.2498px">WED 2 NOV</text>
<rect x="484.06" y="153.47" fill="none" width="158.58" height="23.11"/>
<text transform="matrix(1 0 0 1 516.4218 165.3319)" fill="#E366A1" font-family="'GothamBold'" font-size="16.2498px">THU 3 NOV</text>
<rect x="29.01" y="428.9" fill="#A1D5D8" width="779.57" height="27.28"/>
<rect x="29.01" y="602.55" fill="#7F9DA0" width="779.57" height="27.35"/>
<rect x="29.01" y="855.44" fill="#A1D5D8" width="779.57" height="27.28"/>
<rect x="649.83" y="153.47" fill="none" width="158.58" height="23.11"/>
<text transform="matrix(1 0 0 1 685.2909 165.3319)" fill="#E366A1" font-family="'GothamBold'" font-size="16.2498px">FRI 4 NOV</text>
<rect x="27.42" y="67.49" fill="none" width="781.54" height="22.81"/>
<text transform="matrix(1 0 0 1 193.4393 79.1707)" fill="#FFFFFF" font-family="'GothamLight'" font-size="15.9969px">Showcasing best practice and new opportunities in the world of web graphics</text>
<rect x="38.22" y="438.35" fill="none" width="105.35" height="17.86"/>
<text transform="matrix(0.9715 0 0 1 38.225 446.3827)" fill="#575756" font-family="'GothamLight'" font-size="11px">10:45 - 11:00</text>
<rect x="38.22" y="865.94" fill="none" width="105.35" height="17.86"/>
<text transform="matrix(0.9715 0 0 1 38.225 873.969)" fill="#575756" font-family="'GothamLight'" font-size="11px">15:00 - 15:20</text>
<rect x="150.14" y="213.47" fill="none" width="154.42" height="52.74"/>
<text transform="matrix(0.9715 0 0 1 198.2611 220.769)"><tspan x="0" y="0" fill="#575756" font-family="'GothamLight'" font-size="10px">Registration  </tspan><tspan x="3.69" y="12" fill="#575756" font-family="'GothamLight'" font-size="10px">and coffee</tspan></text>
<rect x="150.14" y="316.14" fill="none" width="154.42" height="101.39"/>
<text transform="matrix(0.9715 0 0 1 199.5927 323.4438)" fill="#575756" font-family="'GothamBlack'" font-size="10px">Kim Majkut </text>
<text transform="matrix(0.9715 0 0 1 182.6742 335.4438)" fill="#575756" font-family="'GothamMedium-Italic'" font-size="10px">BAFTA nominated  </text>
<text transform="matrix(0.9715 0 0 1 177.3456 347.4438)" fill="#575756" font-family="'GothamMedium-Italic'" font-size="10px">Director, Great Guns</text>
<text transform="matrix(0.9715 0 0 1 166.7274 363.6045)" fill="#E40D7E" font-family="'GothamLight'" font-size="10px">Storytelling with VR / AR</text>
<text transform="matrix(1 0 0 1 158.6947 374.6045)" fill="#2A2A2A" font-family="'Gotham-Light'" font-size="7.5px">Talking about exploring VR/AR as an </text>
<text transform="matrix(1 0 0 1 163.3895 383.6045)" fill="#2A2A2A" font-family="'Gotham-Light'" font-size="7.5px">educational tool for Curiscope and </text>
<text transform="matrix(1 0 0 1 163.7084 392.6045)" fill="#2A2A2A" font-family="'Gotham-Light'" font-size="7.5px">showcasing Virtuali-Tee and Great  </text>
<text transform="matrix(1 0 0 1 179.7953 401.6045)" fill="#2A2A2A" font-family="'Gotham-Light'" font-size="7.5px">White 360 VR experience</text>
<rect x="150.14" y="757.96" fill="none" width="154.42" height="86.21"/>
<text transform="matrix(0.9715 0 0 1 199.9667 765.2569)" fill="#575756" font-family="'GothamBlack'" font-size="10px">Ed Parsons </text>
<text transform="matrix(0.9715 0 0 1 167.1937 777.2569)" fill="#575756" font-family="'GothamMedium-Italic'" font-size="10px">Geospatial Technologist, </text>
<text transform="matrix(0.9715 0 0 1 209.7396 789.2569)" fill="#575756" font-family="'GothamMedium-Italic'" font-size="10px">Google</text>
<text transform="matrix(0.9715 0 0 1 194.3612 805.4175)" fill="#E40D7E" font-family="'GothamLight'" font-size="10px">Mapping data</text>
<text transform="matrix(1 0 0 1 163.1195 816.4175)" fill="#2A2A2A" font-family="'Gotham-Light'" font-size="7.5px">Highlighting how Google Maps has </text>
<text transform="matrix(1 0 0 1 152.8934 825.4175)" fill="#2A2A2A" font-family="'Gotham-Light'" font-size="7.5px">changed the way we navigate, poked its </text>
<text transform="matrix(1 0 0 1 153.745 834.4175)" fill="#2A2A2A" font-family="'Gotham-Light'" font-size="7.5px">cameras into our lives – and come close </text>
<text transform="matrix(1 0 0 1 178.0331 843.4175)" fill="#2A2A2A" font-family="'Gotham-Light'" font-size="7.5px">to sparking border conflict</text>
<rect x="150.14" y="473.2" fill="none" width="154.42" height="89.1"/>
<text transform="matrix(0.9715 0 0 1 192.4423 480.4973)" fill="#575756" font-family="'GothamBlack'" font-size="10px">James Bednar </text>
<text transform="matrix(0.9715 0 0 1 200.6806 492.4973)" fill="#575756" font-family="'GothamMedium-Italic'" font-size="10px">Continuum</text>
<text transform="matrix(0.9715 0 0 1 192.9037 508.6579)" fill="#E40D7E" font-family="'GothamLight'" font-size="10px">Data + Python</text>
<text transform="matrix(1 0 0 1 169.4642 519.658)" fill="#2A2A2A" font-family="'Gotham-Light'" font-size="7.5px">Reproducible science, scientific </text>
<text transform="matrix(1 0 0 1 155.8861 528.658)" fill="#2A2A2A" font-family="'Gotham-Light'" font-size="7.5px">visualization, declarative programming </text>
<text transform="matrix(1 0 0 1 164.391 537.658)" fill="#2A2A2A" font-family="'Gotham-Light'" font-size="7.5px">and computational neuroscience... </text>
<text transform="matrix(1 0 0 1 176.6869 546.658)" fill="#2A2A2A" font-family="'Gotham-Light'" font-size="7.5px"> as well as all things Python</text>
<rect x="151.14" y="646.04" fill="none" width="154.42" height="92.05"/>
<text transform="matrix(0.9715 0 0 1 197.5952 653.3379)" fill="#E40D7E" font-family="'GothamMedium'" font-size="10px">WORKSHOP </text>
<text transform="matrix(0.9715 0 0 1 165.2456 665.3379)" fill="#E40D7E" font-family="'GothamLight'" font-size="10px">Mapping our surroundings</text>
<text transform="matrix(1 0 0 1 156.8296 678.3379)" fill="#2A2A2A" font-family="'Gotham-Light'" font-size="7.5px">Exploring how to use maps to connect  </text>
<text transform="matrix(1 0 0 1 164.0073 687.3379)" fill="#2A2A2A" font-family="'Gotham-Light'" font-size="7.5px">us to our surroundings, rather than  </text>
<text transform="matrix(1 0 0 1 161.4912 696.3379)" fill="#2A2A2A" font-family="'Gotham-Light'" font-size="7.5px">traditionally providing set paths and </text>
<text transform="matrix(1 0 0 1 192.7319 705.3379)" fill="#2A2A2A" font-family="'Gotham-Light'" font-size="7.5px">limiting exploration</text>
<text transform="matrix(0.9715 0 0 1 185.9233 719.3379)" fill="#575756" font-family="'GothamExtraLight-Italic'" font-size="10px">run by Taxi Studio  </text>
<text transform="matrix(0.9715 0 0 1 193.729 731.3379)" fill="#575756" font-family="'GothamExtraLight-Italic'" font-size="10px">and Met Office</text>
<rect x="151.14" y="1119.68" fill="none" width="154.42" height="14.46"/>
<text transform="matrix(0.9715 0 0 1 212.8916 1126.9812)" fill="#166D70" font-family="'GothamMedium'" font-size="10px">Drinks</text>
<rect x="317.82" y="1119.68" fill="none" width="154.42" height="14.46"/>
<text transform="matrix(0.9715 0 0 1 349.7568 1126.9812)" fill="#166D70" font-family="'GothamMedium'" font-size="10px">Conference dinner</text>
<rect x="151.14" y="900.62" fill="none" width="154.42" height="67.13"/>
<text transform="matrix(0.9715 0 0 1 195.0747 907.9237)" fill="#E40D7E" font-family="'GothamMedium'" font-size="10px">HACKATHON </text>
<text transform="matrix(0.9715 0 0 1 198.8535 919.9237)" fill="#E40D7E" font-family="'GothamLight'" font-size="10px">Introduction</text>
<text transform="matrix(1 0 0 1 161.7124 932.9237)" fill="#2A2A2A" font-family="'Gotham-Light'" font-size="7.5px">Met Office Informatics Lab demoing  </text>
<text transform="matrix(1 0 0 1 158.3901 941.9237)" fill="#2A2A2A" font-family="'Gotham-Light'" font-size="7.5px">and discussing multiple hack projects, </text>
<text transform="matrix(1 0 0 1 181.6357 950.9237)" fill="#2A2A2A" font-family="'Gotham-Light'" font-size="7.5px">including a Techno Rhino</text>
<rect x="151.14" y="974.41" fill="none" width="154.42" height="82.08"/>
<text transform="matrix(0.9715 0 0 1 195.0747 981.7086)" fill="#E40D7E" font-family="'GothamMedium'" font-size="10px">HACKATHON </text>
<text transform="matrix(0.9715 0 0 1 192.2719 993.7086)" fill="#E40D7E" font-family="'GothamLight'" font-size="10px">L.E.D. mapping</text>
<text transform="matrix(1 0 0 1 156.0424 1006.7086)" fill="#2A2A2A" font-family="'Gotham-Light'" font-size="7.5px">Developing and mapping LED arrays in </text>
<text transform="matrix(1 0 0 1 157.3134 1015.7086)" fill="#2A2A2A" font-family="'Gotham-Light'" font-size="7.5px"> a real-time challenge to showcase the </text>
<text transform="matrix(1 0 0 1 185.4834 1024.7086)" fill="#2A2A2A" font-family="'Gotham-Light'" font-size="7.5px">best data visualisations</text>
<text transform="matrix(0.9715 0 0 1 187.6089 1038.7086)" fill="#575756" font-family="'GothamExtraLight-Italic'" font-size="10px">run by Met Office  </text>
<text transform="matrix(0.9715 0 0 1 192.1504 1050.7086)" fill="#575756" font-family="'GothamExtraLight-Italic'" font-size="10px">Informatics Lab</text>
<rect x="315.42" y="473.04" fill="none" width="154.42" height="84.83"/>
<text transform="matrix(0.9715 0 0 1 360.2549 480.3384)"><tspan x="0" y="0" fill="#575756" font-family="'GothamBlack'" font-size="10px">Zoe Hartland  </tspan><tspan x="-42.62" y="12" fill="#575756" font-family="'GothamMedium-Italic'" font-size="10px">Office of National Stats (ONS)</tspan><tspan x="-39.76" y="26" fill="#38B7BC" font-family="'GothamLight'" font-size="10px">Making stats more interesting</tspan><tspan x="4.6" y="50" fill="#575756" font-family="'GothamBlack'" font-size="10px">Matt Strom  </tspan><tspan x="9.57" y="62" fill="#575756" font-family="'GothamMedium-Italic'" font-size="10px">Planetary</tspan><tspan x="-29.08" y="76" fill="#38B7BC" font-family="'GothamLight'" font-size="10px">Storytelling with VR / AR</tspan></text>
<rect x="315.42" y="646.46" fill="none" width="154.42" height="84.83"/>
<text transform="matrix(0.9715 0 0 1 356.2036 653.7607)"><tspan x="0" y="0" fill="#575756" font-family="'GothamBlack'" font-size="10px">Mariana Morris  </tspan><tspan x="-37.88" y="12" fill="#575756" font-family="'GothamMedium-Italic'" font-size="10px">Oxford Computer Consultants</tspan><tspan x="-37.7" y="26" fill="#38B7BC" font-family="'GothamLight'" font-size="10px">UX techniques for clearer data</tspan><tspan x="-0.73" y="50" fill="#575756" font-family="'GothamBlack'" font-size="10px">Léonie Watson  </tspan><tspan x="-9.93" y="62" fill="#575756" font-family="'GothamMedium-Italic'" font-size="10px">The Paciello Group</tspan><tspan x="-4.57" y="76" fill="#38B7BC" font-family="'GothamLight'" font-size="10px">SVG accessibility</tspan></text>
<rect x="315.42" y="759.1" fill="none" width="154.42" height="84.83"/>
<text transform="matrix(0.9715 0 0 1 354.1978 766.3958)"><tspan x="0" y="0" fill="#575756" font-family="'GothamBlack'" font-size="10px">Barend Köbben </tspan><tspan x="-5.61" y="12" fill="#575756" font-family="'GothamMedium-Italic'" font-size="10px">University Twente</tspan><tspan x="1.69" y="26" fill="#38B7BC" font-family="'GothamLight'" font-size="10px">Thematic maps</tspan><tspan x="7.47" y="50" fill="#575756" font-family="'GothamBlack'" font-size="10px">Rob Wallace  </tspan><tspan x="25.11" y="62" fill="#575756" font-family="'GothamMedium-Italic'" font-size="10px">ERDC</tspan><tspan x="-36.22" y="76" fill="#38B7BC" font-family="'GothamLight'" font-size="10px">Comp. Modernization Program</tspan></text>
<rect x="315.42" y="972.28" fill="none" width="154.42" height="84.83"/>
<text transform="matrix(0.9715 0 0 1 356.2427 979.58)"><tspan x="0" y="0" fill="#575756" font-family="'GothamBlack'" font-size="10px">Keith Andrews </tspan><tspan x="-41.89" y="12" fill="#575756" font-family="'GothamMedium-Italic'" font-size="10px">Graz University of Tech, Austria</tspan><tspan x="-20.53" y="26" fill="#38B7BC" font-family="'GothamLight'" font-size="10px">Responsive web design</tspan><tspan x="0.9" y="50" fill="#575756" font-family="'GothamBlack'" font-size="10px">Roy Walmsley  </tspan><tspan x="18.17" y="62" fill="#575756" font-family="'GothamMedium-Italic'" font-size="10px">WEB3D</tspan><tspan x="-14.66" y="76" fill="#38B7BC" font-family="'GothamLight'" font-size="10px">X3DOM and Cobweb</tspan></text>
<rect x="650.64" y="646.46" fill="none" width="154.42" height="84.83"/>
<text transform="matrix(0.9715 0 0 1 665.3431 653.7607)"><tspan x="0" y="0" fill="#575756" font-family="'GothamBlack'" font-size="10px">Emmanouil Potetsianakis  </tspan><tspan x="7.32" y="12" fill="#575756" font-family="'GothamMedium-Italic'" font-size="10px">Institut Mines-Télécom</tspan><tspan x="-2.49" y="26" fill="#38B7BC" font-family="'GothamLight'" font-size="10px">Enhanced video navigation</tspan><tspan x="3.25" y="50" fill="#575756" font-family="'GothamBlack'" font-size="10px">Genevieve Smith-Nunes </tspan><tspan x="16.41" y="62" fill="#575756" font-family="'GothamMedium-Italic'" font-size="10px">Ready Salted Code</tspan><tspan x="6.85" y="76" fill="#38B7BC" font-family="'GothamLight'" font-size="10px">Ballet / code / data vis.</tspan></text>
<rect x="650.64" y="473.04" fill="none" width="154.42" height="84.83"/>
<text transform="matrix(0.9715 0 0 1 701.7054 480.3384)"><tspan x="0" y="0" fill="#575756" font-family="'GothamBlack'" font-size="10px">Tina Frank  </tspan><tspan x="-37.02" y="12" fill="#575756" font-family="'GothamMedium-Italic'" font-size="10px">Professor, Linz University</tspan><tspan x="-16.68" y="26" fill="#38B7BC" font-family="'GothamLight'" font-size="10px">Digital magazines</tspan><tspan x="-15.74" y="50" fill="#575756" font-family="'GothamBlack'" font-size="10px">Raphael Amorim </tspan><tspan x="-0.72" y="62" fill="#575756" font-family="'GothamMedium-Italic'" font-size="10px">CraveFood</tspan><tspan x="-37.88" y="76" fill="#38B7BC" font-family="'GothamLight'" font-size="10px">Using canvas components</tspan></text>
<rect x="484.37" y="473.04" fill="none" width="154.42" height="84.83"/>
<text transform="matrix(0.9715 0 0 1 533.1617 480.3384)"><tspan x="0" y="0" fill="#575756" font-family="'GothamBlack'" font-size="10px">Phil Brohan  </tspan><tspan x="2.98" y="12" fill="#575756" font-family="'GothamMedium-Italic'" font-size="10px">Met Office</tspan><tspan x="-30.89" y="26" fill="#E40D7E" font-family="'GothamLight'" font-size="10px">Illustrating histoical data</tspan><tspan x="1.28" y="50" fill="#575756" font-family="'GothamBlack'" font-size="10px">Alan Smith  </tspan><tspan x="-9.41" y="62" fill="#575756" font-family="'GothamMedium-Italic'" font-size="10px">Financial Times</tspan><tspan x="-45.71" y="76" fill="#E40D7E" font-family="'GothamLight'" font-size="10px">Data visualisation in the media</tspan></text>
<rect x="484.37" y="645.67" fill="none" width="154.42" height="84.83"/>
<text transform="matrix(0.9715 0 0 1 528.4932 652.973)"><tspan x="0" y="0" fill="#575756" font-family="'GothamBlack'" font-size="10px">Barak Chamo  </tspan><tspan x="-23.19" y="12" fill="#575756" font-family="'GothamMedium-Italic'" font-size="10px">Data visualisation poet</tspan><tspan x="-38.65" y="26" fill="#E40D7E" font-family="'GothamLight'" font-size="10px">Songwriting and composition</tspan><tspan x="-8.34" y="50" fill="#575756" font-family="'GothamBlack'" font-size="10px">Kassandra Perch  </tspan><tspan x="18.4" y="62" fill="#575756" font-family="'GothamMedium-Italic'" font-size="10px">Auth0</tspan><tspan x="-39.4" y="76" fill="#E40D7E" font-family="'GothamLight'" font-size="10px">Experimental art and data vis.</tspan></text>
<rect x="484.37" y="758.31" fill="none" width="154.42" height="84.83"/>
<text transform="matrix(0.9715 0 0 1 542.002 765.608)"><tspan x="0" y="0" fill="#575756" font-family="'GothamBlack'" font-size="10px">Rob Fry  </tspan><tspan x="-48.8" y="12" fill="#575756" font-family="'GothamMedium-Italic'" font-size="10px">Office of National Statistics</tspan><tspan x="-50.73" y="26" fill="#E40D7E" font-family="'GothamLight'" font-size="10px">Better stats, better decisions</tspan><tspan x="-12.04" y="50" fill="#575756" font-family="'GothamBlack'" font-size="10px">David Dailey  </tspan><tspan x="-41.3" y="62" fill="#575756" font-family="'GothamMedium-Italic'" font-size="10px">Slippery Rock University</tspan><tspan x="-15.77" y="76" fill="#E40D7E" font-family="'GothamLight'" font-size="10px">Exploring SVG</tspan></text>
<rect x="316.77" y="316.14" fill="none" width="154.42" height="106.78"/>
<text transform="matrix(0.9715 0 0 1 356.8378 323.4438)" fill="#575756" font-family="'GothamBlack'" font-size="10px">Dr. Ed Hawkins </text>
<text transform="matrix(0.9715 0 0 1 340.3324 335.4438)" fill="#575756" font-family="'GothamMedium-Italic'" font-size="10px">Dept. of Meteorology,  </text>
<text transform="matrix(0.9715 0 0 1 347.934 347.4438)" fill="#575756" font-family="'GothamMedium-Italic'" font-size="10px">Reading University</text>
<text transform="matrix(0.9715 0 0 1 337.6996 363.6045)" fill="#38B7BC" font-family="'GothamLight'" font-size="10px">Visualising climate data</text>
<text transform="matrix(1 0 0 1 330.2284 374.6045)" fill="#2A2A2A" font-family="'Gotham-Light'" font-size="7.5px">Discussing useful ways to visualise </text>
<text transform="matrix(1 0 0 1 326.6805 383.6045)" fill="#2A2A2A" font-family="'Gotham-Light'" font-size="7.5px">complex data and how his work was </text>
<text transform="matrix(1 0 0 1 330.4457 392.6045)" fill="#2A2A2A" font-family="'Gotham-Light'" font-size="7.5px"> used in the Opening Ceremony of  </text>
<text transform="matrix(1 0 0 1 356.6537 401.6045)" fill="#2A2A2A" font-family="'Gotham-Light'" font-size="7.5px">The Olympic Games  </text>
<rect x="486.12" y="316.14" fill="none" width="154.42" height="102.4"/>
<text transform="matrix(0.9715 0 0 1 524.9227 323.4438)" fill="#575756" font-family="'GothamBlack'" font-size="10px">Jaume Sanchez </text>
<text transform="matrix(0.9715 0 0 1 517.8602 335.4438)" fill="#575756" font-family="'GothamMedium-Italic'" font-size="10px">clicktorelease.com </text>
<text transform="matrix(0.9715 0 0 1 522.5331 363.6045)" fill="#E40D7E" font-family="'GothamLight'" font-size="10px">WebGL · WebVR</text>
<text transform="matrix(1 0 0 1 496.5126 374.6045)" fill="#2A2A2A" font-family="'Gotham-Light'" font-size="7.5px">Revealing how WebVR enables web </text>
<text transform="matrix(1 0 0 1 507.0653 383.6045)" fill="#2A2A2A" font-family="'Gotham-Light'" font-size="7.5px">browsers to display immersive </text>
<text transform="matrix(1 0 0 1 492.4325 392.6045)" fill="#2A2A2A" font-family="'Gotham-Light'" font-size="7.5px">environments, providing new effective </text>
<text transform="matrix(1 0 0 1 488.1356 401.6045)" fill="#2A2A2A" font-family="'Gotham-Light'" font-size="7.5px">ways to represent and interact with data</text>
<rect x="650.95" y="316.14" fill="none" width="154.42" height="94.85"/>
<text transform="matrix(0.9715 0 0 1 684.4089 323.4438)" fill="#575756" font-family="'GothamBlack'" font-size="10px">Rabimba Karanjai </text>
<text transform="matrix(0.9715 0 0 1 711.1199 335.4438)" fill="#575756" font-family="'GothamMedium-Italic'" font-size="10px">Mozilla </text>
<text transform="matrix(0.9715 0 0 1 721.0095 363.6045)" fill="#38B7BC" font-family="'GothamLight'" font-size="10px">VR</text>
<text transform="matrix(1 0 0 1 655.5808 374.6045)" fill="#2A2A2A" font-family="'Gotham-Light'" font-size="7.5px">Using Javascript to interact with virtual </text>
<text transform="matrix(1 0 0 1 658.033 383.6045)" fill="#2A2A2A" font-family="'Gotham-Light'" font-size="7.5px">objects, enriching the experience with </text>
<text transform="matrix(1 0 0 1 654.4597 392.6045)" fill="#2A2A2A" font-family="'Gotham-Light'" font-size="7.5px">interaction using augmented reality and </text>
<text transform="matrix(1 0 0 1 678.5222 401.6045)" fill="#2A2A2A" font-family="'Gotham-Light'" font-size="7.5px">your mobile phone camera</text>
<rect x="150.14" y="268.48" fill="none" width="154.42" height="19.98"/>
<text transform="matrix(0.9715 0 0 1 204.6141 275.7751)" fill="#575756" font-family="'GothamLight'" font-size="10px">Welcome</text>
<rect x="150.14" y="579.88" fill="none" width="154.42" height="19.98"/>
<text transform="matrix(0.9715 0 0 1 201.1171 587.1817)" fill="#575756" font-family="'GothamMedium'" font-size="10px">Panel Q&amp;A</text>
<rect x="317.73" y="579.88" fill="none" width="154.42" height="19.98"/>
<text transform="matrix(0.9715 0 0 1 368.7007 587.1817)" fill="#575756" font-family="'GothamMedium'" font-size="10px">Panel Q&amp;A</text>
<rect x="484.15" y="579.88" fill="none" width="154.42" height="19.98"/>
<text transform="matrix(0.9715 0 0 1 535.1285 587.1817)" fill="#575756" font-family="'GothamMedium'" font-size="10px">Panel Q&amp;A</text>
<rect x="651.74" y="579.88" fill="none" width="154.42" height="19.98"/>
<text transform="matrix(0.9715 0 0 1 702.7122 587.1817)" fill="#575756" font-family="'GothamMedium'" font-size="10px">Panel Q&amp;A</text>
<rect x="150.14" y="439.51" fill="none" width="154.42" height="19.98"/>
<text transform="matrix(0.9715 0 0 1 198.0521 446.8083)" fill="#575756" font-family="'GothamExtraLight'" font-size="10px">Tea / Coffee</text>
<rect x="318.24" y="439.51" fill="none" width="154.42" height="19.98"/>
<text transform="matrix(0.9715 0 0 1 366.1454 446.8083)" fill="#575756" font-family="'GothamExtraLight'" font-size="10px">Tea / Coffee</text>
<rect x="485.08" y="439.51" fill="none" width="154.42" height="19.98"/>
<text transform="matrix(0.9715 0 0 1 532.9843 446.8083)" fill="#575756" font-family="'GothamExtraLight'" font-size="10px">Tea / Coffee</text>
<rect x="651.91" y="439.51" fill="none" width="154.42" height="19.98"/>
<text transform="matrix(0.9715 0 0 1 699.8241 446.8083)" fill="#575756" font-family="'GothamExtraLight'" font-size="10px">Tea / Coffee</text>
<rect x="150.14" y="865.88" fill="none" width="154.42" height="19.98"/>
<text transform="matrix(0.9715 0 0 1 198.0521 873.1772)" fill="#575756" font-family="'GothamExtraLight'" font-size="10px">Tea / Coffee</text>
<rect x="318.24" y="865.88" fill="none" width="154.42" height="19.98"/>
<text transform="matrix(0.9715 0 0 1 366.1454 873.1772)" fill="#575756" font-family="'GothamExtraLight'" font-size="10px">Tea / Coffee</text>
<rect x="485.08" y="865.88" fill="none" width="154.42" height="19.98"/>
<text transform="matrix(0.9715 0 0 1 532.9843 873.1772)" fill="#575756" font-family="'GothamExtraLight'" font-size="10px">Tea / Coffee</text>
<rect x="651.91" y="865.88" fill="none" width="154.42" height="19.98"/>
<text transform="matrix(0.9715 0 0 1 699.8241 873.1772)" fill="#575756" font-family="'GothamExtraLight'" font-size="10px">Tea / Coffee</text>
<rect x="317.23" y="268.48" fill="none" width="154.42" height="19.98"/>
<text transform="matrix(0.9715 0 0 1 336.5424 275.7751)" fill="#575756" font-family="'GothamLight'" font-size="10px">Welcome / Day 1 review</text>
<rect x="484.32" y="268.48" fill="none" width="154.42" height="19.98"/>
<text transform="matrix(0.9715 0 0 1 502.3944 275.7751)" fill="#575756" font-family="'GothamLight'" font-size="10px">Welcome / Day 2 review</text>
<rect x="652.01" y="268.48" fill="none" width="154.42" height="19.98"/>
<text transform="matrix(0.9715 0 0 1 669.9872 275.7751)" fill="#575756" font-family="'GothamLight'" font-size="10px">Welcome / Day 3 review</text>
<rect x="316.04" y="213.47" fill="none" width="154.42" height="52.74"/>
<text transform="matrix(0.9715 0 0 1 364.1566 220.769)"><tspan x="0" y="0" fill="#575756" font-family="'GothamLight'" font-size="10px">Registration  </tspan><tspan x="3.69" y="12" fill="#575756" font-family="'GothamLight'" font-size="10px">and coffee</tspan></text>
<rect x="484.77" y="213.47" fill="none" width="154.42" height="52.74"/>
<text transform="matrix(0.9715 0 0 1 532.8846 220.769)"><tspan x="0" y="0" fill="#575756" font-family="'GothamLight'" font-size="10px">Registration  </tspan><tspan x="3.7" y="12" fill="#575756" font-family="'GothamLight'" font-size="10px">and coffee</tspan></text>
<rect x="652.3" y="213.47" fill="none" width="154.42" height="52.74"/>
<text transform="matrix(0.9715 0 0 1 700.4178 220.769)"><tspan x="0" y="0" fill="#575756" font-family="'GothamLight'" font-size="10px">Registration  </tspan><tspan x="3.7" y="12" fill="#575756" font-family="'GothamLight'" font-size="10px">and coffee</tspan></text>
<rect x="29.01" y="1065.61" fill="#B2B2B2" width="617.36" height="32.54"/>
<rect x="307.12" y="127.49" fill="#5F5F5F" width="5.07" height="1042.57"/>
<rect x="144.78" y="127.49" fill="#5F5F5F" width="5.07" height="1042.57"/>
<rect x="475.76" y="127.49" fill="#5F5F5F" width="5.07" height="1042.57"/>
<rect x="642.56" y="127.49" fill="#5F5F5F" width="5.07" height="1042.57"/>
<g>
	<polygon id="_438677888_7_" fill="#38B7BC" points="490.54,187.06 331.23,169.5 305.64,212.61 	"/>
	<rect x="314.99" y="183.37" fill="none" width="158.58" height="23.11"/>
	<text transform="matrix(1 0 0 1 347.8627 192.1942)" fill="#FFFFFF" font-family="'GothamLight'" font-size="12.0893px">DATA TO INFO</text>
	<polygon id="_438677888_8_" fill="#E40D7E" points="636.05,168.24 471.72,187.06 623.51,212.15 	"/>
	<rect x="484.33" y="183.37" fill="none" width="158.58" height="23.11"/>
	<text transform="matrix(1 0 0 1 515.3798 192.1942)" fill="#FFFFFF" font-family="'GothamLight'" font-size="12.0893px">STORYTELLING</text>
	<polygon id="_438677888_9_" fill="#38B7BC" points="833,195.84 638.56,199.6 713.83,165.73 	"/>
	<rect x="648.66" y="183.37" fill="none" width="158.58" height="23.11"/>
	<text transform="matrix(1 0 0 1 669.3065 192.1942)" fill="#FFFFFF" font-family="'GothamLight'" font-size="12.0893px">BEYOND THE WEB</text>
</g>
<g>
	<g>
		
			<line fill="none" stroke="#706F6F" stroke-linecap="round" stroke-miterlimit="10" x1="316.99" y1="514.14" x2="316.99" y2="514.14"/>
		
			<line fill="none" stroke="#706F6F" stroke-linecap="round" stroke-miterlimit="10" stroke-dasharray="0,1.9988" x1="318.99" y1="514.14" x2="467.9" y2="514.14"/>
		
			<line fill="none" stroke="#706F6F" stroke-linecap="round" stroke-miterlimit="10" x1="468.9" y1="514.14" x2="468.9" y2="514.14"/>
	</g>
</g>
<rect x="315.42" y="897.75" fill="none" width="154.42" height="68.01"/>
<text transform="matrix(0.9715 0 0 1 362.0279 905.0532)"><tspan x="0" y="0" fill="#575756" font-family="'GothamBlack'" font-size="10px">Sandro Buss  </tspan><tspan x="-1.93" y="12" fill="#575756" font-family="'GothamMedium-Italic'" font-size="10px">Solar Takeoff</tspan><tspan x="-5.9" y="34" fill="#575756" font-family="'GothamBlack'" font-size="10px">Matt Standage  </tspan><tspan x="-43.87" y="46" fill="#575756" font-family="'GothamMedium-Italic'" font-size="10px">Oxford Computer Consultants</tspan></text>
<g>
	<g>
		
			<line fill="none" stroke="#706F6F" stroke-linecap="round" stroke-miterlimit="10" x1="316.99" y1="923.98" x2="316.99" y2="923.98"/>
		
			<line fill="none" stroke="#706F6F" stroke-linecap="round" stroke-miterlimit="10" stroke-dasharray="0,1.9988" x1="318.99" y1="923.98" x2="467.9" y2="923.98"/>
		
			<line fill="none" stroke="#706F6F" stroke-linecap="round" stroke-miterlimit="10" x1="468.9" y1="923.98" x2="468.9" y2="923.98"/>
	</g>
</g>
<g>
	<g>
		
			<line fill="none" stroke="#706F6F" stroke-linecap="round" stroke-miterlimit="10" x1="316.99" y1="687.26" x2="316.99" y2="687.26"/>
		
			<line fill="none" stroke="#706F6F" stroke-linecap="round" stroke-miterlimit="10" stroke-dasharray="0,1.9988" x1="318.99" y1="687.26" x2="467.9" y2="687.26"/>
		
			<line fill="none" stroke="#706F6F" stroke-linecap="round" stroke-miterlimit="10" x1="468.9" y1="687.26" x2="468.9" y2="687.26"/>
	</g>
</g>
<g>
	<g>
		
			<line fill="none" stroke="#706F6F" stroke-linecap="round" stroke-miterlimit="10" x1="485.32" y1="687.26" x2="485.32" y2="687.26"/>
		
			<line fill="none" stroke="#706F6F" stroke-linecap="round" stroke-miterlimit="10" stroke-dasharray="0,1.9988" x1="487.32" y1="687.26" x2="636.23" y2="687.26"/>
		
			<line fill="none" stroke="#706F6F" stroke-linecap="round" stroke-miterlimit="10" x1="637.23" y1="687.26" x2="637.23" y2="687.26"/>
	</g>
</g>
<g>
	<g>
		
			<line fill="none" stroke="#706F6F" stroke-linecap="round" stroke-miterlimit="10" x1="316.99" y1="799.67" x2="316.99" y2="799.67"/>
		
			<line fill="none" stroke="#706F6F" stroke-linecap="round" stroke-miterlimit="10" stroke-dasharray="0,1.9988" x1="318.99" y1="799.67" x2="467.9" y2="799.67"/>
		
			<line fill="none" stroke="#706F6F" stroke-linecap="round" stroke-miterlimit="10" x1="468.9" y1="799.67" x2="468.9" y2="799.67"/>
	</g>
</g>
<g>
	<g>
		
			<line fill="none" stroke="#706F6F" stroke-linecap="round" stroke-miterlimit="10" x1="316.99" y1="1013.26" x2="316.99" y2="1013.26"/>
		
			<line fill="none" stroke="#706F6F" stroke-linecap="round" stroke-miterlimit="10" stroke-dasharray="0,1.9988" x1="318.99" y1="1013.26" x2="467.9" y2="1013.26"/>
		
			<line fill="none" stroke="#706F6F" stroke-linecap="round" stroke-miterlimit="10" x1="468.9" y1="1013.26" x2="468.9" y2="1013.26"/>
	</g>
</g>
<rect x="650.78" y="757.34" fill="none" width="155.41" height="99.19"/>
<text transform="matrix(0.9715 0 0 1 700.9112 764.6424)"><tspan x="0" y="0" fill="#575756" font-family="'GothamBlack'" font-size="10px">Edan Kwan  </tspan><tspan x="15.86" y="12" fill="#575756" font-family="'GothamMedium-Italic'" font-size="10px">Kuva</tspan><tspan x="-19.15" y="33" fill="#575756" font-family="'GothamBlack'" font-size="10px">Vasilis van Gemert  </tspan><tspan x="-27.46" y="45" fill="#575756" font-family="'GothamMedium-Italic'" font-size="10px">Amsterdam University</tspan><tspan x="-8.36" y="66" fill="#575756" font-family="'GothamBlack'" font-size="10px">Vitaliy Bobrov </tspan><tspan x="3.39" y="78" fill="#575756" font-family="'GothamMedium-Italic'" font-size="10px">Provectus</tspan></text>
<g>
	<g>
		
			<line fill="none" stroke="#706F6F" stroke-linecap="round" stroke-miterlimit="10" x1="485.32" y1="799.67" x2="485.32" y2="799.67"/>
		
			<line fill="none" stroke="#706F6F" stroke-linecap="round" stroke-miterlimit="10" stroke-dasharray="0,1.9988" x1="487.32" y1="799.67" x2="636.23" y2="799.67"/>
		
			<line fill="none" stroke="#706F6F" stroke-linecap="round" stroke-miterlimit="10" x1="637.23" y1="799.67" x2="637.23" y2="799.67"/>
	</g>
</g>
<g>
	<g>
		
			<line fill="none" stroke="#706F6F" stroke-linecap="round" stroke-miterlimit="10" x1="653.65" y1="783.67" x2="653.65" y2="783.67"/>
		
			<line fill="none" stroke="#706F6F" stroke-linecap="round" stroke-miterlimit="10" stroke-dasharray="0,1.9988" x1="655.65" y1="783.67" x2="804.56" y2="783.67"/>
		
			<line fill="none" stroke="#706F6F" stroke-linecap="round" stroke-miterlimit="10" x1="805.56" y1="783.67" x2="805.56" y2="783.67"/>
	</g>
</g>
<g>
	<g>
		
			<line fill="none" stroke="#706F6F" stroke-linecap="round" stroke-miterlimit="10" x1="653.65" y1="816.63" x2="653.65" y2="816.63"/>
		
			<line fill="none" stroke="#706F6F" stroke-linecap="round" stroke-miterlimit="10" stroke-dasharray="0,1.9988" x1="655.65" y1="816.63" x2="804.56" y2="816.63"/>
		
			<line fill="none" stroke="#706F6F" stroke-linecap="round" stroke-miterlimit="10" x1="805.56" y1="816.63" x2="805.56" y2="816.63"/>
	</g>
</g>
<g>
	<g>
		
			<line fill="none" stroke="#706F6F" stroke-linecap="round" stroke-miterlimit="10" x1="651.06" y1="687.26" x2="651.06" y2="687.26"/>
		
			<line fill="none" stroke="#706F6F" stroke-linecap="round" stroke-miterlimit="10" stroke-dasharray="0,1.9988" x1="653.06" y1="687.26" x2="801.97" y2="687.26"/>
		
			<line fill="none" stroke="#706F6F" stroke-linecap="round" stroke-miterlimit="10" x1="802.97" y1="687.26" x2="802.97" y2="687.26"/>
	</g>
</g>
<g>
	<g>
		
			<line fill="none" stroke="#706F6F" stroke-linecap="round" stroke-miterlimit="10" x1="485.42" y1="513.14" x2="485.42" y2="513.14"/>
		
			<line fill="none" stroke="#706F6F" stroke-linecap="round" stroke-miterlimit="10" stroke-dasharray="0,1.9988" x1="487.42" y1="513.14" x2="636.33" y2="513.14"/>
		
			<line fill="none" stroke="#706F6F" stroke-linecap="round" stroke-miterlimit="10" x1="637.33" y1="513.14" x2="637.33" y2="513.14"/>
	</g>
</g>
<g>
	<g>
		
			<line fill="none" stroke="#706F6F" stroke-linecap="round" stroke-miterlimit="10" x1="653.01" y1="513.14" x2="653.01" y2="513.14"/>
		
			<line fill="none" stroke="#706F6F" stroke-linecap="round" stroke-miterlimit="10" stroke-dasharray="0,1.9988" x1="655" y1="513.14" x2="803.92" y2="513.14"/>
		
			<line fill="none" stroke="#706F6F" stroke-linecap="round" stroke-miterlimit="10" x1="804.91" y1="513.14" x2="804.91" y2="513.14"/>
	</g>
</g>
<rect x="38.22" y="1076.65" fill="none" width="105.35" height="17.86"/>
<text transform="matrix(0.9715 0 0 1 38.225 1084.6805)" fill="#FFFFFF" font-family="'GothamLight'" font-size="11px">17:00 - 17:15</text>
<rect x="150.14" y="1076.74" fill="none" width="154.42" height="19.98"/>
<text transform="matrix(0.9715 0 0 1 188.1483 1084.04)" fill="#FFFFFF" font-family="'GothamExtraLight'" font-size="10px">Roundup / close</text>
<rect x="318.67" y="1076.74" fill="none" width="154.42" height="19.98"/>
<text transform="matrix(0.9715 0 0 1 356.6756 1084.04)" fill="#FFFFFF" font-family="'GothamExtraLight'" font-size="10px">Roundup / close</text>
<rect x="483.49" y="1076.74" fill="none" width="154.42" height="19.98"/>
<text transform="matrix(0.9715 0 0 1 521.499 1084.04)" fill="#FFFFFF" font-family="'GothamExtraLight'" font-size="10px">Roundup / close</text>
<rect x="651.76" y="895.64" fill="none" width="154.42" height="19.98"/>
<text transform="matrix(0.9715 0 0 1 689.769 902.9424)" fill="#FFFFFF" font-family="'GothamExtraLight'" font-size="10px">Roundup / close</text>
<rect x="485.07" y="895.99" fill="none" width="154.42" height="58.48"/>
<text transform="matrix(0.9715 0 0 1 531.5243 903.2863)" fill="#E40D7E" font-family="'GothamMedium'" font-size="10px">WORKSHOP </text>
<text transform="matrix(0.9715 0 0 1 541.7543 915.2863)" fill="#E40D7E" font-family="'GothamLight'" font-size="10px">Usability</text>
<text transform="matrix(1 0 0 1 504.2513 928.2863)" fill="#2A2A2A" font-family="'Gotham-Light'" font-size="7.5px">Demonstrating real-time, quick, </text>
<text transform="matrix(1 0 0 1 496.6576 937.2863)" fill="#2A2A2A" font-family="'Gotham-Light'" font-size="7.5px">inexpensive mobile usability testing </text>
<text transform="matrix(0.9715 0 0 1 507.9467 951.2863)" fill="#575756" font-family="'GothamExtraLight-Italic'" font-size="10px">Run by Informatics Lab</text>
<rect x="485.07" y="972.29" fill="none" width="154.42" height="86.29"/>
<text transform="matrix(0.9715 0 0 1 531.5243 979.5926)" fill="#E40D7E" font-family="'GothamMedium'" font-size="10px">WORKSHOP </text>
<text transform="matrix(0.9715 0 0 1 539.4032 991.5926)" fill="#E40D7E" font-family="'GothamLight'" font-size="10px">Playroom </text>
<text transform="matrix(0.9715 0 0 1 526.9003 1003.5926)" fill="#E40D7E" font-family="'GothamLight'" font-size="10px"> and showcase</text>
<text transform="matrix(1 0 0 1 501.4125 1016.5926)" fill="#2A2A2A" font-family="'Gotham-Light'" font-size="7.5px">Try, test, explore, showcase, play </text>
<text transform="matrix(1 0 0 1 535.7396 1025.5925)" fill="#2A2A2A" font-family="'Gotham-Light'" font-size="7.5px">...and have fun</text>
<text transform="matrix(0.9715 0 0 1 504.0609 1039.5925)" fill="#575756" font-family="'GothamExtraLight-Italic'" font-size="10px">run by Ruud Steltenpool, </text>
<rect x="26.64" y="1148.4" fill="#575756" width="784.1" height="24.11"/>
<rect x="33.82" y="1155.34" fill="none" width="772.42" height="27.17"/>
<text transform="matrix(1 0 0 1 264.458 1164.0961)"><tspan x="0" y="0" fill="#FFFFFF" font-family="'GothamLight'" font-size="12px">For more information visit </tspan><tspan x="157.67" y="0" fill="#FFFFFF" font-family="'GothamBold'" font-size="12px">www.graphicalweb.co.uk</tspan></text>
<g>
	<g>
		<polygon fill="#E366A1" points="91.53,21.08 89.22,17.54 91.53,16.11 		"/>
		<polygon fill="#E366A1" points="91.53,21.08 93.84,17.54 91.53,16.11 		"/>
	</g>
	<g>
		<polygon id="_438677864_14_" fill="#E366A1" points="24.72,134.44 22.8,138.22 20.4,136.93 		"/>
		<polygon id="_438677888_15_" fill="#E366A1" points="24.72,134.44 20.49,134.21 20.41,136.93 		"/>
	</g>
	<g>
		<polygon id="_376294400_14_" fill="#E366A1" points="158.93,134.44 163.16,134.21 163.24,136.93 		"/>
		<polygon id="_376294568_15_" fill="#E366A1" points="158.93,134.44 160.85,138.22 163.24,136.93 		"/>
	</g>
	<polygon fill="#E366A1" points="77.48,38.27 90.87,51.68 90.87,30.48 	"/>
	<polygon fill="#38B7BC" points="104.27,38.27 90.87,51.68 90.87,30.48 	"/>
	<polygon fill="#38B7BC" points="77.48,38.27 80.36,62.17 72.43,52.64 	"/>
	<polygon fill="#38B7BC" points="104.27,38.27 101.39,62.17 109.32,52.64 	"/>
	<polygon id="_375375696_13_" fill="#38B7BC" points="33.95,78.87 52.26,73.98 33.89,63.38 	"/>
	<polygon id="_375375720_13_" fill="#E366A1" points="47.34,55.67 52.26,73.98 33.89,63.38 	"/>
	<polygon id="_375375816_13_" fill="#E366A1" points="47.34,55.67 66.6,70.12 62.31,58.48 	"/>
	<polygon id="_438677912_13_" fill="#E366A1" points="47.34,136.87 52.26,118.57 33.89,129.17 	"/>
	<polygon id="_438677936_13_" fill="#38B7BC" points="33.95,113.67 52.26,118.57 33.89,129.17 	"/>
	<polygon id="_438678008_13_" fill="#E366A1" points="47.34,136.87 66.6,122.43 62.31,134.06 	"/>
	<polygon id="_376302392_13_" fill="#E366A1" points="104.27,154.27 90.87,140.86 90.87,162.07 	"/>
	<polygon id="_376304864_13_" fill="#38B7BC" points="77.48,154.27 90.87,140.86 90.87,162.07 	"/>
	<polygon id="_376304384_13_" fill="#38B7BC" points="104.27,154.27 101.39,130.37 109.32,139.91 	"/>
	<polygon id="_376304432_13_" fill="#38B7BC" points="77.48,154.27 80.36,130.37 72.43,139.91 	"/>
	<polygon id="_376293872_13_" fill="#E366A1" points="147.8,113.67 129.49,118.57 147.85,129.17 	"/>
	<polygon id="_376293200_13_" fill="#38B7BC" points="134.41,136.87 129.49,118.57 147.85,129.17 	"/>
	<polygon id="_376300088_13_" fill="#E366A1" points="134.41,136.87 115.15,122.43 119.44,134.06 	"/>
	<polygon id="_374221608_13_" fill="#E366A1" points="134.41,55.67 129.49,73.98 147.85,63.37 	"/>
	<polygon id="_374221776_13_" fill="#38B7BC" points="147.8,78.87 129.49,73.98 147.85,63.37 	"/>
	<polygon id="_374222280_13_" fill="#E366A1" points="134.41,55.67 115.15,70.12 119.44,58.48 	"/>
	<polygon id="_446189792_13_" fill="#E366A1" points="109.46,37.29 114.36,55.6 124.96,37.23 	"/>
	<polygon id="_446189624_13_" fill="#38B7BC" points="132.66,50.68 114.36,55.6 124.96,37.23 	"/>
	<polygon id="_448054032_13_" fill="#E366A1" points="49.08,50.68 67.39,55.6 56.79,37.23 	"/>
	<polygon id="_375838080_13_" fill="#38B7BC" points="72.29,37.29 67.39,55.6 56.79,37.23 	"/>
	<polygon id="_374226552_13_" fill="#E366A1" points="72.29,155.26 67.39,136.95 56.79,155.31 	"/>
	<polygon id="_379020712_13_" fill="#38B7BC" points="49.09,141.86 67.39,136.95 56.79,155.31 	"/>
	<polygon id="_379003696_13_" fill="#E366A1" points="132.66,141.86 114.36,136.95 124.96,155.31 	"/>
	<polygon id="_379003744_13_" fill="#38B7BC" points="109.46,155.26 114.36,136.95 124.96,155.31 	"/>
	<g>
		<polygon fill="#BFC945" points="91.57,28.99 81.06,18.48 91.57,24.95 		"/>
		<polygon fill="#BFC945" points="91.57,28.99 102.08,18.48 91.57,24.95 		"/>
	</g>
	<path fill="#FFFFFF" d="M18.81,99.77c-2.23-2.23-3.34-4.91-3.34-8.06s1.11-5.83,3.34-8.06c2.23-2.23,4.91-3.34,8.06-3.34
		c1.55,0,3.03,0.3,4.44,0.89l-1.31,3.14c-1-0.43-2.04-0.64-3.12-0.64c-2.21,0-4.09,0.79-5.65,2.36c-1.56,1.56-2.34,3.45-2.34,5.65
		c0,2.21,0.78,4.09,2.34,5.65c1.56,1.56,3.45,2.34,5.65,2.34c0.72,0,1.42-0.09,2.09-0.27v-6.09h-3.62v-3.4h7.03v11.82l-1.03,0.44
		c-1.43,0.6-2.92,0.91-4.47,0.91C23.72,103.11,21.04,101.99,18.81,99.77z"/>
	<path fill="#FFFFFF" d="M50.74,102.89h-3.83l-4.89-9.42H38.2v9.42h-3.39V80.54h8.25c1.78,0,3.3,0.64,4.56,1.91
		c1.27,1.26,1.91,2.78,1.91,4.58c0,1.31-0.37,2.51-1.11,3.59c-0.72,1.06-1.66,1.84-2.83,2.34L50.74,102.89z M43.06,90.08
		c0.84,0,1.57-0.3,2.17-0.91c0.59-0.59,0.89-1.31,0.89-2.16c0-0.85-0.3-1.58-0.89-2.19c-0.6-0.6-1.33-0.91-2.17-0.91H38.2v6.15
		H43.06z"/>
	<path fill="#FFFFFF" d="M77.04,102.89h-3.39V80.54h8.25c1.78,0,3.3,0.64,4.56,1.91c1.27,1.26,1.91,2.78,1.91,4.58
		c0,1.78-0.64,3.3-1.91,4.56c-1.26,1.26-2.78,1.89-4.56,1.89h-4.86V102.89z M77.04,90.08h4.86c0.84,0,1.57-0.3,2.17-0.91
		c0.59-0.59,0.89-1.31,0.89-2.16c0-0.85-0.3-1.58-0.89-2.19c-0.6-0.6-1.33-0.91-2.17-0.91h-4.86V90.08z"/>
	<path fill="#FFFFFF" d="M106.99,80.54v22.35h-3.39v-9.49h-9.09v9.49h-3.39V80.57h3.39V90h9.09v-9.46H106.99z"/>
	<path fill="#FFFFFF" d="M113.98,102.89h-3.39V80.57h3.39V102.89z"/>
	<path fill="#FFFFFF" d="M128.09,99.7c1.35,0,2.62-0.32,3.79-0.95v3.7c-1.23,0.44-2.49,0.66-3.79,0.66c-3.14,0-5.83-1.11-8.06-3.34
		c-2.23-2.23-3.34-4.91-3.34-8.06s1.11-5.83,3.34-8.06c2.23-2.23,4.91-3.34,8.06-3.34c1.3,0,2.57,0.21,3.79,0.64v3.72
		c-1.18-0.65-2.44-0.97-3.79-0.97c-2.21,0-4.09,0.79-5.65,2.36c-1.56,1.56-2.34,3.45-2.34,5.65c0,2.21,0.78,4.09,2.34,5.65
		C124,98.92,125.89,99.7,128.09,99.7z"/>
	<path fill="#FFFFFF" d="M151.83,80.54v22.35h-3.4v-5.22h-7.59l-3.3,5.22h-4.01l14.13-22.35H151.83z M142.97,94.28h5.45v-8.6
		L142.97,94.28z"/>
	<path fill="#FFFFFF" d="M159.03,80.54V99.5h8.01v3.39h-11.4V80.54H159.03z"/>
	<rect x="21.73" y="108.96" fill="none" width="138.45" height="27.06"/>
	<text transform="matrix(1 0 0 1 68.7955 124.9815)" fill="#FFFFFF" font-family="'DolceVita'" font-size="22.8446px">WEB</text>
	<polygon fill="#E366A1" points="70.55,77.08 50.78,107.32 67.8,102.01 	"/>
	<g>
		<polygon fill="#BFC945" points="32.14,63.34 17.74,67.06 28.65,61.28 		"/>
		<polygon fill="#BFC945" points="32.14,63.34 28.41,48.94 28.65,61.28 		"/>
	</g>
	<g>
		<polygon fill="#BFC945" points="149.86,63.34 164.25,67.06 153.34,61.28 		"/>
		<polygon fill="#BFC945" points="149.86,63.34 153.58,48.94 153.34,61.28 		"/>
	</g>
	<g>
		<polygon fill="#BFC945" points="91.57,164.06 81.06,174.58 91.57,168.11 		"/>
		<polygon fill="#BFC945" points="91.57,164.06 102.08,174.58 91.57,168.11 		"/>
	</g>
	<g>
		<polygon fill="#BFC945" points="32.14,129.72 17.74,126 28.65,131.77 		"/>
		<polygon fill="#BFC945" points="32.14,129.72 28.41,144.11 28.65,131.77 		"/>
	</g>
	<g>
		<polygon fill="#BFC945" points="149.86,129.72 164.25,126 153.34,131.77 		"/>
		<polygon fill="#BFC945" points="149.86,129.72 153.58,144.11 153.34,131.77 		"/>
	</g>
	<g>
		<polygon fill="#38B7BC" points="91.04,57.73 87.32,63.55 91.04,70.72 		"/>
		<polygon fill="#38B7BC" points="91.04,57.73 94.75,63.55 91.04,70.72 		"/>
		<polygon id="_448053648_10_" fill="#38B7BC" points="73.71,67.73 76.89,73.86 84.96,74.23 		"/>
		<polygon id="_377572744_10_" fill="#38B7BC" points="73.71,67.73 80.61,67.42 84.96,74.23 		"/>
		<polygon id="_374223624_10_" fill="#38B7BC" points="108.37,67.73 101.47,67.42 97.12,74.22 		"/>
		<polygon id="_374223792_10_" fill="#38B7BC" points="108.37,67.73 105.19,73.86 97.12,74.22 		"/>
	</g>
</g>
<rect x="38.22" y="612.18" fill="none" width="105.35" height="17.86"/>
<text transform="matrix(0.9715 0 0 1 38.225 620.2107)" fill="#FFFFFF" font-family="'GothamLight'" font-size="11px">12:15 - 13:00</text>
<rect x="150.14" y="612.52" fill="none" width="154.42" height="19.98"/>
<text transform="matrix(0.9715 0 0 1 191.4271 619.8177)" fill="#FFFFFF" font-family="'GothamExtraLight'" font-size="10px">Lunch and tour</text>
<rect x="317.73" y="612.52" fill="none" width="154.42" height="19.98"/>
<text transform="matrix(0.9715 0 0 1 359.0107 619.8177)" fill="#FFFFFF" font-family="'GothamExtraLight'" font-size="10px">Lunch and tour</text>
<rect x="484.15" y="612.52" fill="none" width="154.42" height="19.98"/>
<text transform="matrix(0.9715 0 0 1 525.4386 619.8177)" fill="#FFFFFF" font-family="'GothamExtraLight'" font-size="10px">Lunch and tour</text>
<rect x="652.89" y="612.52" fill="none" width="154.42" height="19.98"/>
<text transform="matrix(0.9715 0 0 1 694.178 619.8177)" fill="#FFFFFF" font-family="'GothamExtraLight'" font-size="10px">Lunch and tour</text>
<polygon id="_379072240_3_" fill="#37B8BD" points="54.65,660.74 -3.67,776.6 -32.38,682.04 "/>
<polygon id="_374219928_3_" fill="#37B8BD" points="792.12,559.68 850.44,443.81 879.16,538.38 "/>
<polygon id="_316591864_3_" fill="#E6007E" points="744.99,1069.6 691.73,1004.27 691.73,1038.85 "/>
<g>
	<polygon id="_376293872_3_" fill="#37B8BD" points="763.83,970.91 657.86,999.24 764.14,1060.6 	"/>
	<polygon id="_376293200_3_" fill="#37B8BD" points="686.31,1105.19 657.86,999.24 764.14,1060.6 	"/>
	<polygon id="_376296776_3_" fill="#E6007E" points="671.65,972.55 704.28,1006.62 652.55,1003.21 	"/>
	<polygon id="_376297016_3_" fill="#E6007E" points="628.52,1047.28 674.33,1058.49 645.51,1015.4 	"/>
	<polygon id="_376294400_3_" fill="#E6007E" points="639.68,1003.9 652.55,1003.21 652.82,1011.49 	"/>
	<polygon id="_376294568_5_" fill="#E6007E" points="639.68,1003.9 645.51,1015.4 652.82,1011.49 	"/>
	<polygon id="_374218584_3_" fill="#E6007E" points="757.54,1071.95 674.33,1058.49 704.28,1041.21 	"/>
</g>
<polygon id="_448056048_3_" fill="#E6007E" points="43.23,369.77 122.03,399.72 104.73,369.77 "/>
<polygon id="_448056216_3_" fill="#E6007E" points="43.23,369.77 122.03,339.83 104.73,369.77 "/>
<polygon id="_379017784_3_" fill="#E6007E" points="100.34,1069.61 183.56,1056.14 153.6,1038.85 "/>
<polygon id="_379017616_3_" fill="#E6007E" points="100.34,1069.61 153.61,1004.28 153.6,1038.85 "/>
<polygon id="_376293872_4_" fill="#37B8BD" points="923.84,1075.86 526.89,1181.97 924.99,1411.82 "/>
<g>
	<path fill="#FFFFFF" d="M611.23,1168.89l3.99-1.1c0.61-0.17,1.18-0.24,1.72-0.22s1.03,0.13,1.48,0.33c0.44,0.2,0.82,0.48,1.14,0.85
		c0.32,0.37,0.55,0.83,0.7,1.38l0.01,0.03c0.16,0.59,0.19,1.15,0.08,1.66c-0.11,0.52-0.31,0.98-0.62,1.39
		c-0.31,0.41-0.7,0.76-1.18,1.05c-0.48,0.29-1,0.52-1.58,0.68l-2.97,0.81l1.16,4.22l-0.82,0.22L611.23,1168.89z M616.8,1174.17
		c0.51-0.14,0.96-0.33,1.35-0.58c0.38-0.25,0.69-0.53,0.92-0.86c0.23-0.33,0.38-0.68,0.46-1.08c0.07-0.39,0.05-0.8-0.07-1.22
		l-0.01-0.03c-0.12-0.45-0.32-0.83-0.57-1.13c-0.26-0.3-0.56-0.52-0.92-0.67c-0.36-0.15-0.75-0.22-1.2-0.23
		c-0.44-0.01-0.91,0.06-1.4,0.19l-3.11,0.85l1.53,5.58L616.8,1174.17z"/>
	<path fill="#FFFFFF" d="M621.72,1166.01l4.62-1.27c0.68-0.19,1.31-0.25,1.89-0.2c0.58,0.06,1.08,0.21,1.51,0.46
		c0.34,0.2,0.63,0.46,0.87,0.78c0.25,0.32,0.42,0.69,0.54,1.1l0.01,0.03c0.13,0.48,0.17,0.92,0.11,1.34
		c-0.06,0.42-0.2,0.8-0.41,1.15c-0.21,0.35-0.49,0.66-0.84,0.93c-0.35,0.28-0.74,0.51-1.19,0.7l4.96,3.84l-1.04,0.28l-4.79-3.73
		l-0.03,0.01l-3.57,0.98l1.29,4.69l-0.82,0.22L621.72,1166.01z M627.86,1170.63c0.46-0.13,0.87-0.3,1.23-0.53
		c0.36-0.23,0.65-0.49,0.87-0.79c0.22-0.3,0.37-0.63,0.45-1c0.07-0.36,0.06-0.75-0.06-1.16l-0.01-0.03
		c-0.21-0.77-0.65-1.3-1.32-1.59c-0.67-0.29-1.51-0.3-2.52-0.02l-3.75,1.03l1.4,5.11L627.86,1170.63z"/>
	<path fill="#FFFFFF" d="M641.27,1173.02c-0.84,0.23-1.64,0.28-2.4,0.15c-0.76-0.13-1.46-0.4-2.09-0.8
		c-0.63-0.4-1.17-0.92-1.62-1.54c-0.45-0.63-0.79-1.33-1-2.11l-0.01-0.03c-0.21-0.78-0.28-1.55-0.21-2.33s0.28-1.5,0.61-2.17
		c0.33-0.67,0.8-1.26,1.39-1.77c0.59-0.5,1.31-0.87,2.15-1.1c0.83-0.23,1.62-0.27,2.39-0.14c0.77,0.13,1.47,0.4,2.09,0.8
		c0.63,0.4,1.17,0.92,1.62,1.55c0.45,0.63,0.79,1.33,1,2.11c0.01,0.01,0.02,0.02,0.01,0.03c0.21,0.78,0.28,1.55,0.21,2.33
		c-0.07,0.78-0.28,1.51-0.61,2.18c-0.33,0.67-0.8,1.26-1.4,1.77C642.81,1172.43,642.1,1172.79,641.27,1173.02z M641.09,1172.25
		c0.68-0.19,1.27-0.49,1.77-0.91c0.5-0.42,0.89-0.92,1.18-1.49s0.46-1.2,0.52-1.87s0-1.37-0.2-2.07l-0.01-0.03
		c-0.19-0.7-0.49-1.33-0.9-1.88c-0.41-0.56-0.88-1.01-1.42-1.35c-0.54-0.34-1.13-0.57-1.78-0.68c-0.65-0.11-1.32-0.07-2,0.11
		c-0.68,0.19-1.27,0.49-1.77,0.91c-0.5,0.42-0.89,0.92-1.18,1.49c-0.29,0.57-0.46,1.2-0.52,1.87c-0.06,0.68,0,1.37,0.2,2.07
		l0.01,0.03c0.19,0.7,0.49,1.33,0.9,1.89c0.41,0.55,0.88,1.01,1.42,1.35c0.54,0.34,1.14,0.57,1.78,0.68
		C639.75,1172.48,640.41,1172.44,641.09,1172.25z"/>
	<path fill="#FFFFFF" d="M645.49,1159.48l0.91-0.25l7.16,9.23l1.46-11.6l0.86-0.24l-1.71,12.73l-0.72,0.2L645.49,1159.48z"/>
	<path fill="#FFFFFF" d="M658.33,1155.96l0.82-0.22l3.11,11.32l-0.82,0.22L658.33,1155.96z"/>
	<path fill="#FFFFFF" d="M669.4,1165.27c-0.88,0.24-1.72,0.31-2.51,0.2c-0.79-0.11-1.6-0.37-2.42-0.8l0.36-0.78
		c0.39,0.21,0.75,0.38,1.11,0.51c0.36,0.13,0.71,0.22,1.06,0.26c0.35,0.05,0.71,0.06,1.07,0.04c0.36-0.03,0.75-0.09,1.16-0.21
		c0.41-0.11,0.77-0.27,1.09-0.48c0.31-0.21,0.56-0.45,0.75-0.71c0.19-0.26,0.31-0.56,0.37-0.87c0.06-0.31,0.05-0.63-0.04-0.95
		l-0.01-0.03c-0.08-0.3-0.2-0.56-0.35-0.77c-0.16-0.21-0.38-0.38-0.67-0.51s-0.65-0.22-1.1-0.26s-0.99-0.05-1.66-0.01
		c-0.7,0.04-1.31,0.03-1.83-0.03c-0.52-0.06-0.97-0.17-1.34-0.34c-0.37-0.17-0.67-0.41-0.89-0.7c-0.23-0.3-0.4-0.66-0.52-1.09
		l-0.01-0.03c-0.12-0.42-0.13-0.84-0.05-1.24c0.08-0.41,0.24-0.79,0.48-1.15c0.24-0.36,0.56-0.67,0.94-0.94
		c0.39-0.27,0.84-0.47,1.35-0.61c0.8-0.22,1.52-0.29,2.16-0.23c0.64,0.07,1.31,0.26,1.99,0.57l-0.34,0.81
		c-0.65-0.32-1.27-0.5-1.85-0.55c-0.58-0.05-1.18,0.01-1.79,0.18c-0.41,0.11-0.76,0.27-1.06,0.47c-0.3,0.2-0.54,0.44-0.72,0.69
		c-0.18,0.26-0.3,0.54-0.36,0.83c-0.05,0.29-0.04,0.58,0.04,0.88l0.01,0.03c0.08,0.3,0.2,0.56,0.36,0.78
		c0.16,0.22,0.38,0.4,0.67,0.53c0.29,0.14,0.67,0.23,1.13,0.27c0.46,0.05,1.04,0.05,1.73,0.01c1.35-0.08,2.38,0.05,3.08,0.38
		c0.7,0.34,1.16,0.92,1.39,1.75l0.01,0.03c0.12,0.45,0.15,0.9,0.07,1.33c-0.08,0.43-0.24,0.83-0.48,1.19
		c-0.24,0.36-0.57,0.67-0.97,0.94C670.4,1164.91,669.93,1165.12,669.4,1165.27z"/>
	<path fill="#FFFFFF" d="M672.69,1152.02l0.82-0.22l3.11,11.32l-0.82,0.22L672.69,1152.02z"/>
	<path fill="#FFFFFF" d="M685.07,1161c-0.84,0.23-1.64,0.28-2.4,0.15c-0.76-0.13-1.46-0.4-2.09-0.8c-0.63-0.4-1.17-0.92-1.62-1.54
		c-0.45-0.63-0.79-1.33-1-2.11l-0.01-0.03c-0.21-0.78-0.28-1.55-0.21-2.33c0.07-0.78,0.28-1.5,0.61-2.17
		c0.33-0.67,0.8-1.26,1.39-1.77c0.59-0.5,1.31-0.87,2.15-1.1c0.83-0.23,1.62-0.27,2.39-0.14c0.77,0.13,1.47,0.4,2.09,0.8
		c0.63,0.4,1.17,0.92,1.62,1.55c0.45,0.63,0.79,1.33,1,2.11c0.01,0.01,0.02,0.02,0.01,0.03c0.21,0.78,0.28,1.55,0.21,2.33
		c-0.07,0.78-0.28,1.51-0.61,2.18c-0.33,0.67-0.8,1.26-1.4,1.77C686.61,1160.41,685.9,1160.77,685.07,1161z M684.89,1160.23
		c0.68-0.19,1.27-0.49,1.77-0.91c0.5-0.42,0.89-0.92,1.18-1.49c0.29-0.57,0.46-1.2,0.52-1.87s0-1.37-0.2-2.07l-0.01-0.03
		c-0.19-0.7-0.49-1.33-0.9-1.88c-0.41-0.56-0.88-1.01-1.42-1.35c-0.54-0.34-1.13-0.57-1.78-0.68c-0.65-0.11-1.32-0.07-2,0.11
		c-0.68,0.19-1.27,0.49-1.77,0.91c-0.5,0.42-0.89,0.92-1.18,1.49c-0.29,0.57-0.46,1.2-0.52,1.87c-0.06,0.68,0,1.37,0.2,2.07
		l0.01,0.03c0.19,0.7,0.49,1.33,0.9,1.89c0.41,0.55,0.88,1.01,1.42,1.35c0.54,0.34,1.14,0.57,1.78,0.68
		C683.55,1160.46,684.21,1160.42,684.89,1160.23z"/>
	<path fill="#FFFFFF" d="M690.23,1147.2l0.77-0.21l10.29,7.77l-2.7-9.85l0.78-0.22l3.11,11.32l-0.61,0.17l-10.51-7.93l2.76,10.06
		l-0.79,0.22L690.23,1147.2z"/>
	<path fill="#FFFFFF" d="M706.8,1142.57l0.78-0.22l8.25,9.99l-0.9,0.25l-2.27-2.79l-6.49,1.78l-0.53,3.55l-0.85,0.23L706.8,1142.57z
		 M712.12,1149.14l-4.69-5.76l-1.11,7.35L712.12,1149.14z"/>
	<path fill="#FFFFFF" d="M715.06,1140.39l0.82-0.22l2.9,10.56l6.46-1.77l0.21,0.76l-7.27,2L715.06,1140.39z"/>
	<path fill="#FFFFFF" d="M736.37,1146.88c-0.88,0.24-1.71,0.31-2.5,0.2c-0.79-0.11-1.6-0.37-2.42-0.8l0.36-0.78
		c0.38,0.21,0.75,0.38,1.11,0.51c0.36,0.13,0.71,0.22,1.06,0.26c0.35,0.05,0.71,0.06,1.07,0.04c0.36-0.03,0.75-0.09,1.16-0.21
		c0.41-0.11,0.77-0.27,1.08-0.48c0.31-0.21,0.57-0.45,0.75-0.71c0.19-0.27,0.31-0.56,0.37-0.87c0.06-0.31,0.05-0.63-0.04-0.95
		l-0.01-0.03c-0.08-0.3-0.2-0.56-0.36-0.77c-0.15-0.21-0.38-0.38-0.66-0.51c-0.29-0.13-0.65-0.22-1.1-0.27s-0.99-0.05-1.66-0.01
		c-0.7,0.04-1.31,0.03-1.83-0.03c-0.52-0.06-0.97-0.17-1.34-0.34c-0.37-0.17-0.67-0.41-0.89-0.7c-0.23-0.3-0.4-0.66-0.52-1.09
		l-0.01-0.03c-0.12-0.42-0.13-0.84-0.05-1.25c0.08-0.41,0.24-0.79,0.48-1.15c0.24-0.36,0.55-0.67,0.94-0.94
		c0.39-0.27,0.84-0.47,1.35-0.61c0.79-0.22,1.52-0.29,2.16-0.23c0.64,0.07,1.31,0.26,1.99,0.57l-0.34,0.81
		c-0.65-0.32-1.27-0.5-1.85-0.55c-0.58-0.05-1.18,0.01-1.78,0.18c-0.41,0.11-0.76,0.27-1.06,0.47c-0.3,0.2-0.54,0.44-0.72,0.69
		c-0.18,0.26-0.3,0.54-0.35,0.83c-0.06,0.29-0.04,0.58,0.04,0.88l0.01,0.03c0.08,0.3,0.2,0.56,0.36,0.78
		c0.16,0.22,0.38,0.4,0.67,0.53c0.29,0.14,0.67,0.23,1.13,0.27c0.46,0.05,1.04,0.05,1.73,0.01c1.35-0.08,2.38,0.05,3.08,0.38
		s1.16,0.92,1.39,1.75l0.01,0.03c0.12,0.45,0.15,0.9,0.07,1.33c-0.08,0.43-0.24,0.83-0.49,1.19c-0.24,0.36-0.57,0.67-0.97,0.94
		C737.37,1146.53,736.9,1146.74,736.37,1146.88z"/>
	<path fill="#FFFFFF" d="M747.69,1143.81c-0.79,0.22-1.56,0.26-2.31,0.15c-0.75-0.12-1.45-0.37-2.08-0.76
		c-0.63-0.39-1.18-0.9-1.65-1.54c-0.47-0.64-0.81-1.36-1.03-2.17l-0.01-0.03c-0.22-0.8-0.29-1.59-0.2-2.38
		c0.08-0.79,0.29-1.52,0.63-2.18c0.34-0.67,0.8-1.25,1.39-1.74c0.59-0.49,1.28-0.85,2.07-1.07c0.49-0.13,0.95-0.21,1.37-0.24
		c0.42-0.02,0.83,0,1.21,0.07c0.38,0.07,0.76,0.17,1.12,0.31c0.36,0.14,0.72,0.31,1.07,0.5l-0.41,0.77
		c-0.31-0.17-0.62-0.32-0.94-0.45c-0.32-0.13-0.65-0.23-0.98-0.3s-0.7-0.09-1.07-0.08c-0.37,0.01-0.77,0.07-1.17,0.18
		c-0.66,0.18-1.24,0.48-1.73,0.89c-0.49,0.41-0.89,0.91-1.17,1.48c-0.29,0.57-0.47,1.2-0.53,1.88s0,1.37,0.19,2.09l0.01,0.03
		c0.2,0.71,0.5,1.34,0.91,1.9c0.41,0.55,0.89,1,1.43,1.35c0.54,0.34,1.13,0.57,1.77,0.68c0.64,0.11,1.29,0.07,1.95-0.11
		c0.8-0.22,1.44-0.56,1.95-1.02c0.5-0.46,0.96-1.06,1.35-1.78l0.7,0.4c-0.21,0.37-0.44,0.72-0.68,1.05
		c-0.24,0.33-0.51,0.63-0.82,0.89c-0.3,0.27-0.65,0.51-1.03,0.72C748.6,1143.51,748.17,1143.68,747.69,1143.81z"/>
	<path fill="#FFFFFF" d="M751.14,1130.48l0.82-0.22l1.44,5.26l7.04-1.93l-1.44-5.26l0.82-0.22l3.11,11.32l-0.82,0.22l-1.46-5.3
		l-7.04,1.93l1.46,5.3l-0.82,0.22L751.14,1130.48z"/>
	<path fill="#FFFFFF" d="M763.08,1127.2l7.82-2.15l0.21,0.76l-7.01,1.92l1.23,4.48l6.3-1.73l0.21,0.76l-6.3,1.73l1.25,4.56
		l7.08-1.94l0.21,0.76l-7.9,2.17L763.08,1127.2z"/>
	<path fill="#FFFFFF" d="M773.61,1124.32l3.66-1c0.86-0.24,1.69-0.31,2.48-0.22c0.8,0.09,1.52,0.31,2.18,0.68
		c0.66,0.36,1.22,0.85,1.69,1.46c0.47,0.61,0.82,1.31,1.04,2.11l0.01,0.03c0.22,0.8,0.28,1.58,0.19,2.35
		c-0.09,0.77-0.33,1.48-0.71,2.13c-0.38,0.65-0.89,1.22-1.53,1.71c-0.64,0.49-1.39,0.85-2.24,1.08l-3.66,1L773.61,1124.32z
		 M780.17,1133.87c0.76-0.21,1.42-0.53,1.97-0.95c0.55-0.42,0.98-0.91,1.29-1.47c0.31-0.56,0.5-1.16,0.58-1.82s0.02-1.32-0.17-2
		l-0.01-0.03c-0.18-0.67-0.48-1.27-0.87-1.8c-0.4-0.53-0.87-0.96-1.43-1.28c-0.55-0.33-1.17-0.53-1.86-0.62
		c-0.69-0.09-1.42-0.03-2.18,0.18l-2.84,0.78l2.69,9.8L780.17,1133.87z"/>
	<path fill="#FFFFFF" d="M793.39,1131.25c-0.66,0.18-1.29,0.24-1.9,0.18c-0.61-0.06-1.17-0.24-1.69-0.55
		c-0.52-0.3-0.97-0.73-1.35-1.27c-0.39-0.54-0.69-1.21-0.91-2.01l-1.82-6.61l0.82-0.22l1.79,6.53c0.37,1.35,0.98,2.3,1.84,2.84
		c0.86,0.55,1.87,0.66,3.04,0.34c0.56-0.15,1.03-0.38,1.44-0.67c0.4-0.3,0.72-0.66,0.94-1.09c0.22-0.43,0.35-0.93,0.38-1.5
		c0.03-0.57-0.05-1.19-0.23-1.87l-1.82-6.61l0.82-0.22l1.79,6.52c0.22,0.81,0.31,1.55,0.26,2.23c-0.05,0.68-0.22,1.29-0.5,1.81
		c-0.28,0.53-0.67,0.98-1.16,1.34C794.64,1130.79,794.06,1131.07,793.39,1131.25z"/>
	<path fill="#FFFFFF" d="M797.84,1117.67l0.82-0.22l2.9,10.56l6.46-1.77l0.21,0.76l-7.27,2L797.84,1117.67z"/>
	<path fill="#FFFFFF" d="M807.56,1115l7.82-2.15l0.21,0.76l-7.01,1.92l1.23,4.48l6.3-1.73l0.21,0.76l-6.3,1.73l1.25,4.56l7.09-1.94
		l0.21,0.76l-7.9,2.17L807.56,1115z"/>
</g>
</svg>
