<?xml version="1.0" encoding="utf-8"?>
<!-- Generator: Adobe Illustrator 19.1.0, SVG Export Plug-In . SVG Version: 6.00 Build 0)  -->
<svg version="1.1" id="Layer_1" xmlns="http://www.w3.org/2000/svg" xmlns:xlink="http://www.w3.org/1999/xlink" x="0px" y="0px"
	 viewBox="0 0 150 140.3" style="enable-background:new 0 0 150 140.3;" xml:space="preserve">
<style type="text/css">
	.st0{fill:#5E5E5E;}
	.st1{fill:#FFFFFF;}
	.st2{fill:#BEC945;}
	.st3{fill:#E466A1;}
	.st4{fill:#36B7BC;}
	.st5{fill:none;stroke:#FFFFFF;stroke-linecap:round;stroke-miterlimit:10;}
	.st6{fill:none;stroke:#FFFFFF;stroke-linecap:round;stroke-miterlimit:10;stroke-dasharray:0,1.9982;}
	.st7{fill:none;stroke:#575756;stroke-linecap:round;stroke-miterlimit:10;}
	.st8{fill:none;stroke:#575756;stroke-linecap:round;stroke-miterlimit:10;stroke-dasharray:0,2;}
	.st9{fill:#575756;}
	.st10{opacity:0.15;}
	.st11{clip-path:url(#SVGID_2_);}
	.st12{fill:#E5007E;}
	.st13{fill:none;stroke:#FFFFFF;stroke-width:1.6159;stroke-miterlimit:10;}
	.st14{fill:#3C3C3B;}
	.st15{clip-path:url(#SVGID_4_);}
	.st16{clip-path:url(#_448054032_9_);}
	.st17{clip-path:url(#_448054032_10_);}
	.st18{clip-path:url(#_376300088_5_);}
	.st19{clip-path:url(#SVGID_6_);fill:#36B7BC;}
	.st20{clip-path:url(#SVGID_6_);fill:#E466A1;}
	.st21{clip-path:url(#SVGID_6_);}
	.st22{clip-path:url(#SVGID_8_);}
	.st23{fill:#2A2A2A;}
	.st24{fill:none;}
	.st25{clip-path:url(#SVGID_10_);}
	.st26{clip-path:url(#SVGID_12_);fill:#36B7BC;}
	.st27{clip-path:url(#SVGID_12_);fill:#E466A1;}
	.st28{clip-path:url(#SVGID_12_);}
	.st29{clip-path:url(#_376302392_6_);}
	.st30{clip-path:url(#_376304864_6_);}
	.st31{fill:none;stroke:#575756;stroke-linecap:round;stroke-miterlimit:10;stroke-dasharray:0,2.029;}
	.st32{fill:none;stroke:#575756;stroke-linecap:round;stroke-miterlimit:10;stroke-dasharray:0,1.9959;}
	.st33{fill:none;stroke:#575756;stroke-linecap:round;stroke-miterlimit:10;stroke-dasharray:0,1.9956;}
</style>
<g>
	<g>
		<polygon class="st3" points="59.2,35.2 70.1,46.7 75,35.6 75,26.7 		"/>
		<polygon class="st3" points="90.8,35.2 79.9,46.7 75,35.6 75,26.7 		"/>
		<polygon id="_377572792_8_" class="st3" points="55.1,37.6 59.6,52.8 47.5,51.5 39.8,47 		"/>
		<polygon id="_372230688_8_" class="st3" points="55.1,104.6 59.6,89.4 47.5,90.8 39.8,95.2 		"/>
		<polygon id="_376306592_8_" class="st3" points="90.8,107 79.9,95.5 75,106.7 75,115.6 		"/>
		<polygon id="_376294064_8_" class="st3" points="59.2,107 70.1,95.5 75,106.7 75,115.6 		"/>
		<polygon id="_376300160_8_" class="st3" points="94.9,104.6 90.4,89.4 102.5,90.8 110.2,95.2 		"/>
		<polygon id="_374223960_8_" class="st3" points="94.9,37.6 90.4,52.8 102.5,51.5 110.2,47 		"/>
		<polygon class="st2" points="75,26.7 56.9,8.5 75,19.7 		"/>
		<polygon class="st2" points="75,26.7 93.1,8.5 75,19.7 		"/>
		<polygon id="_377572696_8_" class="st2" points="39.8,47 15,53.6 33.7,43.5 		"/>
		<polygon id="_377572720_8_" class="st2" points="39.8,47 33.1,22.2 33.7,43.5 		"/>
		<polygon id="_372230592_7_" class="st2" points="39.8,95.2 33.1,120 33.7,98.7 		"/>
		<polygon id="_372230616_7_" class="st2" points="39.8,95.2 15,88.6 33.7,98.7 		"/>
		<polygon id="_376302320_7_" class="st2" points="75,115.6 93.1,133.7 75,122.5 		"/>
		<polygon id="_376306376_7_" class="st2" points="75,115.6 56.9,133.7 75,122.5 		"/>
		<polygon id="_376299176_7_" class="st2" points="110.2,95.2 135,88.6 116.3,98.7 		"/>
		<polygon id="_376299080_7_" class="st2" points="110.2,95.2 116.9,120 116.3,98.7 		"/>
		<polygon id="_374223288_8_" class="st2" points="110.2,47 116.9,22.2 116.3,43.5 		"/>
		<polygon id="_374223456_8_" class="st2" points="110.2,47 135,53.6 116.3,43.5 		"/>
	</g>
	<g>
		<g>
			<g>
				<path class="st14" d="M62.8,61.8c8.3,0,16.6,0,24.8,0c0,0,0,0,0,0.1c-3.8,3.8-7.7,7.7-11.5,11.5c-0.1,0.1-0.2,0.2-0.4,0.3
					c-0.4,0.2-0.9,0.2-1.3-0.2c-2.6-2.6-5.2-5.2-7.8-7.8C65.3,64.3,64.1,63.1,62.8,61.8C62.8,61.8,62.8,61.8,62.8,61.8z"/>
				<path class="st14" d="M62.8,81.6C62.8,81.6,62.8,81.6,62.8,81.6c1-1,2-2,3-3c1.8-1.8,3.6-3.6,5.3-5.3c0,0,0.1,0,0.1,0
					c0.5,0.5,1.1,1,1.6,1.6c0.3,0.3,0.6,0.5,0.9,0.7c0.5,0.2,0.9,0.4,1.4,0.4c0.6,0,1.2-0.2,1.7-0.5c0.3-0.2,0.5-0.3,0.8-0.6
					c0.5-0.5,1.1-1.1,1.6-1.6c0,0,0.1,0,0.1,0c2.8,2.8,5.5,5.5,8.3,8.3c0,0,0,0,0,0.1C79.3,81.6,71.1,81.6,62.8,81.6z"/>
				<path class="st14" d="M61.2,63.3C61.2,63.3,61.2,63.4,61.2,63.3c2.8,2.8,5.6,5.6,8.3,8.3c0,0,0,0,0,0c0,0,0,0-0.1,0.1
					c-2.8,2.8-5.5,5.5-8.3,8.3c0,0,0,0.1-0.1,0C61.2,74.5,61.2,68.9,61.2,63.3z"/>
				<path class="st14" d="M89.2,80.1C89.2,80.1,89.2,80,89.2,80.1c-2.8-2.8-5.6-5.6-8.3-8.3c0,0,0,0,0,0c0,0,0,0,0.1,0
					c2.8-2.8,5.5-5.5,8.3-8.3c0,0,0,0,0.1,0C89.2,68.9,89.2,74.5,89.2,80.1z"/>
			</g>
		</g>
	</g>
</g>
</svg>
