<?xml version="1.0" encoding="utf-8"?>
<!-- Generator: Adobe Illustrator 19.1.0, SVG Export Plug-In . SVG Version: 6.00 Build 0)  -->
<svg version="1.1" id="Layer_1" xmlns="http://www.w3.org/2000/svg" xmlns:xlink="http://www.w3.org/1999/xlink" x="0px" y="0px"
	 viewBox="0 0 150 140.3" style="enable-background:new 0 0 150 140.3;" xml:space="preserve">
<style type="text/css">
	.st0{fill:#5E5E5E;}
	.st1{fill:#FFFFFF;}
	.st2{fill:#BEC945;}
	.st3{fill:#E466A1;}
	.st4{fill:#36B7BC;}
	.st5{fill:none;stroke:#FFFFFF;stroke-linecap:round;stroke-miterlimit:10;}
	.st6{fill:none;stroke:#FFFFFF;stroke-linecap:round;stroke-miterlimit:10;stroke-dasharray:0,1.9982;}
	.st7{fill:none;stroke:#575756;stroke-linecap:round;stroke-miterlimit:10;}
	.st8{fill:none;stroke:#575756;stroke-linecap:round;stroke-miterlimit:10;stroke-dasharray:0,2;}
	.st9{fill:#575756;}
	.st10{opacity:0.15;}
	.st11{clip-path:url(#SVGID_2_);}
	.st12{fill:#E5007E;}
	.st13{fill:none;stroke:#FFFFFF;stroke-width:1.6159;stroke-miterlimit:10;}
	.st14{fill:#3C3C3B;}
	.st15{clip-path:url(#SVGID_4_);}
	.st16{clip-path:url(#_448054032_9_);}
	.st17{clip-path:url(#_448054032_10_);}
	.st18{clip-path:url(#_376300088_5_);}
	.st19{clip-path:url(#SVGID_6_);fill:#36B7BC;}
	.st20{clip-path:url(#SVGID_6_);fill:#E466A1;}
	.st21{clip-path:url(#SVGID_6_);}
	.st22{clip-path:url(#SVGID_8_);}
	.st23{fill:#2A2A2A;}
	.st24{fill:none;}
	.st25{clip-path:url(#SVGID_10_);}
	.st26{clip-path:url(#SVGID_12_);fill:#36B7BC;}
	.st27{clip-path:url(#SVGID_12_);fill:#E466A1;}
	.st28{clip-path:url(#SVGID_12_);}
	.st29{clip-path:url(#_376302392_6_);}
	.st30{clip-path:url(#_376304864_6_);}
	.st31{fill:none;stroke:#575756;stroke-linecap:round;stroke-miterlimit:10;stroke-dasharray:0,2.029;}
	.st32{fill:none;stroke:#575756;stroke-linecap:round;stroke-miterlimit:10;stroke-dasharray:0,1.9959;}
	.st33{fill:none;stroke:#575756;stroke-linecap:round;stroke-miterlimit:10;stroke-dasharray:0,1.9956;}
</style>
<g class="st10">
	<defs>
		<polygon id="SVGID_3_" class="st10" points="952.6,320.3 110.7,320.3 112.6,250.5 954.5,250.5 		"/>
	</defs>
	<clipPath id="SVGID_2_">
		<use xlink:href="#SVGID_3_"  style="overflow:visible;"/>
	</clipPath>
</g>
<g>
	<g>
		<polygon class="st4" points="59.9,34.6 70.3,45.6 75,34.9 75,26.4 		"/>
		<polygon class="st4" points="90.1,34.6 79.7,45.6 75,34.9 75,26.4 		"/>
		<polygon id="_377572792_9_" class="st4" points="55.9,36.9 60.2,51.4 48.6,50.1 41.3,45.8 		"/>
		<polygon id="_372230688_9_" class="st4" points="55.9,101 60.2,86.5 48.6,87.7 41.3,92 		"/>
		<polygon id="_376306592_9_" class="st4" points="90.1,103.3 79.7,92.3 75,103 75,111.5 		"/>
		<polygon id="_376294064_9_" class="st4" points="59.9,103.3 70.3,92.3 75,103 75,111.5 		"/>
		<polygon id="_376300160_9_" class="st4" points="94.1,101 89.8,86.5 101.4,87.7 108.7,92 		"/>
		<polygon id="_374223960_9_" class="st4" points="94.1,36.9 89.8,51.4 101.4,50.1 108.7,45.8 		"/>
		<polygon class="st2" points="75,26.4 57.6,9 75,19.7 		"/>
		<polygon class="st2" points="75,26.4 92.4,9 75,19.7 		"/>
		<polygon id="_377572696_9_" class="st2" points="41.3,45.8 17.6,52.2 35.5,42.5 		"/>
		<polygon id="_377572720_9_" class="st2" points="41.3,45.8 34.9,22.1 35.5,42.5 		"/>
		<polygon id="_372230592_9_" class="st2" points="41.3,92 34.9,115.7 35.5,95.3 		"/>
		<polygon id="_372230616_9_" class="st2" points="41.3,92 17.6,85.6 35.5,95.3 		"/>
		<polygon id="_376302320_9_" class="st2" points="75,111.5 92.4,128.8 75,118.1 		"/>
		<polygon id="_376306376_9_" class="st2" points="75,111.5 57.6,128.8 75,118.1 		"/>
		<polygon id="_376299176_9_" class="st2" points="108.7,92 132.4,85.6 114.5,95.3 		"/>
		<polygon id="_376299080_9_" class="st2" points="108.7,92 115.1,115.7 114.5,95.3 		"/>
		<polygon id="_374223288_9_" class="st2" points="108.7,45.8 115.1,22.1 114.5,42.5 		"/>
		<polygon id="_374223456_9_" class="st2" points="108.7,45.8 132.4,52.2 114.5,42.5 		"/>
	</g>
	<path class="st9" d="M87,62.6c-0.9,0.4-1.9,0.7-2.9,0.8c1-0.6,1.8-1.6,2.2-2.8c-1,0.6-2.1,1-3.2,1.2c-0.9-1-2.2-1.6-3.7-1.6
		c-2.8,0-5,2.3-5,5c0,0.4,0,0.8,0.1,1.1c-4.2-0.2-7.9-2.2-10.4-5.3c-0.4,0.7-0.7,1.6-0.7,2.5c0,1.7,0.9,3.3,2.2,4.2
		c-0.8,0-1.6-0.3-2.3-0.6v0.1c0,2.4,1.7,4.5,4,4.9c-0.4,0.1-0.9,0.2-1.3,0.2c-0.3,0-0.6,0-0.9-0.1c0.6,2,2.5,3.5,4.7,3.5
		C68.2,77.1,66,78,63.6,78c-0.4,0-0.8,0-1.2-0.1c2.2,1.4,4.9,2.3,7.7,2.3c9.3,0,14.3-7.7,14.3-14.3c0-0.2,0-0.4,0-0.7
		C85.5,64.5,86.3,63.6,87,62.6"/>
</g>
</svg>
