<svg version="1.1" id="Layer_1" xmlns="http://www.w3.org/2000/svg" xmlns:xlink="http://www.w3.org/1999/xlink" x="0px" y="0px"
	 viewBox="0 0 144 43" style="enable-background:new 0 0 144 43;" xml:space="preserve">
<style type="text/css">
	.st0{fill:#FFFFFF;}
	.st1{fill:#BEC945;}
	.st2{fill:#E466A1;}
	.st3{fill:#36B7BC;}
</style>
<g>
	<path class="st0" d="M8.5,27.2c-1.3-1.3-2-2.9-2-4.8s0.7-3.5,2-4.8s2.9-2,4.8-2c0.9,0,1.8,0.2,2.6,0.5L15.2,18
		c-0.6-0.3-1.2-0.4-1.9-0.4c-1.3,0-2.4,0.5-3.4,1.4C9,19.9,8.6,21,8.6,22.4S9,24.8,10,25.7s2.1,1.4,3.4,1.4c0.4,0,0.8-0.1,1.2-0.2
		v-3.6h-2.2v-2h4.2v7L16,28.6c-0.8,0.4-1.7,0.5-2.7,0.5C11.5,29.1,9.9,28.5,8.5,27.2z"/>
	<path class="st0" d="M27.6,29h-2.3l-2.9-5.6h-2.3V29h-2V15.7H23c1.1,0,2,0.4,2.7,1.1c0.8,0.7,1.1,1.7,1.1,2.7
		c0,0.8-0.2,1.5-0.7,2.1c-0.4,0.6-1,1.1-1.7,1.4L27.6,29z M23,21.4c0.5,0,0.9-0.2,1.3-0.5c0.4-0.4,0.5-0.8,0.5-1.3
		c0-0.5-0.2-0.9-0.5-1.3c-0.4-0.4-0.8-0.5-1.3-0.5h-2.9v3.7H23z"/>
	<path class="st0" d="M43.2,29h-2V15.7h4.9c1.1,0,2,0.4,2.7,1.1c0.8,0.7,1.1,1.7,1.1,2.7c0,1.1-0.4,2-1.1,2.7
		c-0.7,0.7-1.7,1.1-2.7,1.1h-2.9V29z M43.2,21.4h2.9c0.5,0,0.9-0.2,1.3-0.5c0.4-0.4,0.5-0.8,0.5-1.3c0-0.5-0.2-0.9-0.5-1.3
		c-0.4-0.4-0.8-0.5-1.3-0.5h-2.9V21.4z"/>
	<path class="st0" d="M61,15.7V29h-2v-5.7h-5.4V29h-2V15.7h2v5.6H59v-5.6H61z"/>
	<path class="st0" d="M65.2,29h-2V15.7h2V29z"/>
	<path class="st0" d="M73.6,27.1c0.8,0,1.6-0.2,2.3-0.6v2.2c-0.7,0.3-1.5,0.4-2.3,0.4c-1.9,0-3.5-0.7-4.8-2c-1.3-1.3-2-2.9-2-4.8
		s0.7-3.5,2-4.8c1.3-1.3,2.9-2,4.8-2c0.8,0,1.5,0.1,2.3,0.4v2.2c-0.7-0.4-1.5-0.6-2.3-0.6c-1.3,0-2.4,0.5-3.4,1.4
		c-0.9,0.9-1.4,2.1-1.4,3.4s0.5,2.4,1.4,3.4S72.3,27.1,73.6,27.1z"/>
	<path class="st0" d="M87.7,15.7V29h-2v-3.1h-4.5l-2,3.1h-2.4l8.4-13.3H87.7z M82.4,23.9h3.2v-5.1L82.4,23.9z"/>
	<path class="st0" d="M92,15.7V27h4.8v2H90V15.7H92z"/>
	<g>
		<path class="st1" d="M120.1,15.6L111.6,29H110V17.9L103,29h-1.6V15.6h1.2v11.7l7.4-11.7h1.2v11.7l7.4-11.7H120.1z"/>
		<path class="st1" d="M127.8,15.6v1.2h-5.6v4.8h4.4v1.2h-4.4v4.9h5.6V29H121V15.6H127.8z"/>
		<path class="st1" d="M128.9,29V15.6h4c1,0,1.9,0.4,2.6,1.1c0.7,0.7,1.1,1.6,1.1,2.6c0,1.1-0.4,2-1.3,2.8c0.6,0.3,1.1,0.7,1.5,1.3
			c0.4,0.6,0.6,1.3,0.6,2c0,1-0.4,1.9-1.1,2.6c-0.7,0.7-1.6,1.1-2.6,1.1H128.9z M130.1,21.6h2.8c0.7,0,1.2-0.2,1.7-0.7
			c0.5-0.5,0.7-1,0.7-1.7c0-0.7-0.2-1.2-0.7-1.7c-0.5-0.5-1-0.7-1.7-0.7h-2.8V21.6z M130.1,27.7h3.6c0.7,0,1.2-0.2,1.7-0.7
			c0.5-0.5,0.7-1.1,0.7-1.7c0-0.7-0.2-1.2-0.7-1.7c-0.5-0.5-1.1-0.7-1.7-0.7h-3.6V27.7z"/>
	</g>
	<polygon class="st2" points="39.3,13.7 27.6,31.7 37.7,28.5 	"/>
</g>
</svg>
