<?xml version="1.0" encoding="utf-8"?>
<!-- Generator: Adobe Illustrator 19.1.0, SVG Export Plug-In . SVG Version: 6.00 Build 0)  -->
<svg version="1.1" id="Layer_1" xmlns="http://www.w3.org/2000/svg" xmlns:xlink="http://www.w3.org/1999/xlink" x="0px" y="0px"
	 viewBox="0 0 207 222" style="enable-background:new 0 0 207 222;" xml:space="preserve">
<style type="text/css">
	.st0{fill:#FFFFFF;}
	.st1{fill:#BEC945;}
	.st2{fill:#E466A1;}
	.st3{fill:#36B7BC;}
</style>
<g>
	<polygon class="st2" points="102.3,13.5 99.3,8.8 102.3,6.9 	"/>
	<polygon class="st2" points="102.3,13.5 105.3,8.8 102.3,6.9 	"/>
</g>
<g>
	<polygon id="_438677864_12_" class="st2" points="14.6,162.3 12.1,167.3 8.9,165.6 	"/>
	<polygon id="_438677888_12_" class="st2" points="14.6,162.3 9,162 8.9,165.6 	"/>
</g>
<g>
	<polygon id="_376294400_12_" class="st2" points="190.8,162.3 196.4,162 196.5,165.6 	"/>
	<polygon id="_376294568_12_" class="st2" points="190.8,162.3 193.3,167.3 196.5,165.6 	"/>
</g>
<polygon class="st3" points="83.9,36 101.4,53.6 101.4,25.8 "/>
<polygon class="st3" points="119,36 101.4,53.6 101.4,25.8 "/>
<polygon class="st3" points="83.9,36 87.6,67.4 77.2,54.9 "/>
<polygon class="st3" points="119,36 115.3,67.4 125.7,54.9 "/>
<polygon id="_375375696_11_" class="st3" points="26.7,89.3 50.7,82.9 26.6,69 "/>
<polygon id="_375375720_11_" class="st3" points="44.3,58.9 50.7,82.9 26.6,69 "/>
<polygon id="_375375816_11_" class="st3" points="44.3,58.9 69.6,77.8 63.9,62.6 "/>
<polygon id="_438677912_11_" class="st3" points="44.3,165.5 50.7,141.5 26.6,155.4 "/>
<polygon id="_438677936_11_" class="st3" points="26.7,135 50.7,141.5 26.6,155.4 "/>
<polygon id="_438678008_11_" class="st3" points="44.3,165.5 69.6,146.5 63.9,161.8 "/>
<polygon id="_376302392_11_" class="st3" points="119,188.4 101.4,170.7 101.4,198.6 "/>
<polygon id="_376304864_11_" class="st3" points="83.9,188.4 101.4,170.7 101.4,198.6 "/>
<polygon id="_376304384_11_" class="st3" points="119,188.4 115.3,157 125.7,169.5 "/>
<polygon id="_376304432_11_" class="st3" points="83.9,188.4 87.6,157 77.2,169.5 "/>
<polygon id="_376293872_11_" class="st3" points="176.2,135 152.2,141.5 176.3,155.4 "/>
<polygon id="_376293200_11_" class="st3" points="158.6,165.5 152.2,141.5 176.3,155.4 "/>
<polygon id="_376300088_11_" class="st3" points="158.6,165.5 133.3,146.5 139,161.8 "/>
<polygon id="_374221608_11_" class="st3" points="158.6,58.9 152.2,82.9 176.3,69 "/>
<polygon id="_374221776_11_" class="st3" points="176.2,89.3 152.2,82.9 176.3,69 "/>
<polygon id="_374222280_11_" class="st3" points="158.6,58.9 133.3,77.8 139,62.6 "/>
<polygon id="_446189792_11_" class="st3" points="125.9,34.7 132.3,58.8 146.2,34.7 "/>
<polygon id="_446189624_11_" class="st3" points="156.3,52.3 132.3,58.8 146.2,34.7 "/>
<polygon id="_448054032_11_" class="st3" points="46.6,52.3 70.6,58.8 56.7,34.7 "/>
<polygon id="_375838080_11_" class="st3" points="77,34.7 70.6,58.8 56.7,34.7 "/>
<polygon id="_374226552_11_" class="st3" points="77,189.7 70.6,165.6 56.7,189.7 "/>
<polygon id="_379020712_11_" class="st3" points="46.6,172.1 70.6,165.6 56.7,189.7 "/>
<polygon id="_379003696_11_" class="st3" points="156.3,172.1 132.3,165.6 146.2,189.7 "/>
<polygon id="_379003744_11_" class="st3" points="125.9,189.7 132.3,165.6 146.2,189.7 "/>
<g>
	<polygon class="st1" points="102.4,23.8 88.6,10 102.4,18.5 	"/>
	<polygon class="st1" points="102.4,23.8 116.2,10 102.4,18.5 	"/>
</g>
<path class="st0" d="M6.8,116.8c-2.9-2.9-4.4-6.5-4.4-10.6s1.5-7.7,4.4-10.6s6.5-4.4,10.6-4.4c2,0,4,0.4,5.8,1.2l-1.7,4.1
	c-1.3-0.6-2.7-0.8-4.1-0.8c-2.9,0-5.4,1-7.4,3.1c-2.1,2.1-3.1,4.5-3.1,7.4s1,5.4,3.1,7.4s4.5,3.1,7.4,3.1c0.9,0,1.9-0.1,2.7-0.3v-8
	h-4.8v-4.5h9.2v15.5l-1.4,0.6c-1.9,0.8-3.8,1.2-5.9,1.2C13.3,121.2,9.7,119.7,6.8,116.8z"/>
<path class="st0" d="M48.7,120.9h-5l-6.4-12.4h-5v12.4h-4.5V91.5h10.8c2.3,0,4.3,0.8,6,2.5c1.7,1.7,2.5,3.7,2.5,6
	c0,1.7-0.5,3.3-1.5,4.7c-0.9,1.4-2.2,2.4-3.7,3.1L48.7,120.9z M38.7,104.1c1.1,0,2.1-0.4,2.9-1.2c0.8-0.8,1.2-1.7,1.2-2.8
	c0-1.1-0.4-2.1-1.2-2.9c-0.8-0.8-1.7-1.2-2.9-1.2h-6.4v8.1H38.7z"/>
<path class="st0" d="M83.3,120.9h-4.5V91.5h10.8c2.3,0,4.3,0.8,6,2.5c1.7,1.7,2.5,3.7,2.5,6c0,2.3-0.8,4.3-2.5,6
	c-1.7,1.7-3.7,2.5-6,2.5h-6.4V120.9z M83.3,104.1h6.4c1.1,0,2.1-0.4,2.9-1.2c0.8-0.8,1.2-1.7,1.2-2.8c0-1.1-0.4-2.1-1.2-2.9
	c-0.8-0.8-1.7-1.2-2.9-1.2h-6.4V104.1z"/>
<path class="st0" d="M122.6,91.5v29.3h-4.5v-12.5h-11.9v12.5h-4.5V91.6h4.5V104h11.9V91.5H122.6z"/>
<path class="st0" d="M131.8,120.9h-4.5V91.6h4.5V120.9z"/>
<path class="st0" d="M150.3,116.7c1.8,0,3.4-0.4,5-1.3v4.9c-1.6,0.6-3.3,0.9-5,0.9c-4.1,0-7.7-1.5-10.6-4.4s-4.4-6.5-4.4-10.6
	s1.5-7.7,4.4-10.6s6.5-4.4,10.6-4.4c1.7,0,3.4,0.3,5,0.8v4.9c-1.5-0.8-3.2-1.3-5-1.3c-2.9,0-5.4,1-7.4,3.1c-2.1,2.1-3.1,4.5-3.1,7.4
	s1,5.4,3.1,7.4S147.4,116.7,150.3,116.7z"/>
<path class="st0" d="M181.5,91.5v29.3H177V114h-10l-4.3,6.8h-5.3L176,91.5H181.5z M169.9,109.6h7.2V98.3L169.9,109.6z"/>
<path class="st0" d="M190.9,91.5v24.9h10.5v4.5h-15V91.5H190.9z"/>
<g>
	<path class="st0" d="M103.1,128.9l-13.3,21h-2.6v-17.4l-11,17.4h-2.6v-21h1.9v18.5l11.7-18.5h1.9v18.5l11.7-18.5H103.1z"/>
	<path class="st0" d="M115.2,128.9v1.9h-8.8v7.6h7v1.9h-7v7.6h8.8v1.9h-10.7v-21H115.2z"/>
	<path class="st0" d="M116.9,149.9v-21h6.3c1.6,0,2.9,0.6,4,1.7c1.1,1.1,1.7,2.5,1.7,4c0,1.7-0.7,3.2-2,4.4c1,0.5,1.8,1.2,2.4,2.1
		c0.6,0.9,0.9,2,0.9,3.1c0,1.6-0.6,3-1.7,4.1c-1.1,1.1-2.5,1.7-4.1,1.7H116.9z M118.8,138.4h4.4c1,0,1.9-0.4,2.7-1.1
		s1.1-1.6,1.1-2.7s-0.4-1.9-1.1-2.7c-0.7-0.7-1.6-1.1-2.7-1.1h-4.4V138.4z M118.8,148h5.6c1.1,0,2-0.4,2.7-1.1
		c0.7-0.8,1.1-1.7,1.1-2.7c0-1-0.4-1.9-1.1-2.7c-0.8-0.7-1.7-1.1-2.7-1.1h-5.6V148z"/>
</g>
<polygon class="st2" points="74.8,87 48.8,126.7 71.1,119.7 "/>
<g>
	<polygon class="st1" points="24.3,68.9 5.4,73.8 19.7,66.2 	"/>
	<polygon class="st1" points="24.3,68.9 19.4,50 19.7,66.2 	"/>
</g>
<g>
	<polygon class="st1" points="178.9,68.9 197.8,73.8 183.5,66.2 	"/>
	<polygon class="st1" points="178.9,68.9 183.8,50 183.5,66.2 	"/>
</g>
<g>
	<polygon class="st1" points="102.4,201.2 88.6,215 102.4,206.5 	"/>
	<polygon class="st1" points="102.4,201.2 116.2,215 102.4,206.5 	"/>
</g>
<g>
	<polygon class="st1" points="24.3,156.1 5.4,151.2 19.7,158.8 	"/>
	<polygon class="st1" points="24.3,156.1 19.4,175 19.7,158.8 	"/>
</g>
<g>
	<polygon class="st1" points="178.9,156.1 197.8,151.2 183.5,158.8 	"/>
	<polygon class="st1" points="178.9,156.1 183.8,175 183.5,158.8 	"/>
</g>
<g>
	<polygon class="st3" points="101.7,61.6 96.8,69.2 101.7,78.6 	"/>
	<polygon class="st3" points="101.7,61.6 106.5,69.2 101.7,78.6 	"/>
	<polygon id="_448053648_9_" class="st3" points="78.9,74.7 83.1,82.8 93.7,83.2 	"/>
	<polygon id="_377572744_9_" class="st3" points="78.9,74.7 88,74.3 93.7,83.2 	"/>
	<polygon id="_374223624_9_" class="st3" points="124.4,74.7 115.4,74.3 109.6,83.2 	"/>
	<polygon id="_374223792_9_" class="st3" points="124.4,74.7 120.2,82.8 109.6,83.2 	"/>
</g>
</svg>
