<?xml version="1.0" encoding="utf-8"?>
<!-- Generator: Adobe Illustrator 19.1.0, SVG Export Plug-In . SVG Version: 6.00 Build 0)  -->
<svg version="1.1" id="Layer_1" xmlns="http://www.w3.org/2000/svg" xmlns:xlink="http://www.w3.org/1999/xlink" x="0px" y="0px"
	 viewBox="0 0 842 1190.9" enable-background="new 0 0 842 1190.9" xml:space="preserve">
<rect x="0.99" y="1" fill="#5E5F5F" width="841.89" height="1190.55"/>
<g opacity="0.15">
	<defs>
		<polygon id="SVGID_1_" opacity="0.15" points="841,1195.26 -0.89,1195.26 0.99,1.82 842.88,1.82 		"/>
	</defs>
	<clipPath id="SVGID_2_">
		<use xlink:href="#SVGID_1_"  overflow="visible"/>
	</clipPath>
	<g clip-path="url(#SVGID_2_)">
		<polygon fill="#36B7BC" points="340.85,-116.16 269.67,-224.6 365.92,-202.18 		"/>
		<polygon fill="#36B7BC" points="504.76,-116.16 575.94,-224.6 479.68,-202.18 		"/>
		<polygon fill="#36B7BC" points="365.92,-202.18 422.81,-150.41 422.81,-122.15 409.43,-113.84 		"/>
		<polygon fill="#36B7BC" points="479.68,-202.18 422.81,-150.41 422.81,-122.15 436.17,-113.84 		"/>
		<polygon fill="#36B7BC" points="345.28,19.45 422.81,97.06 422.81,-25.66 		"/>
		<polygon fill="#36B7BC" points="500.33,19.45 422.81,97.06 422.81,-25.66 		"/>
		<polygon fill="#36B7BC" points="345.28,19.45 361.97,157.78 316.08,102.59 		"/>
		<polygon fill="#36B7BC" points="500.33,19.45 483.64,157.78 529.53,102.59 		"/>
		<polygon id="_377432192_1_" fill="#36B7BC" points="-26.31,190.45 -155.82,197.88 -88.28,125.73 		"/>
		<polygon id="_377432216_1_" fill="#36B7BC" points="55.63,48.51 -2.68,-67.35 -31.39,27.21 		"/>
		<polygon id="_377432288_1_" fill="#36B7BC" points="-88.28,125.73 -15,102.36 9.47,116.49 9.99,132.22 		"/>
		<polygon id="_377432312_1_" fill="#36B7BC" points="-31.39,27.21 -15,102.36 9.47,116.49 23.35,109.07 		"/>
		<polygon id="_375375696_1_" fill="#36B7BC" points="93.34,254.43 199.32,226.1 93.04,164.74 		"/>
		<polygon id="_375375720_1_" fill="#36B7BC" points="170.87,120.15 199.32,226.1 93.04,164.74 		"/>
		<polygon id="_375375816_1_" fill="#36B7BC" points="170.87,120.15 282.32,203.77 257.47,136.43 		"/>
		<polygon id="_379072240_1_" fill="#36B7BC" points="55.64,661.74 -2.68,777.6 -31.39,683.04 		"/>
		<polygon id="_379072264_1_" fill="#36B7BC" points="-26.31,519.8 -155.81,512.37 -88.27,584.52 		"/>
		<polygon id="_379072336_1_" fill="#36B7BC" points="-31.39,683.04 -14.99,607.89 9.47,593.76 23.36,601.19 		"/>
		<polygon id="_379072360_1_" fill="#36B7BC" points="-88.27,584.52 -14.99,607.89 9.48,593.76 9.99,578.03 		"/>
		<polygon id="_438677912_1_" fill="#36B7BC" points="170.87,590.1 199.32,484.16 93.04,545.52 		"/>
		<polygon id="_438677936_1_" fill="#36B7BC" points="93.35,455.82 199.32,484.16 93.04,545.52 		"/>
		<polygon id="_438678008_1_" fill="#36B7BC" points="170.87,590.1 282.32,506.49 257.47,573.82 		"/>
		<polygon id="_379001920_1_" fill="#36B7BC" points="504.76,826.41 575.95,934.85 479.69,912.43 		"/>
		<polygon id="_379001752_1_" fill="#36B7BC" points="340.86,826.41 269.68,934.85 365.93,912.43 		"/>
		<polygon id="_379003912_1_" fill="#36B7BC" points="479.69,912.43 422.81,860.65 422.81,832.4 436.18,824.09 		"/>
		<polygon id="_379004992_1_" fill="#36B7BC" points="365.93,912.43 422.81,860.65 422.81,832.4 409.44,824.09 		"/>
		<polygon id="_376302392_1_" fill="#36B7BC" points="500.34,690.79 422.81,613.18 422.81,735.9 		"/>
		<polygon id="_376304864_1_" fill="#36B7BC" points="345.29,690.79 422.81,613.18 422.81,735.9 		"/>
		<polygon id="_376304384_1_" fill="#36B7BC" points="500.34,690.79 483.65,552.47 529.54,607.66 		"/>
		<polygon id="_376304432_1_" fill="#36B7BC" points="345.29,690.79 361.97,552.47 316.09,607.66 		"/>
		<polygon id="_376297280_1_" fill="#36B7BC" points="871.93,519.8 1001.43,512.37 933.89,584.52 		"/>
		<polygon id="_376297448_1_" fill="#36B7BC" points="789.98,661.74 848.3,777.6 877.01,683.04 		"/>
		<polygon id="_376298120_1_" fill="#36B7BC" points="933.89,584.52 860.61,607.89 836.14,593.76 835.63,578.03 		"/>
		<polygon id="_376298360_1_" fill="#36B7BC" points="877.01,683.04 860.61,607.89 836.14,593.76 822.26,601.19 		"/>
		<polygon id="_376293872_1_" fill="#36B7BC" points="752.27,455.82 646.3,484.15 752.58,545.51 		"/>
		<polygon id="_376293200_1_" fill="#36B7BC" points="674.75,590.09 646.3,484.15 752.58,545.51 		"/>
		<polygon id="_376300088_1_" fill="#36B7BC" points="674.75,590.09 563.29,506.48 588.15,573.81 		"/>
		<polygon id="_374219928_1_" fill="#36B7BC" points="789.97,48.51 848.3,-67.36 877.01,27.21 		"/>
		<polygon id="_374220096_1_" fill="#36B7BC" points="871.93,190.45 1001.43,197.88 933.89,125.73 		"/>
		<polygon id="_374220600_1_" fill="#36B7BC" points="877.01,27.21 860.61,102.36 836.14,116.48 822.26,109.06 		"/>
		<polygon id="_374220768_1_" fill="#36B7BC" points="933.89,125.73 860.6,102.35 836.14,116.48 835.63,132.22 		"/>
		<polygon id="_374221608_1_" fill="#36B7BC" points="674.74,120.15 646.29,226.09 752.58,164.73 		"/>
		<polygon id="_374221776_1_" fill="#36B7BC" points="752.27,254.42 646.29,226.09 752.58,164.73 		"/>
		<polygon id="_374222280_1_" fill="#36B7BC" points="674.74,120.15 563.29,203.76 588.14,136.43 		"/>
		<polygon id="_446190800_1_" fill="#36B7BC" points="659.08,-167.88 682.45,-94.6 668.32,-70.13 652.6,-69.62 		"/>
		<polygon id="_446190632_1_" fill="#36B7BC" points="757.6,-111 682.45,-94.6 668.32,-70.13 675.75,-56.25 		"/>
		<polygon id="_446189792_1_" fill="#36B7BC" points="530.38,13.74 558.72,119.72 620.08,13.44 		"/>
		<polygon id="_446189624_1_" fill="#36B7BC" points="664.66,91.27 558.72,119.72 620.08,13.43 		"/>
		<polygon id="_446191640_1_" fill="#36B7BC" points="88.01,-111 163.16,-94.6 177.29,-70.13 169.86,-56.25 		"/>
		<polygon id="_448048104_1_" fill="#36B7BC" points="186.53,-167.88 163.16,-94.6 177.29,-70.13 193.02,-69.62 		"/>
		<polygon id="_448054032_1_" fill="#36B7BC" points="180.95,91.27 286.9,119.72 225.53,13.44 		"/>
		<polygon id="_375838080_1_" fill="#36B7BC" points="315.23,13.75 286.9,119.72 225.53,13.44 		"/>
		<polygon id="_448054872_1_" fill="#36B7BC" points="-148.26,412.01 -96.49,355.12 -68.23,355.12 -59.92,368.5 		"/>
		<polygon id="_448054704_1_" fill="#36B7BC" points="-148.26,298.24 -96.49,355.12 -68.23,355.12 -59.92,341.76 		"/>
		<polygon id="_374225544_1_" fill="#36B7BC" points="186.54,878.13 163.16,804.85 177.29,780.38 193.02,779.87 		"/>
		<polygon id="_374225712_1_" fill="#36B7BC" points="88.01,821.24 163.16,804.85 177.29,780.38 169.87,766.5 		"/>
		<polygon id="_374226552_1_" fill="#36B7BC" points="315.23,696.5 286.9,590.53 225.53,696.81 		"/>
		<polygon id="_379020712_1_" fill="#36B7BC" points="180.95,618.98 286.9,590.53 225.53,696.81 		"/>
		<polygon id="_379019872_1_" fill="#36B7BC" points="757.61,821.24 682.46,804.85 668.33,780.38 675.75,766.5 		"/>
		<polygon id="_379019704_1_" fill="#36B7BC" points="659.08,878.13 682.46,804.85 668.33,780.38 652.6,779.86 		"/>
		<polygon id="_379003696_1_" fill="#36B7BC" points="664.66,618.98 558.72,590.53 620.08,696.81 		"/>
		<polygon id="_379003744_1_" fill="#36B7BC" points="530.39,696.5 558.72,590.53 620.08,696.81 		"/>
		<polygon id="_379019152_1_" fill="#36B7BC" points="993.87,298.24 942.1,355.12 913.85,355.12 905.53,341.75 		"/>
		<polygon id="_379001632_1_" fill="#36B7BC" points="993.87,412.01 942.1,355.12 913.85,355.12 905.53,368.49 		"/>
	</g>
	<g clip-path="url(#SVGID_2_)">
		<polygon fill="#E5007E" points="380.51,122.66 393.71,77.38 416.62,123.88 		"/>
		<polygon fill="#E5007E" points="466.8,122.66 453.6,77.38 430.69,123.88 		"/>
		<polygon fill="#E5007E" points="423.66,134.68 416.62,123.88 423.66,119.51 		"/>
		<polygon fill="#E5007E" points="423.66,134.68 430.69,123.88 423.66,119.51 		"/>
		<g>
			<polygon fill="#E5007E" points="423.66,-1.42 393.71,77.38 423.66,60.08 			"/>
			<polygon fill="#E5007E" points="423.66,-1.42 453.6,77.38 423.66,60.08 			"/>
		</g>
		<polygon id="_436337512_1_" fill="#E5007E" points="187.22,284.08 154.6,250.01 206.33,253.42 		"/>
		<polygon id="_436337440_1_" fill="#E5007E" points="230.36,209.35 184.55,198.14 213.37,241.23 		"/>
		<polygon id="_377432384_1_" fill="#E5007E" points="219.2,252.72 206.33,253.42 206.06,245.14 		"/>
		<polygon id="_375375672_2_" fill="#E5007E" points="219.2,252.72 213.37,241.23 206.06,245.14 		"/>
		<polygon id="_376011184_1_" fill="#E5007E" points="101.33,184.68 154.6,250.01 154.59,215.42 		"/>
		<polygon id="_376011208_1_" fill="#E5007E" points="101.33,184.68 184.55,198.14 154.59,215.42 		"/>
		<polygon id="_379072192_1_" fill="#E5007E" points="230.36,532.19 184.55,543.4 213.37,500.31 		"/>
		<polygon id="_379072216_1_" fill="#E5007E" points="187.22,457.46 154.6,491.53 206.33,488.12 		"/>
		<polygon id="_438677864_1_" fill="#E5007E" points="219.2,488.82 213.37,500.31 206.06,496.4 		"/>
		<polygon id="_438677888_4_" fill="#E5007E" points="219.2,488.82 206.33,488.12 206.06,496.4 		"/>
		<polygon id="_379017784_1_" fill="#E5007E" points="101.34,556.87 184.55,543.4 154.59,526.11 		"/>
		<polygon id="_379017616_1_" fill="#E5007E" points="101.34,556.87 154.6,491.53 154.59,526.11 		"/>
		<polygon id="_379021432_1_" fill="#E5007E" points="466.8,618.88 453.6,664.16 430.7,617.65 		"/>
		<polygon id="_379002088_1_" fill="#E5007E" points="380.52,618.88 393.72,664.16 416.62,617.65 		"/>
		<polygon id="_379005136_1_" fill="#E5007E" points="423.66,606.86 430.7,617.65 423.66,622.03 		"/>
		<polygon id="_379005304_2_" fill="#E5007E" points="423.66,606.86 416.62,617.65 423.66,622.03 		"/>
		<polygon id="_376300664_1_" fill="#E5007E" points="423.66,742.96 453.6,664.16 423.66,681.46 		"/>
		<polygon id="_376301792_1_" fill="#E5007E" points="423.66,742.96 393.72,664.16 423.66,681.46 		"/>
		<polygon id="_376296776_1_" fill="#E5007E" points="660.1,457.46 692.72,491.53 640.99,488.11 		"/>
		<polygon id="_376297016_1_" fill="#E5007E" points="616.96,532.19 662.77,543.4 633.95,500.31 		"/>
		<polygon id="_376294400_1_" fill="#E5007E" points="628.12,488.81 640.99,488.11 641.26,496.4 		"/>
		<polygon id="_376294568_2_" fill="#E5007E" points="628.12,488.81 633.95,500.31 641.26,496.4 		"/>
		<polygon id="_316591864_1_" fill="#E5007E" points="745.98,556.86 692.72,491.53 692.73,526.11 		"/>
		<polygon id="_374218584_1_" fill="#E5007E" points="745.98,556.86 662.77,543.4 692.73,526.11 		"/>
		<polygon id="_374219592_1_" fill="#E5007E" points="616.95,209.35 662.77,198.14 633.95,241.23 		"/>
		<polygon id="_374219760_1_" fill="#E5007E" points="660.1,284.08 692.71,250 640.98,253.42 		"/>
		<polygon id="_374221272_1_" fill="#E5007E" points="628.12,252.72 633.95,241.23 641.25,245.14 		"/>
		<polygon id="_374221440_2_" fill="#E5007E" points="628.12,252.72 640.98,253.42 641.25,245.14 		"/>
		<polygon id="_374224848_1_" fill="#E5007E" points="745.98,184.67 662.77,198.14 692.73,215.42 		"/>
		<polygon id="_374225016_1_" fill="#E5007E" points="745.98,184.67 692.71,250 692.72,215.42 		"/>
		<polygon id="_446190128_1_" fill="#E5007E" points="545.32,160.03 544.63,147.17 552.91,146.89 		"/>
		<polygon id="_446189960_2_" fill="#E5007E" points="545.32,160.03 556.82,154.2 552.91,146.89 		"/>
		<polygon id="_446189120_1_" fill="#E5007E" points="613.38,42.17 548.04,95.44 582.62,95.43 		"/>
		<polygon id="_448048608_1_" fill="#E5007E" points="613.38,42.17 599.91,125.38 582.62,95.43 		"/>
		<polygon id="_375378696_2_" fill="#E5007E" points="301.99,160.03 290.5,154.2 294.4,146.89 		"/>
		<polygon id="_373704912_2_" fill="#E5007E" points="301.99,160.03 302.69,147.17 294.4,146.9 		"/>
		<polygon id="_448055376_1_" fill="#E5007E" points="233.94,42.17 247.41,125.38 264.69,95.43 		"/>
		<polygon id="_448055208_1_" fill="#E5007E" points="233.94,42.17 299.27,95.44 264.69,95.43 		"/>
		<polygon id="_448054200_1_" fill="#E5007E" points="180.32,370.77 169.53,377.81 165.15,370.77 		"/>
		<polygon id="_448049784_1_" fill="#E5007E" points="180.32,370.77 169.53,363.73 165.15,370.77 		"/>
		<polygon id="_448056048_1_" fill="#E5007E" points="44.23,370.77 123.02,400.71 105.72,370.77 		"/>
		<polygon id="_448056216_1_" fill="#E5007E" points="44.23,370.77 123.02,340.82 105.72,370.77 		"/>
		<polygon id="_374226216_1_" fill="#E5007E" points="301.99,581.5 302.69,594.37 294.4,594.64 		"/>
		<polygon id="_374226384_2_" fill="#E5007E" points="301.99,581.5 290.5,587.33 294.41,594.64 		"/>
		<polygon id="_379020208_1_" fill="#E5007E" points="233.94,699.37 299.27,646.1 264.69,646.11 		"/>
		<polygon id="_379020040_1_" fill="#E5007E" points="233.94,699.37 247.41,616.16 264.69,646.11 		"/>
		<polygon id="_379004944_1_" fill="#E5007E" points="545.32,581.5 556.82,587.33 552.91,594.64 		"/>
		<polygon id="_379005760_2_" fill="#E5007E" points="545.32,581.5 544.63,594.37 552.91,594.64 		"/>
		<polygon id="_379021072_1_" fill="#E5007E" points="613.38,699.37 599.91,616.16 582.63,646.11 		"/>
		<polygon id="_379020904_1_" fill="#E5007E" points="613.38,699.37 548.04,646.1 582.63,646.11 		"/>
		<polygon id="_379016896_1_" fill="#E5007E" points="667,370.77 677.79,363.73 682.17,370.77 		"/>
		<polygon id="_379002472_1_" fill="#E5007E" points="667,370.77 677.79,377.81 682.17,370.77 		"/>
		<polygon id="_316586128_1_" fill="#E5007E" points="803.09,370.77 724.29,340.82 741.59,370.77 		"/>
		<polygon id="_380188392_1_" fill="#E5007E" points="803.09,370.77 724.29,400.71 741.59,370.77 		"/>
	</g>
	<g clip-path="url(#SVGID_2_)">
		<polygon fill="#E5007E" points="427.78,-659.12 447.99,-690.13 427.78,-702.7 		"/>
		<polygon id="_375375672_1_" fill="#E5007E" points="-159.68,-319.95 -176.43,-352.96 -197.43,-341.74 		"/>
		<polygon id="_438677888_3_" fill="#E5007E" points="-159.68,358.39 -196.65,356.39 -197.42,380.18 		"/>
		<polygon id="_379005304_1_" fill="#E5007E" points="427.78,697.55 407.56,728.57 427.78,741.15 		"/>
		<polygon id="_376294568_1_" fill="#E5007E" points="1015.24,358.38 1031.99,391.41 1052.99,380.18 		"/>
		<polygon id="_374221440_1_" fill="#E5007E" points="1015.23,-319.95 1052.2,-317.95 1052.98,-341.75 		"/>
		<polygon id="_446189960_1_" fill="#E5007E" points="777.35,-586.27 810.37,-603.02 799.14,-624.02 		"/>
		<g>
			<polygon id="_375378696_1_" fill="#E5007E" points="78.2,-586.27 45.18,-603.02 56.4,-624.02 			"/>
			<polygon id="_373704912_1_" fill="#E5007E" points="78.2,-586.27 80.21,-623.24 56.4,-624.01 			"/>
		</g>
		<polygon id="_374226384_1_" fill="#E5007E" points="78.2,624.7 45.18,641.46 56.41,662.46 		"/>
		<polygon id="_379005760_1_" fill="#E5007E" points="777.35,624.7 775.35,661.67 799.15,662.46 		"/>
	</g>
	<g clip-path="url(#SVGID_2_)">
		<polygon fill="#36B7BC" points="340.85,397.58 269.67,289.14 365.92,311.56 		"/>
		<polygon fill="#36B7BC" points="504.76,397.58 575.94,289.14 479.68,311.56 		"/>
		<polygon fill="#36B7BC" points="365.92,311.56 422.81,363.33 422.81,391.59 409.43,399.9 		"/>
		<polygon fill="#36B7BC" points="479.68,311.56 422.81,363.33 422.81,391.59 436.17,399.9 		"/>
		<polygon fill="#36B7BC" points="345.28,533.19 422.81,610.8 422.81,488.08 		"/>
		<polygon fill="#36B7BC" points="500.33,533.19 422.81,610.8 422.81,488.08 		"/>
		<polygon fill="#36B7BC" points="345.28,533.19 361.97,671.52 316.08,616.33 		"/>
		<polygon fill="#36B7BC" points="500.33,533.19 483.64,671.52 529.53,616.33 		"/>
		<polygon id="_377432192_2_" fill="#36B7BC" points="-26.31,704.19 -155.82,711.62 -88.28,639.47 		"/>
		<polygon id="_377432216_2_" fill="#36B7BC" points="55.63,562.25 -2.68,446.39 -31.39,540.95 		"/>
		<polygon id="_377432288_2_" fill="#36B7BC" points="-88.28,639.47 -15,616.1 9.47,630.23 9.99,645.96 		"/>
		<polygon id="_377432312_2_" fill="#36B7BC" points="-31.39,540.95 -15,616.1 9.47,630.23 23.35,622.81 		"/>
		<polygon id="_375375696_2_" fill="#36B7BC" points="93.34,768.17 199.32,739.84 93.04,678.47 		"/>
		<polygon id="_375375720_2_" fill="#36B7BC" points="170.87,633.89 199.32,739.84 93.04,678.47 		"/>
		<polygon id="_375375816_2_" fill="#36B7BC" points="170.87,633.89 282.32,717.51 257.47,650.17 		"/>
		<polygon id="_379072240_2_" fill="#36B7BC" points="55.64,1175.48 -2.68,1291.34 -31.39,1196.78 		"/>
		<polygon id="_379072264_2_" fill="#36B7BC" points="-26.31,1033.54 -155.81,1026.11 -88.27,1098.26 		"/>
		<polygon id="_379072336_2_" fill="#36B7BC" points="-31.39,1196.78 -14.99,1121.63 9.47,1107.5 23.36,1114.93 		"/>
		<polygon id="_379072360_2_" fill="#36B7BC" points="-88.27,1098.26 -14.99,1121.63 9.48,1107.5 9.99,1091.77 		"/>
		<polygon id="_438677912_2_" fill="#36B7BC" points="170.87,1103.84 199.32,997.9 93.04,1059.26 		"/>
		<polygon id="_438677936_2_" fill="#36B7BC" points="93.35,969.56 199.32,997.9 93.04,1059.26 		"/>
		<polygon id="_438678008_2_" fill="#36B7BC" points="170.87,1103.84 282.32,1020.23 257.47,1087.56 		"/>
		<polygon id="_379001920_2_" fill="#36B7BC" points="504.76,1340.15 575.95,1448.59 479.69,1426.17 		"/>
		<polygon id="_379001752_2_" fill="#36B7BC" points="340.86,1340.15 269.68,1448.59 365.93,1426.17 		"/>
		<polygon id="_379003912_2_" fill="#36B7BC" points="479.69,1426.17 422.81,1374.39 422.81,1346.14 436.18,1337.83 		"/>
		<polygon id="_379004992_2_" fill="#36B7BC" points="365.93,1426.17 422.81,1374.39 422.81,1346.14 409.44,1337.83 		"/>
		<polygon id="_376302392_2_" fill="#36B7BC" points="500.34,1204.53 422.81,1126.92 422.81,1249.64 		"/>
		<polygon id="_376304864_2_" fill="#36B7BC" points="345.29,1204.53 422.81,1126.92 422.81,1249.64 		"/>
		<polygon id="_376304384_2_" fill="#36B7BC" points="500.34,1204.53 483.65,1066.21 529.54,1121.4 		"/>
		<polygon id="_376304432_2_" fill="#36B7BC" points="345.29,1204.53 361.97,1066.21 316.09,1121.4 		"/>
		<polygon id="_376297280_2_" fill="#36B7BC" points="871.93,1033.54 1001.43,1026.11 933.89,1098.25 		"/>
		<polygon id="_376297448_2_" fill="#36B7BC" points="789.98,1175.48 848.3,1291.34 877.01,1196.78 		"/>
		<polygon id="_376298120_2_" fill="#36B7BC" points="933.89,1098.25 860.61,1121.63 836.14,1107.5 835.63,1091.76 		"/>
		<polygon id="_376298360_2_" fill="#36B7BC" points="877.01,1196.78 860.61,1121.63 836.14,1107.5 822.26,1114.93 		"/>
		<polygon id="_376293872_2_" fill="#36B7BC" points="752.27,969.56 646.3,997.89 752.58,1059.25 		"/>
		<polygon id="_376293200_2_" fill="#36B7BC" points="674.75,1103.83 646.3,997.89 752.58,1059.25 		"/>
		<polygon id="_376300088_2_" fill="#36B7BC" points="674.75,1103.83 563.29,1020.22 588.15,1087.55 		"/>
		<polygon id="_374219928_2_" fill="#36B7BC" points="789.97,562.25 848.3,446.38 877.01,540.94 		"/>
		<polygon id="_374220096_2_" fill="#36B7BC" points="871.93,704.19 1001.43,711.62 933.89,639.47 		"/>
		<polygon id="_374220600_2_" fill="#36B7BC" points="877.01,540.94 860.61,616.1 836.14,630.22 822.26,622.8 		"/>
		<polygon id="_374220768_2_" fill="#36B7BC" points="933.89,639.47 860.6,616.09 836.14,630.22 835.63,645.96 		"/>
		<polygon id="_374221608_2_" fill="#36B7BC" points="674.74,633.89 646.29,739.83 752.58,678.47 		"/>
		<polygon id="_374221776_2_" fill="#36B7BC" points="752.27,768.16 646.29,739.83 752.58,678.47 		"/>
		<polygon id="_374222280_2_" fill="#36B7BC" points="674.74,633.89 563.29,717.5 588.14,650.17 		"/>
		<polygon id="_446190800_2_" fill="#36B7BC" points="659.08,345.86 682.45,419.14 668.32,443.61 652.6,444.12 		"/>
		<polygon id="_446190632_2_" fill="#36B7BC" points="757.6,402.74 682.45,419.14 668.32,443.61 675.75,457.49 		"/>
		<polygon id="_446189792_2_" fill="#36B7BC" points="530.38,527.48 558.72,633.46 620.08,527.18 		"/>
		<polygon id="_446189624_2_" fill="#36B7BC" points="664.66,605.01 558.72,633.46 620.08,527.17 		"/>
		<polygon id="_446191640_2_" fill="#36B7BC" points="88.01,402.74 163.16,419.14 177.29,443.61 169.86,457.49 		"/>
		<polygon id="_448048104_2_" fill="#36B7BC" points="186.53,345.86 163.16,419.14 177.29,443.61 193.02,444.12 		"/>
		<polygon id="_448054032_2_" fill="#36B7BC" points="180.95,605.01 286.9,633.46 225.53,527.18 		"/>
		<polygon id="_375838080_2_" fill="#36B7BC" points="315.23,527.48 286.9,633.46 225.53,527.18 		"/>
		<polygon id="_448054872_2_" fill="#36B7BC" points="-148.26,925.75 -96.49,868.86 -68.23,868.86 -59.92,882.24 		"/>
		<polygon id="_448054704_2_" fill="#36B7BC" points="-148.26,811.98 -96.49,868.86 -68.23,868.86 -59.92,855.5 		"/>
		<polygon id="_374225544_2_" fill="#36B7BC" points="186.54,1391.87 163.16,1318.58 177.29,1294.12 193.02,1293.61 		"/>
		<polygon id="_374225712_2_" fill="#36B7BC" points="88.01,1334.98 163.16,1318.58 177.29,1294.12 169.87,1280.23 		"/>
		<polygon id="_374226552_2_" fill="#36B7BC" points="315.23,1210.24 286.9,1104.27 225.53,1210.55 		"/>
		<polygon id="_379020712_2_" fill="#36B7BC" points="180.95,1132.72 286.9,1104.27 225.53,1210.55 		"/>
		<polygon id="_379019872_2_" fill="#36B7BC" points="757.61,1334.98 682.46,1318.58 668.33,1294.12 675.75,1280.23 		"/>
		<polygon id="_379019704_2_" fill="#36B7BC" points="659.08,1391.87 682.46,1318.58 668.33,1294.12 652.6,1293.6 		"/>
		<polygon id="_379003696_2_" fill="#36B7BC" points="664.66,1132.72 558.72,1104.27 620.08,1210.55 		"/>
		<polygon id="_379003744_2_" fill="#36B7BC" points="530.39,1210.24 558.72,1104.27 620.08,1210.55 		"/>
		<polygon id="_379019152_2_" fill="#36B7BC" points="993.87,811.98 942.1,868.86 913.85,868.86 905.53,855.49 		"/>
		<polygon id="_379001632_2_" fill="#36B7BC" points="993.87,925.75 942.1,868.86 913.85,868.86 905.53,882.23 		"/>
	</g>
	<g clip-path="url(#SVGID_2_)">
		<polygon fill="#E5007E" points="380.51,636.4 393.71,591.12 416.62,637.62 		"/>
		<polygon fill="#E5007E" points="466.8,636.4 453.6,591.12 430.69,637.62 		"/>
		<polygon fill="#E5007E" points="423.66,648.42 416.62,637.62 423.66,633.25 		"/>
		<polygon fill="#E5007E" points="423.66,648.42 430.69,637.62 423.66,633.25 		"/>
		<g>
			<polygon fill="#E5007E" points="423.66,512.32 393.71,591.12 423.66,573.82 			"/>
			<polygon fill="#E5007E" points="423.66,512.32 453.6,591.12 423.66,573.82 			"/>
		</g>
		<polygon id="_436337512_2_" fill="#E5007E" points="187.22,797.82 154.6,763.75 206.33,767.16 		"/>
		<polygon id="_436337440_2_" fill="#E5007E" points="230.36,723.09 184.55,711.88 213.37,754.97 		"/>
		<polygon id="_377432384_2_" fill="#E5007E" points="219.2,766.46 206.33,767.16 206.06,758.88 		"/>
		<polygon id="_375375672_4_" fill="#E5007E" points="219.2,766.46 213.37,754.97 206.06,758.88 		"/>
		<polygon id="_376011184_2_" fill="#E5007E" points="101.33,698.41 154.6,763.75 154.59,729.16 		"/>
		<polygon id="_376011208_2_" fill="#E5007E" points="101.33,698.41 184.55,711.88 154.59,729.16 		"/>
		<polygon id="_379072192_2_" fill="#E5007E" points="230.36,1045.92 184.55,1057.14 213.37,1014.05 		"/>
		<polygon id="_379072216_2_" fill="#E5007E" points="187.22,971.2 154.6,1005.27 206.33,1001.86 		"/>
		<polygon id="_438677864_2_" fill="#E5007E" points="219.2,1002.55 213.37,1014.05 206.06,1010.14 		"/>
		<polygon id="_438677888_6_" fill="#E5007E" points="219.2,1002.55 206.33,1001.86 206.06,1010.14 		"/>
		<polygon id="_379017784_2_" fill="#E5007E" points="101.34,1070.6 184.55,1057.14 154.59,1039.85 		"/>
		<polygon id="_379017616_2_" fill="#E5007E" points="101.34,1070.6 154.6,1005.27 154.59,1039.85 		"/>
		<polygon id="_379021432_2_" fill="#E5007E" points="466.8,1132.62 453.6,1177.9 430.7,1131.39 		"/>
		<polygon id="_379002088_2_" fill="#E5007E" points="380.52,1132.62 393.72,1177.9 416.62,1131.39 		"/>
		<polygon id="_379005136_2_" fill="#E5007E" points="423.66,1120.6 430.7,1131.39 423.66,1135.77 		"/>
		<polygon id="_379005304_4_" fill="#E5007E" points="423.66,1120.6 416.62,1131.39 423.66,1135.77 		"/>
		<polygon id="_376300664_2_" fill="#E5007E" points="423.66,1256.7 453.6,1177.9 423.66,1195.2 		"/>
		<polygon id="_376301792_2_" fill="#E5007E" points="423.66,1256.7 393.72,1177.9 423.66,1195.2 		"/>
		<polygon id="_376296776_2_" fill="#E5007E" points="660.1,971.2 692.72,1005.27 640.99,1001.85 		"/>
		<polygon id="_376297016_2_" fill="#E5007E" points="616.96,1045.92 662.77,1057.14 633.95,1014.05 		"/>
		<polygon id="_376294400_2_" fill="#E5007E" points="628.12,1002.55 640.99,1001.85 641.26,1010.14 		"/>
		<polygon id="_376294568_4_" fill="#E5007E" points="628.12,1002.55 633.95,1014.05 641.26,1010.14 		"/>
		<polygon id="_316591864_2_" fill="#E5007E" points="745.98,1070.6 692.72,1005.27 692.73,1039.85 		"/>
		<polygon id="_374218584_2_" fill="#E5007E" points="745.98,1070.6 662.77,1057.14 692.73,1039.85 		"/>
		<polygon id="_374219592_2_" fill="#E5007E" points="616.95,723.09 662.77,711.88 633.95,754.97 		"/>
		<polygon id="_374219760_2_" fill="#E5007E" points="660.1,797.82 692.71,763.74 640.98,767.16 		"/>
		<polygon id="_374221272_2_" fill="#E5007E" points="628.12,766.46 633.95,754.97 641.25,758.88 		"/>
		<polygon id="_374221440_4_" fill="#E5007E" points="628.12,766.46 640.98,767.16 641.25,758.88 		"/>
		<polygon id="_374224848_2_" fill="#E5007E" points="745.98,698.41 662.77,711.88 692.73,729.16 		"/>
		<polygon id="_374225016_2_" fill="#E5007E" points="745.98,698.41 692.71,763.74 692.72,729.16 		"/>
		<polygon id="_446190128_2_" fill="#E5007E" points="545.32,673.77 544.63,660.91 552.91,660.63 		"/>
		<polygon id="_446189960_4_" fill="#E5007E" points="545.32,673.77 556.82,667.94 552.91,660.63 		"/>
		<polygon id="_446189120_2_" fill="#E5007E" points="613.38,555.91 548.04,609.18 582.62,609.17 		"/>
		<polygon id="_448048608_2_" fill="#E5007E" points="613.38,555.91 599.91,639.12 582.62,609.17 		"/>
		<polygon id="_375378696_4_" fill="#E5007E" points="301.99,673.77 290.5,667.94 294.4,660.63 		"/>
		<polygon id="_373704912_4_" fill="#E5007E" points="301.99,673.77 302.69,660.91 294.4,660.64 		"/>
		<polygon id="_448055376_2_" fill="#E5007E" points="233.94,555.91 247.41,639.12 264.69,609.17 		"/>
		<polygon id="_448055208_2_" fill="#E5007E" points="233.94,555.91 299.27,609.18 264.69,609.17 		"/>
		<polygon id="_448054200_2_" fill="#E5007E" points="180.32,884.51 169.53,891.55 165.15,884.51 		"/>
		<polygon id="_448049784_2_" fill="#E5007E" points="180.32,884.51 169.53,877.47 165.15,884.51 		"/>
		<polygon id="_448056048_2_" fill="#E5007E" points="44.23,884.51 123.02,914.45 105.72,884.51 		"/>
		<polygon id="_448056216_2_" fill="#E5007E" points="44.23,884.51 123.02,854.56 105.72,884.51 		"/>
		<polygon id="_374226216_2_" fill="#E5007E" points="301.99,1095.24 302.69,1108.11 294.4,1108.38 		"/>
		<polygon id="_374226384_4_" fill="#E5007E" points="301.99,1095.24 290.5,1101.07 294.41,1108.38 		"/>
		<polygon id="_379020208_2_" fill="#E5007E" points="233.94,1213.1 299.27,1159.84 264.69,1159.85 		"/>
		<polygon id="_379020040_2_" fill="#E5007E" points="233.94,1213.1 247.41,1129.89 264.69,1159.85 		"/>
		<polygon id="_379004944_2_" fill="#E5007E" points="545.32,1095.24 556.82,1101.07 552.91,1108.38 		"/>
		<polygon id="_379005760_4_" fill="#E5007E" points="545.32,1095.24 544.63,1108.11 552.91,1108.38 		"/>
		<polygon id="_379021072_2_" fill="#E5007E" points="613.38,1213.1 599.91,1129.89 582.63,1159.85 		"/>
		<polygon id="_379020904_2_" fill="#E5007E" points="613.38,1213.1 548.04,1159.84 582.63,1159.85 		"/>
		<polygon id="_379016896_2_" fill="#E5007E" points="667,884.51 677.79,877.47 682.17,884.51 		"/>
		<polygon id="_379002472_2_" fill="#E5007E" points="667,884.51 677.79,891.54 682.17,884.51 		"/>
		<polygon id="_316586128_2_" fill="#E5007E" points="803.09,884.51 724.29,854.56 741.59,884.51 		"/>
		<polygon id="_380188392_2_" fill="#E5007E" points="803.09,884.51 724.29,914.45 741.59,884.51 		"/>
	</g>
	<g clip-path="url(#SVGID_2_)">
		<polygon fill="#E5007E" points="427.78,-145.38 447.99,-176.39 427.78,-188.97 		"/>
		<polygon id="_375375672_3_" fill="#E5007E" points="-159.68,193.79 -176.43,160.77 -197.43,172 		"/>
		<polygon id="_438677888_5_" fill="#E5007E" points="-159.68,872.13 -196.65,870.13 -197.42,893.92 		"/>
		<polygon id="_379005304_3_" fill="#E5007E" points="427.78,1211.29 407.56,1242.31 427.78,1254.89 		"/>
		<polygon id="_376294568_3_" fill="#E5007E" points="1015.24,872.12 1031.99,905.15 1052.99,893.92 		"/>
		<polygon id="_374221440_3_" fill="#E5007E" points="1015.23,193.78 1052.2,195.79 1052.98,171.99 		"/>
		<polygon id="_446189960_3_" fill="#E5007E" points="777.35,-72.53 810.37,-89.28 799.14,-110.28 		"/>
		<g>
			<polygon id="_375378696_3_" fill="#E5007E" points="78.2,-72.53 45.18,-89.28 56.4,-110.28 			"/>
			<polygon id="_373704912_3_" fill="#E5007E" points="78.2,-72.53 80.21,-109.5 56.4,-110.27 			"/>
		</g>
		<polygon id="_374226384_3_" fill="#E5007E" points="78.2,1138.44 45.18,1155.19 56.41,1176.2 		"/>
		<polygon id="_379005760_3_" fill="#E5007E" points="777.35,1138.44 775.35,1175.41 799.15,1176.2 		"/>
	</g>
</g>
<rect x="29.53" y="190.13" fill="#C6C6C5" width="780.7" height="880.05"/>
<rect x="147.73" y="142.41" fill="#FFFFFF" width="662.5" height="46.35"/>
<g>
	<rect x="128.16" y="108.78" fill="none" width="451.11" height="22.22"/>
	<text transform="matrix(0.9715 0 0 1 195.1036 118.3312)"><tspan x="0" y="0" fill="#37B6BA" font-family="'GothamMedium'" font-size="13.081px">MET OFFICE </tspan><tspan x="87.29" y="0" fill="#E265A0" font-family="'GothamMedium'" font-size="13.081px"> </tspan><tspan x="91.21" y="0" fill="#37B6BA" font-family="'GothamMedium'" font-size="13.081px">       EXETER        UNITED KINGDOM</tspan></text>
	<polygon id="_438677888_1_" fill="#E3097E" points="303.69,109.04 285.75,108.04 285.38,119.92 	"/>
	<polygon id="_438677888_2_" fill="#E3097E" points="389.57,119.64 376.65,106.83 371.08,112.66 	"/>
</g>
<g>
	<g>
		
			<line fill="none" stroke="#FFFFFF" stroke-linecap="round" stroke-miterlimit="10" x1="172.56" y1="58.21" x2="172.56" y2="58.21"/>
		
			<line fill="none" stroke="#FFFFFF" stroke-linecap="round" stroke-miterlimit="10" stroke-dasharray="0,1.999" x1="174.56" y1="58.21" x2="809.24" y2="58.21"/>
		
			<line fill="none" stroke="#FFFFFF" stroke-linecap="round" stroke-miterlimit="10" x1="810.24" y1="58.21" x2="810.24" y2="58.21"/>
	</g>
</g>
<rect x="30" y="187.81" fill="#ECECEC" width="779.8" height="60.57"/>
<rect x="30" y="296.31" fill="#ECECEC" width="779.8" height="131.81"/>
<rect x="30" y="632.51" fill="#ECECEC" width="779.8" height="109.69"/>
<rect x="30" y="744.16" fill="#ECECEC" width="779.8" height="110.81"/>
<rect x="30" y="961.15" fill="#ECECEC" width="779.8" height="103.95"/>
<rect x="30" y="250.03" fill="#ECECEC" width="779.8" height="44.3"/>
<rect x="30" y="567.6" fill="#ECECEC" width="779.8" height="33.93"/>
<rect x="30" y="459.15" fill="#ECECEC" width="779.8" height="107"/>
<rect x="30" y="885.68" fill="#ECECEC" width="779.8" height="74.05"/>
<rect x="30" y="187.81" fill="#9C9B9B" width="120.6" height="60.57"/>
<rect x="30" y="296.31" fill="#9C9B9B" width="120.6" height="131.81"/>
<rect x="30" y="632.51" fill="#9C9B9B" width="120.6" height="109.69"/>
<rect x="30" y="744.16" fill="#9C9B9B" width="120.6" height="110.81"/>
<rect x="30" y="961.15" fill="#9C9B9B" width="120.6" height="103.95"/>
<rect x="30" y="250.03" fill="#9C9B9B" width="120.6" height="44.3"/>
<rect x="30" y="567.6" fill="#9C9B9B" width="120.6" height="33.93"/>
<rect x="30" y="459.15" fill="#9C9B9B" width="120.6" height="107"/>
<rect x="30" y="885.68" fill="#9C9B9B" width="120.6" height="74.05"/>
<g opacity="0.1">
	<rect x="147.26" y="183.65" fill="#E3097E" width="160.34" height="990.96"/>
	<rect x="314.65" y="183.65" fill="#37B6BA" width="160.34" height="990.96"/>
	<rect x="482.86" y="183.65" fill="#E3097E" width="160.34" height="990.96"/>
	<rect x="650.25" y="183.65" fill="#37B6BA" width="160.34" height="990.96"/>
</g>
<rect x="646.53" y="937.86" fill="#B1B1B1" width="163.27" height="162.18"/>
<rect x="646.53" y="885.54" fill="#B1B1B1" width="163.27" height="70.05"/>
<rect x="39.22" y="216.92" fill="none" width="105.35" height="17.86"/>
<text transform="matrix(0.9715 0 0 1 39.2166 224.9496)" fill="#FFFFFF" font-family="'GothamLight'" font-size="11px">08:00 - 09:00</text>
<rect x="39.22" y="269.45" fill="none" width="105.35" height="17.86"/>
<text transform="matrix(0.9715 0 0 1 39.2166 277.4772)" fill="#FFFFFF" font-family="'GothamLight'" font-size="11px">09:00 - 09:30</text>
<rect x="39.22" y="316.37" fill="none" width="105.35" height="17.86"/>
<text transform="matrix(0.9715 0 0 1 39.2166 324.4003)" fill="#FFFFFF" font-family="'GothamLight'" font-size="11px">10:00 - 10:45</text>
<rect x="39.22" y="473.9" fill="none" width="105.35" height="17.86"/>
<text transform="matrix(0.9715 0 0 1 39.2166 481.934)" fill="#FFFFFF" font-family="'GothamLight'" font-size="11px">11:00 - 11:45</text>
<rect x="39.22" y="580.41" fill="none" width="105.35" height="17.86"/>
<text transform="matrix(0.9715 0 0 1 39.2166 588.438)" fill="#FFFFFF" font-family="'GothamLight'" font-size="11px">11:45 - 12:15</text>
<rect x="39.22" y="648.93" fill="none" width="105.35" height="17.86"/>
<text transform="matrix(0.9715 0 0 1 39.2166 656.9595)" fill="#FFFFFF" font-family="'GothamLight'" font-size="11px">13:00 - 14:00</text>
<rect x="39.22" y="761.21" fill="none" width="105.35" height="17.86"/>
<text transform="matrix(0.9715 0 0 1 39.2166 769.2376)" fill="#FFFFFF" font-family="'GothamLight'" font-size="11px">14:00 - 15:00</text>
<rect x="39.22" y="899.62" fill="none" width="105.35" height="17.86"/>
<text transform="matrix(0.9715 0 0 1 39.2166 907.6539)" fill="#FFFFFF" font-family="'GothamLight'" font-size="11px">15:20 - 16:00</text>
<rect x="30" y="1099.24" fill="#D9D9D9" width="780.25" height="73.8"/>
<rect x="39.22" y="973.92" fill="none" width="105.35" height="17.86"/>
<text transform="matrix(0.9715 0 0 1 39.2166 981.9528)" fill="#FFFFFF" font-family="'GothamLight'" font-size="11px">16:00 - 17:00</text>
<rect x="39.22" y="1120.03" fill="none" width="105.35" height="17.86"/>
<text transform="matrix(0.9715 0 0 1 39.2166 1128.0653)" fill="#575756" font-family="'GothamLight'" font-size="11px">17:10 - 19:00</text>
<rect x="251.1" y="30.86" fill="none" width="724.01" height="82.76"/>
<text transform="matrix(1 0 0 1 413.6889 45.1852)" fill="#FFFFFF" font-family="'GothamLight'" font-size="19.6227px">VISUALISING THE CONNECTED WORLD</text>
<rect x="483.7" y="104.56" fill="none" width="452.88" height="22.22"/>
<text transform="matrix(1 0 0 1 606.1474 118.8792)" fill="#E265A0" font-family="'GothamBold'" font-size="19.6227px">1-4 NOVEMBER 2016</text>
<rect x="146.73" y="154.47" fill="none" width="158.58" height="23.11"/>
<text transform="matrix(1 0 0 1 181.4422 166.3307)" fill="#E265A0" font-family="'GothamBold'" font-size="16.2498px">TUE 1 NOV</text>
<rect x="316.02" y="154.47" fill="none" width="158.58" height="23.11"/>
<text transform="matrix(1 0 0 1 345.034 166.3307)" fill="#E265A0" font-family="'GothamBold'" font-size="16.2498px">WED 2 NOV</text>
<rect x="485.05" y="154.47" fill="none" width="158.58" height="23.11"/>
<text transform="matrix(1 0 0 1 517.4133 166.3307)" fill="#E265A0" font-family="'GothamBold'" font-size="16.2498px">THU 3 NOV</text>
<rect x="30" y="429.9" fill="#9FD5D7" width="779.57" height="27.28"/>
<rect x="30" y="603.55" fill="#7F9DA0" width="779.57" height="27.35"/>
<rect x="30" y="856.44" fill="#9FD5D7" width="779.57" height="27.28"/>
<rect x="650.82" y="154.47" fill="none" width="158.58" height="23.11"/>
<text transform="matrix(1 0 0 1 686.2825 166.3307)" fill="#E265A0" font-family="'GothamBold'" font-size="16.2498px">FRI 4 NOV</text>
<rect x="28.41" y="68.49" fill="none" width="781.54" height="22.81"/>
<text transform="matrix(1 0 0 1 194.4308 80.1695)" fill="#FFFFFF" font-family="'GothamLight'" font-size="15.9969px">Showcasing best practice and new opportunities in the world of web graphics</text>
<rect x="39.22" y="439.35" fill="none" width="105.35" height="17.86"/>
<text transform="matrix(0.9715 0 0 1 39.2166 447.3815)" fill="#575756" font-family="'GothamLight'" font-size="11px">10:45 - 11:00</text>
<rect x="39.22" y="866.94" fill="none" width="105.35" height="17.86"/>
<text transform="matrix(0.9715 0 0 1 39.2166 874.9678)" fill="#575756" font-family="'GothamLight'" font-size="11px">15:00 - 15:20</text>
<rect x="151.13" y="214.47" fill="none" width="154.42" height="52.74"/>
<text transform="matrix(0.9715 0 0 1 199.2527 221.7678)"><tspan x="0" y="0" fill="#575756" font-family="'GothamLight'" font-size="10px">Registration  </tspan><tspan x="3.69" y="12" fill="#575756" font-family="'GothamLight'" font-size="10px">and coffee</tspan></text>
<rect x="151.13" y="317.14" fill="none" width="154.42" height="101.39"/>
<text transform="matrix(0.9715 0 0 1 200.5843 324.4427)" fill="#575756" font-family="'GothamBlack'" font-size="10px">Kim Majkut </text>
<text transform="matrix(0.9715 0 0 1 183.6658 336.4427)" fill="#575756" font-family="'GothamMedium-Italic'" font-size="10px">BAFTA nominated  </text>
<text transform="matrix(0.9715 0 0 1 178.3372 348.4427)" fill="#575756" font-family="'GothamMedium-Italic'" font-size="10px">Director, Great Guns</text>
<text transform="matrix(0.9715 0 0 1 167.719 364.6033)" fill="#E3097E" font-family="'GothamLight'" font-size="10px">Storytelling with VR / AR</text>
<text transform="matrix(1 0 0 1 159.6863 375.6033)" fill="#2A2A2A" font-family="'Gotham-Light'" font-size="7.5px">Talking about exploring VR/AR as an </text>
<text transform="matrix(1 0 0 1 164.3811 384.6033)" fill="#2A2A2A" font-family="'Gotham-Light'" font-size="7.5px">educational tool for Curiscope and </text>
<text transform="matrix(1 0 0 1 164.7 393.6033)" fill="#2A2A2A" font-family="'Gotham-Light'" font-size="7.5px">showcasing Virtuali-Tee and Great  </text>
<text transform="matrix(1 0 0 1 180.7869 402.6033)" fill="#2A2A2A" font-family="'Gotham-Light'" font-size="7.5px">White 360 VR experience</text>
<rect x="151.13" y="758.96" fill="none" width="154.42" height="86.21"/>
<text transform="matrix(0.9715 0 0 1 200.9583 766.2557)" fill="#575756" font-family="'GothamBlack'" font-size="10px">Ed Parsons </text>
<text transform="matrix(0.9715 0 0 1 168.1853 778.2557)" fill="#575756" font-family="'GothamMedium-Italic'" font-size="10px">Geospatial Technologist, </text>
<text transform="matrix(0.9715 0 0 1 210.7312 790.2557)" fill="#575756" font-family="'GothamMedium-Italic'" font-size="10px">Google</text>
<text transform="matrix(0.9715 0 0 1 195.3528 806.4163)" fill="#E3097E" font-family="'GothamLight'" font-size="10px">Mapping data</text>
<text transform="matrix(1 0 0 1 164.1111 817.4163)" fill="#2A2A2A" font-family="'Gotham-Light'" font-size="7.5px">Highlighting how Google Maps has </text>
<text transform="matrix(1 0 0 1 153.885 826.4163)" fill="#2A2A2A" font-family="'Gotham-Light'" font-size="7.5px">changed the way we navigate, poked its </text>
<text transform="matrix(1 0 0 1 154.7366 835.4163)" fill="#2A2A2A" font-family="'Gotham-Light'" font-size="7.5px">cameras into our lives – and come close </text>
<text transform="matrix(1 0 0 1 179.0247 844.4163)" fill="#2A2A2A" font-family="'Gotham-Light'" font-size="7.5px">to sparking border conflict</text>
<rect x="151.13" y="474.2" fill="none" width="154.42" height="89.1"/>
<text transform="matrix(0.9715 0 0 1 193.4339 481.4961)" fill="#575756" font-family="'GothamBlack'" font-size="10px">James Bednar </text>
<text transform="matrix(0.9715 0 0 1 201.6721 493.4961)" fill="#575756" font-family="'GothamMedium-Italic'" font-size="10px">Continuum</text>
<text transform="matrix(0.9715 0 0 1 193.8953 509.6567)" fill="#E3097E" font-family="'GothamLight'" font-size="10px">Data + Python</text>
<text transform="matrix(1 0 0 1 170.4558 520.6567)" fill="#2A2A2A" font-family="'Gotham-Light'" font-size="7.5px">Reproducible science, scientific </text>
<text transform="matrix(1 0 0 1 156.8777 529.6567)" fill="#2A2A2A" font-family="'Gotham-Light'" font-size="7.5px">visualization, declarative programming </text>
<text transform="matrix(1 0 0 1 165.3826 538.6567)" fill="#2A2A2A" font-family="'Gotham-Light'" font-size="7.5px">and computational neuroscience... </text>
<text transform="matrix(1 0 0 1 177.6785 547.6567)" fill="#2A2A2A" font-family="'Gotham-Light'" font-size="7.5px"> as well as all things Python</text>
<rect x="152.13" y="647.04" fill="none" width="154.42" height="92.05"/>
<text transform="matrix(0.9715 0 0 1 198.5868 654.3367)" fill="#E3097E" font-family="'GothamMedium'" font-size="10px">WORKSHOP </text>
<text transform="matrix(0.9715 0 0 1 166.2372 666.3367)" fill="#E3097E" font-family="'GothamLight'" font-size="10px">Mapping our surroundings</text>
<text transform="matrix(1 0 0 1 157.8212 679.3367)" fill="#2A2A2A" font-family="'Gotham-Light'" font-size="7.5px">Exploring how to use maps to connect  </text>
<text transform="matrix(1 0 0 1 164.9989 688.3367)" fill="#2A2A2A" font-family="'Gotham-Light'" font-size="7.5px">us to our surroundings, rather than  </text>
<text transform="matrix(1 0 0 1 162.4828 697.3367)" fill="#2A2A2A" font-family="'Gotham-Light'" font-size="7.5px">traditionally providing set paths and </text>
<text transform="matrix(1 0 0 1 193.7235 706.3367)" fill="#2A2A2A" font-family="'Gotham-Light'" font-size="7.5px">limiting exploration</text>
<text transform="matrix(0.9715 0 0 1 186.9149 720.3367)" fill="#575756" font-family="'GothamExtraLight-Italic'" font-size="10px">run by Taxi Studio  </text>
<text transform="matrix(0.9715 0 0 1 194.7206 732.3367)" fill="#575756" font-family="'GothamExtraLight-Italic'" font-size="10px">and Met Office</text>
<rect x="152.13" y="1120.68" fill="none" width="154.42" height="14.46"/>
<text transform="matrix(0.9715 0 0 1 213.8832 1127.98)" fill="#156D70" font-family="'GothamMedium'" font-size="10px">Drinks</text>
<rect x="318.81" y="1120.68" fill="none" width="154.42" height="14.46"/>
<text transform="matrix(0.9715 0 0 1 350.7484 1127.98)" fill="#156D70" font-family="'GothamMedium'" font-size="10px">Conference dinner</text>
<rect x="152.13" y="901.62" fill="none" width="154.42" height="67.13"/>
<text transform="matrix(0.9715 0 0 1 196.0663 908.9225)" fill="#E3097E" font-family="'GothamMedium'" font-size="10px">HACKATHON </text>
<text transform="matrix(0.9715 0 0 1 199.8451 920.9225)" fill="#E3097E" font-family="'GothamLight'" font-size="10px">Introduction</text>
<text transform="matrix(1 0 0 1 162.704 933.9225)" fill="#2A2A2A" font-family="'Gotham-Light'" font-size="7.5px">Met Office Informatics Lab demoing  </text>
<text transform="matrix(1 0 0 1 159.3817 942.9225)" fill="#2A2A2A" font-family="'Gotham-Light'" font-size="7.5px">and discussing multiple hack projects, </text>
<text transform="matrix(1 0 0 1 182.6273 951.9225)" fill="#2A2A2A" font-family="'Gotham-Light'" font-size="7.5px">including a Techno Rhino</text>
<rect x="152.13" y="975.41" fill="none" width="154.42" height="82.08"/>
<text transform="matrix(0.9715 0 0 1 196.0663 982.7074)" fill="#E3097E" font-family="'GothamMedium'" font-size="10px">HACKATHON </text>
<text transform="matrix(0.9715 0 0 1 193.2635 994.7074)" fill="#E3097E" font-family="'GothamLight'" font-size="10px">L.E.D. mapping</text>
<text transform="matrix(1 0 0 1 157.034 1007.7074)" fill="#2A2A2A" font-family="'Gotham-Light'" font-size="7.5px">Developing and mapping LED arrays in </text>
<text transform="matrix(1 0 0 1 158.305 1016.7074)" fill="#2A2A2A" font-family="'Gotham-Light'" font-size="7.5px"> a real-time challenge to showcase the </text>
<text transform="matrix(1 0 0 1 186.475 1025.7074)" fill="#2A2A2A" font-family="'Gotham-Light'" font-size="7.5px">best data visualisations</text>
<text transform="matrix(0.9715 0 0 1 188.6004 1039.7074)" fill="#575756" font-family="'GothamExtraLight-Italic'" font-size="10px">run by Met Office  </text>
<text transform="matrix(0.9715 0 0 1 193.142 1051.7074)" fill="#575756" font-family="'GothamExtraLight-Italic'" font-size="10px">Informatics Lab</text>
<rect x="316.41" y="474.04" fill="none" width="154.42" height="84.83"/>
<text transform="matrix(0.9715 0 0 1 361.2465 481.3372)"><tspan x="0" y="0" fill="#575756" font-family="'GothamBlack'" font-size="10px">Zoe Hartland  </tspan><tspan x="-42.62" y="12" fill="#575756" font-family="'GothamMedium-Italic'" font-size="10px">Office of National Stats (ONS)</tspan><tspan x="-39.76" y="26" fill="#37B6BA" font-family="'GothamLight'" font-size="10px">Making stats more interesting</tspan><tspan x="4.6" y="50" fill="#575756" font-family="'GothamBlack'" font-size="10px">Matt Strom  </tspan><tspan x="9.57" y="62" fill="#575756" font-family="'GothamMedium-Italic'" font-size="10px">Planetary</tspan><tspan x="-29.08" y="76" fill="#37B6BA" font-family="'GothamLight'" font-size="10px">Storytelling with VR / AR</tspan></text>
<rect x="316.41" y="647.46" fill="none" width="154.42" height="84.83"/>
<text transform="matrix(0.9715 0 0 1 357.1953 654.7595)"><tspan x="0" y="0" fill="#575756" font-family="'GothamBlack'" font-size="10px">Mariana Morris  </tspan><tspan x="-37.88" y="12" fill="#575756" font-family="'GothamMedium-Italic'" font-size="10px">Oxford Computer Consultants</tspan><tspan x="-37.7" y="26" fill="#37B6BA" font-family="'GothamLight'" font-size="10px">UX techniques for clearer data</tspan><tspan x="-0.73" y="50" fill="#575756" font-family="'GothamBlack'" font-size="10px">Léonie Watson  </tspan><tspan x="-9.93" y="62" fill="#575756" font-family="'GothamMedium-Italic'" font-size="10px">The Paciello Group</tspan><tspan x="-4.57" y="76" fill="#37B6BA" font-family="'GothamLight'" font-size="10px">SVG accessibility</tspan></text>
<rect x="316.41" y="760.09" fill="none" width="154.42" height="84.83"/>
<text transform="matrix(0.9715 0 0 1 355.1894 767.3946)"><tspan x="0" y="0" fill="#575756" font-family="'GothamBlack'" font-size="10px">Barend Köbben </tspan><tspan x="-5.61" y="12" fill="#575756" font-family="'GothamMedium-Italic'" font-size="10px">University Twente</tspan><tspan x="1.69" y="26" fill="#37B6BA" font-family="'GothamLight'" font-size="10px">Thematic maps</tspan><tspan x="7.47" y="50" fill="#575756" font-family="'GothamBlack'" font-size="10px">Rob Wallace  </tspan><tspan x="25.11" y="62" fill="#575756" font-family="'GothamMedium-Italic'" font-size="10px">ERDC</tspan><tspan x="-36.22" y="76" fill="#37B6BA" font-family="'GothamLight'" font-size="10px">Comp. Modernization Program</tspan></text>
<rect x="316.41" y="973.28" fill="none" width="154.42" height="84.83"/>
<text transform="matrix(0.9715 0 0 1 357.2343 980.5787)"><tspan x="0" y="0" fill="#575756" font-family="'GothamBlack'" font-size="10px">Keith Andrews </tspan><tspan x="-41.89" y="12" fill="#575756" font-family="'GothamMedium-Italic'" font-size="10px">Graz University of Tech, Austria</tspan><tspan x="-20.53" y="26" fill="#37B6BA" font-family="'GothamLight'" font-size="10px">Responsive web design</tspan><tspan x="0.9" y="50" fill="#575756" font-family="'GothamBlack'" font-size="10px">Roy Walmsley  </tspan><tspan x="18.17" y="62" fill="#575756" font-family="'GothamMedium-Italic'" font-size="10px">WEB3D</tspan><tspan x="-14.66" y="76" fill="#37B6BA" font-family="'GothamLight'" font-size="10px">X3DOM and Cobweb</tspan></text>
<rect x="651.63" y="647.46" fill="none" width="154.42" height="84.83"/>
<text transform="matrix(0.9715 0 0 1 666.3347 654.7595)"><tspan x="0" y="0" fill="#575756" font-family="'GothamBlack'" font-size="10px">Emmanouil Potetsianakis  </tspan><tspan x="7.32" y="12" fill="#575756" font-family="'GothamMedium-Italic'" font-size="10px">Institut Mines-Télécom</tspan><tspan x="-2.49" y="26" fill="#37B6BA" font-family="'GothamLight'" font-size="10px">Enhanced video navigation</tspan><tspan x="3.25" y="50" fill="#575756" font-family="'GothamBlack'" font-size="10px">Genevieve Smith-Nunes </tspan><tspan x="16.41" y="62" fill="#575756" font-family="'GothamMedium-Italic'" font-size="10px">Ready Salted Code</tspan><tspan x="6.85" y="76" fill="#37B6BA" font-family="'GothamLight'" font-size="10px">Ballet / code / data vis.</tspan></text>
<rect x="651.63" y="474.04" fill="none" width="154.42" height="84.83"/>
<text transform="matrix(0.9715 0 0 1 702.697 481.3372)"><tspan x="0" y="0" fill="#575756" font-family="'GothamBlack'" font-size="10px">Tina Frank  </tspan><tspan x="-37.02" y="12" fill="#575756" font-family="'GothamMedium-Italic'" font-size="10px">Professor, Linz University</tspan><tspan x="-16.68" y="26" fill="#37B6BA" font-family="'GothamLight'" font-size="10px">Digital magazines</tspan><tspan x="-15.74" y="50" fill="#575756" font-family="'GothamBlack'" font-size="10px">Raphael Amorim </tspan><tspan x="-0.72" y="62" fill="#575756" font-family="'GothamMedium-Italic'" font-size="10px">CraveFood</tspan><tspan x="-37.88" y="76" fill="#37B6BA" font-family="'GothamLight'" font-size="10px">Using canvas components</tspan></text>
<rect x="485.36" y="474.04" fill="none" width="154.42" height="84.83"/>
<text transform="matrix(0.9715 0 0 1 534.1533 481.3372)"><tspan x="0" y="0" fill="#575756" font-family="'GothamBlack'" font-size="10px">Phil Brohan  </tspan><tspan x="2.98" y="12" fill="#575756" font-family="'GothamMedium-Italic'" font-size="10px">Met Office</tspan><tspan x="-30.89" y="26" fill="#E3097E" font-family="'GothamLight'" font-size="10px">Illustrating histoical data</tspan><tspan x="1.28" y="50" fill="#575756" font-family="'GothamBlack'" font-size="10px">Alan Smith  </tspan><tspan x="-9.41" y="62" fill="#575756" font-family="'GothamMedium-Italic'" font-size="10px">Financial Times</tspan><tspan x="-45.71" y="76" fill="#E3097E" font-family="'GothamLight'" font-size="10px">Data visualisation in the media</tspan></text>
<rect x="485.36" y="646.67" fill="none" width="154.42" height="84.83"/>
<text transform="matrix(0.9715 0 0 1 529.4848 653.9718)"><tspan x="0" y="0" fill="#575756" font-family="'GothamBlack'" font-size="10px">Barak Chamo  </tspan><tspan x="-23.19" y="12" fill="#575756" font-family="'GothamMedium-Italic'" font-size="10px">Data visualisation poet</tspan><tspan x="-38.65" y="26" fill="#E3097E" font-family="'GothamLight'" font-size="10px">Songwriting and composition</tspan><tspan x="-8.34" y="50" fill="#575756" font-family="'GothamBlack'" font-size="10px">Kassandra Perch  </tspan><tspan x="18.4" y="62" fill="#575756" font-family="'GothamMedium-Italic'" font-size="10px">Auth0</tspan><tspan x="-39.4" y="76" fill="#E3097E" font-family="'GothamLight'" font-size="10px">Experimental art and data vis.</tspan></text>
<rect x="485.36" y="759.31" fill="none" width="154.42" height="84.83"/>
<text transform="matrix(0.9715 0 0 1 542.9936 766.6068)"><tspan x="0" y="0" fill="#575756" font-family="'GothamBlack'" font-size="10px">Rob Fry  </tspan><tspan x="-48.8" y="12" fill="#575756" font-family="'GothamMedium-Italic'" font-size="10px">Office of National Statistics</tspan><tspan x="-50.73" y="26" fill="#E3097E" font-family="'GothamLight'" font-size="10px">Better stats, better decisions</tspan><tspan x="-12.04" y="50" fill="#575756" font-family="'GothamBlack'" font-size="10px">David Dailey  </tspan><tspan x="-41.3" y="62" fill="#575756" font-family="'GothamMedium-Italic'" font-size="10px">Slippery Rock University</tspan><tspan x="-15.77" y="76" fill="#E3097E" font-family="'GothamLight'" font-size="10px">Exploring SVG</tspan></text>
<rect x="317.76" y="317.14" fill="none" width="154.42" height="106.78"/>
<text transform="matrix(0.9715 0 0 1 357.8294 324.4427)" fill="#575756" font-family="'GothamBlack'" font-size="10px">Dr. Ed Hawkins </text>
<text transform="matrix(0.9715 0 0 1 341.324 336.4427)" fill="#575756" font-family="'GothamMedium-Italic'" font-size="10px">Dept. of Meteorology,  </text>
<text transform="matrix(0.9715 0 0 1 348.9256 348.4427)" fill="#575756" font-family="'GothamMedium-Italic'" font-size="10px">Reading University</text>
<text transform="matrix(0.9715 0 0 1 338.6912 364.6033)" fill="#37B6BA" font-family="'GothamLight'" font-size="10px">Visualising climate data</text>
<text transform="matrix(1 0 0 1 331.22 375.6033)" fill="#2A2A2A" font-family="'Gotham-Light'" font-size="7.5px">Discussing useful ways to visualise </text>
<text transform="matrix(1 0 0 1 327.6721 384.6033)" fill="#2A2A2A" font-family="'Gotham-Light'" font-size="7.5px">complex data and how his work was </text>
<text transform="matrix(1 0 0 1 331.4373 393.6033)" fill="#2A2A2A" font-family="'Gotham-Light'" font-size="7.5px"> used in the Opening Ceremony of  </text>
<text transform="matrix(1 0 0 1 357.6453 402.6033)" fill="#2A2A2A" font-family="'Gotham-Light'" font-size="7.5px">The Olympic Games  </text>
<rect x="487.11" y="317.14" fill="none" width="154.42" height="102.4"/>
<text transform="matrix(0.9715 0 0 1 525.9143 324.4427)" fill="#575756" font-family="'GothamBlack'" font-size="10px">Jaume Sanchez </text>
<text transform="matrix(0.9715 0 0 1 518.8518 336.4427)" fill="#575756" font-family="'GothamMedium-Italic'" font-size="10px">clicktorelease.com </text>
<text transform="matrix(0.9715 0 0 1 523.5247 364.6033)" fill="#E3097E" font-family="'GothamLight'" font-size="10px">WebGL · WebVR</text>
<text transform="matrix(1 0 0 1 497.5042 375.6033)" fill="#2A2A2A" font-family="'Gotham-Light'" font-size="7.5px">Revealing how WebVR enables web </text>
<text transform="matrix(1 0 0 1 508.0569 384.6033)" fill="#2A2A2A" font-family="'Gotham-Light'" font-size="7.5px">browsers to display immersive </text>
<text transform="matrix(1 0 0 1 493.4241 393.6033)" fill="#2A2A2A" font-family="'Gotham-Light'" font-size="7.5px">environments, providing new effective </text>
<text transform="matrix(1 0 0 1 489.1272 402.6033)" fill="#2A2A2A" font-family="'Gotham-Light'" font-size="7.5px">ways to represent and interact with data</text>
<rect x="651.95" y="317.14" fill="none" width="154.42" height="94.85"/>
<text transform="matrix(0.9715 0 0 1 685.4005 324.4427)" fill="#575756" font-family="'GothamBlack'" font-size="10px">Rabimba Karanjai </text>
<text transform="matrix(0.9715 0 0 1 712.1115 336.4427)" fill="#575756" font-family="'GothamMedium-Italic'" font-size="10px">Mozilla </text>
<text transform="matrix(0.9715 0 0 1 722.0011 364.6033)" fill="#37B6BA" font-family="'GothamLight'" font-size="10px">VR</text>
<text transform="matrix(1 0 0 1 656.5724 375.6033)" fill="#2A2A2A" font-family="'Gotham-Light'" font-size="7.5px">Using Javascript to interact with virtual </text>
<text transform="matrix(1 0 0 1 659.0245 384.6033)" fill="#2A2A2A" font-family="'Gotham-Light'" font-size="7.5px">objects, enriching the experience with </text>
<text transform="matrix(1 0 0 1 655.4513 393.6033)" fill="#2A2A2A" font-family="'Gotham-Light'" font-size="7.5px">interaction using augmented reality and </text>
<text transform="matrix(1 0 0 1 679.5138 402.6033)" fill="#2A2A2A" font-family="'Gotham-Light'" font-size="7.5px">your mobile phone camera</text>
<rect x="151.13" y="269.47" fill="none" width="154.42" height="19.98"/>
<text transform="matrix(0.9715 0 0 1 205.6057 276.7739)" fill="#575756" font-family="'GothamLight'" font-size="10px">Welcome</text>
<rect x="151.13" y="580.88" fill="none" width="154.42" height="19.98"/>
<text transform="matrix(0.9715 0 0 1 202.1087 588.1805)" fill="#575756" font-family="'GothamMedium'" font-size="10px">Panel Q&amp;A</text>
<rect x="318.72" y="580.88" fill="none" width="154.42" height="19.98"/>
<text transform="matrix(0.9715 0 0 1 369.6923 588.1805)" fill="#575756" font-family="'GothamMedium'" font-size="10px">Panel Q&amp;A</text>
<rect x="485.15" y="580.88" fill="none" width="154.42" height="19.98"/>
<text transform="matrix(0.9715 0 0 1 536.1201 588.1805)" fill="#575756" font-family="'GothamMedium'" font-size="10px">Panel Q&amp;A</text>
<rect x="652.73" y="580.88" fill="none" width="154.42" height="19.98"/>
<text transform="matrix(0.9715 0 0 1 703.7037 588.1805)" fill="#575756" font-family="'GothamMedium'" font-size="10px">Panel Q&amp;A</text>
<rect x="151.13" y="440.51" fill="none" width="154.42" height="19.98"/>
<text transform="matrix(0.9715 0 0 1 199.0437 447.8071)" fill="#575756" font-family="'GothamExtraLight'" font-size="10px">Tea / Coffee</text>
<rect x="319.23" y="440.51" fill="none" width="154.42" height="19.98"/>
<text transform="matrix(0.9715 0 0 1 367.137 447.8071)" fill="#575756" font-family="'GothamExtraLight'" font-size="10px">Tea / Coffee</text>
<rect x="486.07" y="440.51" fill="none" width="154.42" height="19.98"/>
<text transform="matrix(0.9715 0 0 1 533.9758 447.8071)" fill="#575756" font-family="'GothamExtraLight'" font-size="10px">Tea / Coffee</text>
<rect x="652.91" y="440.51" fill="none" width="154.42" height="19.98"/>
<text transform="matrix(0.9715 0 0 1 700.8157 447.8071)" fill="#575756" font-family="'GothamExtraLight'" font-size="10px">Tea / Coffee</text>
<rect x="151.13" y="866.88" fill="none" width="154.42" height="19.98"/>
<text transform="matrix(0.9715 0 0 1 199.0437 874.176)" fill="#575756" font-family="'GothamExtraLight'" font-size="10px">Tea / Coffee</text>
<rect x="319.23" y="866.88" fill="none" width="154.42" height="19.98"/>
<text transform="matrix(0.9715 0 0 1 367.137 874.176)" fill="#575756" font-family="'GothamExtraLight'" font-size="10px">Tea / Coffee</text>
<rect x="486.07" y="866.88" fill="none" width="154.42" height="19.98"/>
<text transform="matrix(0.9715 0 0 1 533.9758 874.176)" fill="#575756" font-family="'GothamExtraLight'" font-size="10px">Tea / Coffee</text>
<rect x="652.91" y="866.88" fill="none" width="154.42" height="19.98"/>
<text transform="matrix(0.9715 0 0 1 700.8157 874.176)" fill="#575756" font-family="'GothamExtraLight'" font-size="10px">Tea / Coffee</text>
<rect x="318.23" y="269.47" fill="none" width="154.42" height="19.98"/>
<text transform="matrix(0.9715 0 0 1 337.534 276.7739)" fill="#575756" font-family="'GothamLight'" font-size="10px">Welcome / Day 1 review</text>
<rect x="485.32" y="269.47" fill="none" width="154.42" height="19.98"/>
<text transform="matrix(0.9715 0 0 1 503.386 276.7739)" fill="#575756" font-family="'GothamLight'" font-size="10px">Welcome / Day 2 review</text>
<rect x="653" y="269.47" fill="none" width="154.42" height="19.98"/>
<text transform="matrix(0.9715 0 0 1 670.9788 276.7739)" fill="#575756" font-family="'GothamLight'" font-size="10px">Welcome / Day 3 review</text>
<rect x="317.03" y="214.47" fill="none" width="154.42" height="52.74"/>
<text transform="matrix(0.9715 0 0 1 365.1482 221.7678)"><tspan x="0" y="0" fill="#575756" font-family="'GothamLight'" font-size="10px">Registration  </tspan><tspan x="3.69" y="12" fill="#575756" font-family="'GothamLight'" font-size="10px">and coffee</tspan></text>
<rect x="485.76" y="214.47" fill="none" width="154.42" height="52.74"/>
<text transform="matrix(0.9715 0 0 1 533.8762 221.7678)"><tspan x="0" y="0" fill="#575756" font-family="'GothamLight'" font-size="10px">Registration  </tspan><tspan x="3.7" y="12" fill="#575756" font-family="'GothamLight'" font-size="10px">and coffee</tspan></text>
<rect x="653.29" y="214.47" fill="none" width="154.42" height="52.74"/>
<text transform="matrix(0.9715 0 0 1 701.4094 221.7678)"><tspan x="0" y="0" fill="#575756" font-family="'GothamLight'" font-size="10px">Registration  </tspan><tspan x="3.7" y="12" fill="#575756" font-family="'GothamLight'" font-size="10px">and coffee</tspan></text>
<rect x="30" y="1066.61" fill="#B1B1B1" width="617.36" height="32.54"/>
<rect x="308.12" y="128.49" fill="#5E5F5F" width="5.07" height="1042.57"/>
<rect x="145.77" y="128.49" fill="#5E5F5F" width="5.07" height="1042.57"/>
<rect x="476.76" y="128.49" fill="#5E5F5F" width="5.07" height="1042.57"/>
<rect x="643.55" y="128.49" fill="#5E5F5F" width="5.07" height="1042.57"/>
<g>
	<polygon id="_438677888_7_" fill="#37B6BA" points="491.53,188.06 332.22,170.49 306.63,213.61 	"/>
	<rect x="315.98" y="184.37" fill="none" width="158.58" height="23.11"/>
	<text transform="matrix(1 0 0 1 348.8543 193.193)" fill="#FFFFFF" font-family="'GothamLight'" font-size="12.0893px">DATA TO INFO</text>
	<polygon id="_438677888_8_" fill="#E3097E" points="637.04,169.24 472.71,188.06 624.5,213.15 	"/>
	<rect x="485.33" y="184.37" fill="none" width="158.58" height="23.11"/>
	<text transform="matrix(1 0 0 1 516.3713 193.193)" fill="#FFFFFF" font-family="'GothamLight'" font-size="12.0893px">STORYTELLING</text>
	<polygon id="_438677888_9_" fill="#37B6BA" points="833.99,196.84 639.55,200.6 714.82,166.73 	"/>
	<rect x="649.66" y="184.37" fill="none" width="158.58" height="23.11"/>
	<text transform="matrix(1 0 0 1 670.2981 193.193)" fill="#FFFFFF" font-family="'GothamLight'" font-size="12.0893px">BEYOND THE WEB</text>
</g>
<g>
	<g>
		
			<line fill="none" stroke="#6F6F6E" stroke-linecap="round" stroke-miterlimit="10" x1="317.99" y1="515.14" x2="317.99" y2="515.14"/>
		
			<line fill="none" stroke="#6F6F6E" stroke-linecap="round" stroke-miterlimit="10" stroke-dasharray="0,1.9988" x1="319.98" y1="515.14" x2="468.9" y2="515.14"/>
		
			<line fill="none" stroke="#6F6F6E" stroke-linecap="round" stroke-miterlimit="10" x1="469.89" y1="515.14" x2="469.89" y2="515.14"/>
	</g>
</g>
<rect x="316.41" y="898.75" fill="none" width="154.42" height="68.01"/>
<text transform="matrix(0.9715 0 0 1 363.0195 906.052)"><tspan x="0" y="0" fill="#575756" font-family="'GothamBlack'" font-size="10px">Sandro Buss  </tspan><tspan x="-1.93" y="12" fill="#575756" font-family="'GothamMedium-Italic'" font-size="10px">Solar Takeoff</tspan><tspan x="-5.9" y="34" fill="#575756" font-family="'GothamBlack'" font-size="10px">Matt Standage  </tspan><tspan x="-43.87" y="46" fill="#575756" font-family="'GothamMedium-Italic'" font-size="10px">Oxford Computer Consultants</tspan></text>
<g>
	<g>
		
			<line fill="none" stroke="#6F6F6E" stroke-linecap="round" stroke-miterlimit="10" x1="317.99" y1="924.97" x2="317.99" y2="924.97"/>
		
			<line fill="none" stroke="#6F6F6E" stroke-linecap="round" stroke-miterlimit="10" stroke-dasharray="0,1.9988" x1="319.98" y1="924.97" x2="468.9" y2="924.97"/>
		
			<line fill="none" stroke="#6F6F6E" stroke-linecap="round" stroke-miterlimit="10" x1="469.89" y1="924.97" x2="469.89" y2="924.97"/>
	</g>
</g>
<g>
	<g>
		
			<line fill="none" stroke="#6F6F6E" stroke-linecap="round" stroke-miterlimit="10" x1="317.99" y1="688.26" x2="317.99" y2="688.26"/>
		
			<line fill="none" stroke="#6F6F6E" stroke-linecap="round" stroke-miterlimit="10" stroke-dasharray="0,1.9988" x1="319.98" y1="688.26" x2="468.9" y2="688.26"/>
		
			<line fill="none" stroke="#6F6F6E" stroke-linecap="round" stroke-miterlimit="10" x1="469.89" y1="688.26" x2="469.89" y2="688.26"/>
	</g>
</g>
<g>
	<g>
		
			<line fill="none" stroke="#6F6F6E" stroke-linecap="round" stroke-miterlimit="10" x1="486.32" y1="688.26" x2="486.32" y2="688.26"/>
		
			<line fill="none" stroke="#6F6F6E" stroke-linecap="round" stroke-miterlimit="10" stroke-dasharray="0,1.9988" x1="488.31" y1="688.26" x2="637.23" y2="688.26"/>
		
			<line fill="none" stroke="#6F6F6E" stroke-linecap="round" stroke-miterlimit="10" x1="638.23" y1="688.26" x2="638.23" y2="688.26"/>
	</g>
</g>
<g>
	<g>
		
			<line fill="none" stroke="#6F6F6E" stroke-linecap="round" stroke-miterlimit="10" x1="317.99" y1="800.67" x2="317.99" y2="800.67"/>
		
			<line fill="none" stroke="#6F6F6E" stroke-linecap="round" stroke-miterlimit="10" stroke-dasharray="0,1.9988" x1="319.98" y1="800.67" x2="468.9" y2="800.67"/>
		
			<line fill="none" stroke="#6F6F6E" stroke-linecap="round" stroke-miterlimit="10" x1="469.89" y1="800.67" x2="469.89" y2="800.67"/>
	</g>
</g>
<g>
	<g>
		
			<line fill="none" stroke="#6F6F6E" stroke-linecap="round" stroke-miterlimit="10" x1="317.99" y1="1014.26" x2="317.99" y2="1014.26"/>
		
			<line fill="none" stroke="#6F6F6E" stroke-linecap="round" stroke-miterlimit="10" stroke-dasharray="0,1.9988" x1="319.98" y1="1014.26" x2="468.9" y2="1014.26"/>
		
			<line fill="none" stroke="#6F6F6E" stroke-linecap="round" stroke-miterlimit="10" x1="469.89" y1="1014.26" x2="469.89" y2="1014.26"/>
	</g>
</g>
<rect x="651.77" y="758.34" fill="none" width="155.41" height="99.19"/>
<text transform="matrix(0.9715 0 0 1 701.9028 765.6412)"><tspan x="0" y="0" fill="#575756" font-family="'GothamBlack'" font-size="10px">Edan Kwan  </tspan><tspan x="15.86" y="12" fill="#575756" font-family="'GothamMedium-Italic'" font-size="10px">Kuva</tspan><tspan x="-19.15" y="33" fill="#575756" font-family="'GothamBlack'" font-size="10px">Vasilis van Gemert  </tspan><tspan x="-27.46" y="45" fill="#575756" font-family="'GothamMedium-Italic'" font-size="10px">Amsterdam University</tspan><tspan x="-8.36" y="66" fill="#575756" font-family="'GothamBlack'" font-size="10px">Vitaliy Bobrov </tspan><tspan x="3.39" y="78" fill="#575756" font-family="'GothamMedium-Italic'" font-size="10px">Provectus</tspan></text>
<g>
	<g>
		
			<line fill="none" stroke="#6F6F6E" stroke-linecap="round" stroke-miterlimit="10" x1="486.32" y1="800.67" x2="486.32" y2="800.67"/>
		
			<line fill="none" stroke="#6F6F6E" stroke-linecap="round" stroke-miterlimit="10" stroke-dasharray="0,1.9988" x1="488.31" y1="800.67" x2="637.23" y2="800.67"/>
		
			<line fill="none" stroke="#6F6F6E" stroke-linecap="round" stroke-miterlimit="10" x1="638.23" y1="800.67" x2="638.23" y2="800.67"/>
	</g>
</g>
<g>
	<g>
		
			<line fill="none" stroke="#6F6F6E" stroke-linecap="round" stroke-miterlimit="10" x1="654.65" y1="784.67" x2="654.65" y2="784.67"/>
		
			<line fill="none" stroke="#6F6F6E" stroke-linecap="round" stroke-miterlimit="10" stroke-dasharray="0,1.9988" x1="656.64" y1="784.67" x2="805.56" y2="784.67"/>
		
			<line fill="none" stroke="#6F6F6E" stroke-linecap="round" stroke-miterlimit="10" x1="806.56" y1="784.67" x2="806.56" y2="784.67"/>
	</g>
</g>
<g>
	<g>
		
			<line fill="none" stroke="#6F6F6E" stroke-linecap="round" stroke-miterlimit="10" x1="654.65" y1="817.63" x2="654.65" y2="817.63"/>
		
			<line fill="none" stroke="#6F6F6E" stroke-linecap="round" stroke-miterlimit="10" stroke-dasharray="0,1.9988" x1="656.64" y1="817.63" x2="805.56" y2="817.63"/>
		
			<line fill="none" stroke="#6F6F6E" stroke-linecap="round" stroke-miterlimit="10" x1="806.56" y1="817.63" x2="806.56" y2="817.63"/>
	</g>
</g>
<g>
	<g>
		
			<line fill="none" stroke="#6F6F6E" stroke-linecap="round" stroke-miterlimit="10" x1="652.06" y1="688.26" x2="652.06" y2="688.26"/>
		
			<line fill="none" stroke="#6F6F6E" stroke-linecap="round" stroke-miterlimit="10" stroke-dasharray="0,1.9988" x1="654.05" y1="688.26" x2="802.97" y2="688.26"/>
		
			<line fill="none" stroke="#6F6F6E" stroke-linecap="round" stroke-miterlimit="10" x1="803.97" y1="688.26" x2="803.97" y2="688.26"/>
	</g>
</g>
<g>
	<g>
		
			<line fill="none" stroke="#6F6F6E" stroke-linecap="round" stroke-miterlimit="10" x1="486.41" y1="514.14" x2="486.41" y2="514.14"/>
		
			<line fill="none" stroke="#6F6F6E" stroke-linecap="round" stroke-miterlimit="10" stroke-dasharray="0,1.9988" x1="488.41" y1="514.14" x2="637.32" y2="514.14"/>
		
			<line fill="none" stroke="#6F6F6E" stroke-linecap="round" stroke-miterlimit="10" x1="638.32" y1="514.14" x2="638.32" y2="514.14"/>
	</g>
</g>
<g>
	<g>
		<line fill="none" stroke="#6F6F6E" stroke-linecap="round" stroke-miterlimit="10" x1="654" y1="514.14" x2="654" y2="514.14"/>
		
			<line fill="none" stroke="#6F6F6E" stroke-linecap="round" stroke-miterlimit="10" stroke-dasharray="0,1.9988" x1="656" y1="514.14" x2="804.91" y2="514.14"/>
		
			<line fill="none" stroke="#6F6F6E" stroke-linecap="round" stroke-miterlimit="10" x1="805.91" y1="514.14" x2="805.91" y2="514.14"/>
	</g>
</g>
<rect x="39.22" y="1077.65" fill="none" width="105.35" height="17.86"/>
<text transform="matrix(0.9715 0 0 1 39.2166 1085.6793)" fill="#FFFFFF" font-family="'GothamLight'" font-size="11px">17:00 - 17:15</text>
<rect x="151.13" y="1077.74" fill="none" width="154.42" height="19.98"/>
<text transform="matrix(0.9715 0 0 1 189.1399 1085.0388)" fill="#FFFFFF" font-family="'GothamExtraLight'" font-size="10px">Roundup / close</text>
<rect x="319.66" y="1077.74" fill="none" width="154.42" height="19.98"/>
<text transform="matrix(0.9715 0 0 1 357.6672 1085.0388)" fill="#FFFFFF" font-family="'GothamExtraLight'" font-size="10px">Roundup / close</text>
<rect x="484.49" y="1077.74" fill="none" width="154.42" height="19.98"/>
<text transform="matrix(0.9715 0 0 1 522.4905 1085.0388)" fill="#FFFFFF" font-family="'GothamExtraLight'" font-size="10px">Roundup / close</text>
<rect x="652.76" y="896.64" fill="none" width="154.42" height="19.98"/>
<text transform="matrix(0.9715 0 0 1 690.7606 903.9412)" fill="#FFFFFF" font-family="'GothamExtraLight'" font-size="10px">Roundup / close</text>
<rect x="486.06" y="896.99" fill="none" width="154.42" height="58.48"/>
<text transform="matrix(0.9715 0 0 1 532.5159 904.285)" fill="#E3097E" font-family="'GothamMedium'" font-size="10px">WORKSHOP </text>
<text transform="matrix(0.9715 0 0 1 542.7458 916.285)" fill="#E3097E" font-family="'GothamLight'" font-size="10px">Usability</text>
<text transform="matrix(1 0 0 1 505.2429 929.285)" fill="#2A2A2A" font-family="'Gotham-Light'" font-size="7.5px">Demonstrating real-time, quick, </text>
<text transform="matrix(1 0 0 1 497.6492 938.285)" fill="#2A2A2A" font-family="'Gotham-Light'" font-size="7.5px">inexpensive mobile usability testing </text>
<text transform="matrix(0.9715 0 0 1 508.9382 952.285)" fill="#575756" font-family="'GothamExtraLight-Italic'" font-size="10px">Run by Informatics Lab</text>
<rect x="486.06" y="973.29" fill="none" width="154.42" height="86.29"/>
<text transform="matrix(0.9715 0 0 1 532.5159 980.5914)" fill="#E3097E" font-family="'GothamMedium'" font-size="10px">WORKSHOP </text>
<text transform="matrix(0.9715 0 0 1 540.3948 992.5914)" fill="#E3097E" font-family="'GothamLight'" font-size="10px">Playroom </text>
<text transform="matrix(0.9715 0 0 1 527.8918 1004.5914)" fill="#E3097E" font-family="'GothamLight'" font-size="10px"> and showcase</text>
<text transform="matrix(1 0 0 1 502.4041 1017.5914)" fill="#2A2A2A" font-family="'Gotham-Light'" font-size="7.5px">Try, test, explore, showcase, play </text>
<text transform="matrix(1 0 0 1 536.7312 1026.5913)" fill="#2A2A2A" font-family="'Gotham-Light'" font-size="7.5px">...and have fun</text>
<text transform="matrix(0.9715 0 0 1 505.0525 1040.5913)" fill="#575756" font-family="'GothamExtraLight-Italic'" font-size="10px">run by Ruud Steltenpool, </text>
<rect x="27.64" y="1149.4" fill="#575756" width="784.1" height="24.11"/>
<rect x="34.81" y="1156.33" fill="none" width="772.42" height="27.17"/>
<text transform="matrix(1 0 0 1 265.4496 1165.0948)"><tspan x="0" y="0" fill="#FFFFFF" font-family="'GothamLight'" font-size="12px">For more information visit </tspan><tspan x="157.67" y="0" fill="#FFFFFF" font-family="'GothamBold'" font-size="12px">www.graphicalweb.co.uk</tspan></text>
<g>
	<g>
		<polygon fill="#E265A0" points="92.52,22.08 90.21,18.54 92.52,17.1 		"/>
		<polygon fill="#E265A0" points="92.52,22.08 94.83,18.54 92.52,17.1 		"/>
	</g>
	<g>
		<polygon id="_438677864_14_" fill="#E265A0" points="25.71,135.44 23.8,139.21 21.4,137.93 		"/>
		<polygon id="_438677888_15_" fill="#E265A0" points="25.71,135.44 21.49,135.21 21.4,137.93 		"/>
	</g>
	<g>
		<polygon id="_376294400_14_" fill="#E265A0" points="159.92,135.44 164.15,135.21 164.24,137.93 		"/>
		<polygon id="_376294568_15_" fill="#E265A0" points="159.92,135.44 161.84,139.21 164.24,137.93 		"/>
	</g>
	<polygon fill="#E265A0" points="78.47,39.27 91.87,52.68 91.87,31.48 	"/>
	<polygon fill="#37B6BA" points="105.26,39.27 91.87,52.68 91.87,31.48 	"/>
	<polygon fill="#37B6BA" points="78.47,39.27 81.35,63.17 73.43,53.64 	"/>
	<polygon fill="#37B6BA" points="105.26,39.27 102.38,63.17 110.31,53.64 	"/>
	<polygon id="_375375696_13_" fill="#37B6BA" points="34.94,79.87 53.25,74.98 34.89,64.37 	"/>
	<polygon id="_375375720_13_" fill="#E265A0" points="48.33,56.67 53.25,74.98 34.89,64.37 	"/>
	<polygon id="_375375816_13_" fill="#E265A0" points="48.33,56.67 67.59,71.12 63.3,59.48 	"/>
	<polygon id="_438677912_13_" fill="#E265A0" points="48.33,137.87 53.25,119.57 34.89,130.17 	"/>
	<polygon id="_438677936_13_" fill="#37B6BA" points="34.94,114.67 53.25,119.57 34.89,130.17 	"/>
	<polygon id="_438678008_13_" fill="#E265A0" points="48.33,137.87 67.59,123.43 63.3,135.06 	"/>
	<polygon id="_376302392_13_" fill="#E265A0" points="105.26,155.27 91.87,141.86 91.87,163.07 	"/>
	<polygon id="_376304864_13_" fill="#37B6BA" points="78.47,155.27 91.87,141.86 91.87,163.07 	"/>
	<polygon id="_376304384_13_" fill="#37B6BA" points="105.26,155.27 102.38,131.37 110.31,140.91 	"/>
	<polygon id="_376304432_13_" fill="#37B6BA" points="78.47,155.27 81.35,131.37 73.43,140.91 	"/>
	<polygon id="_376293872_13_" fill="#E265A0" points="148.79,114.67 130.48,119.56 148.85,130.17 	"/>
	<polygon id="_376293200_13_" fill="#37B6BA" points="135.4,137.87 130.48,119.56 148.85,130.17 	"/>
	<polygon id="_376300088_13_" fill="#E265A0" points="135.4,137.87 116.14,123.42 120.44,135.06 	"/>
	<polygon id="_374221608_13_" fill="#E265A0" points="135.4,56.67 130.48,74.98 148.85,64.37 	"/>
	<polygon id="_374221776_13_" fill="#37B6BA" points="148.79,79.87 130.48,74.98 148.85,64.37 	"/>
	<polygon id="_374222280_13_" fill="#E265A0" points="135.4,56.67 116.14,71.12 120.43,59.48 	"/>
	<polygon id="_446189792_13_" fill="#E265A0" points="110.45,38.28 115.35,56.6 125.95,38.23 	"/>
	<polygon id="_446189624_13_" fill="#37B6BA" points="133.66,51.68 115.35,56.6 125.95,38.23 	"/>
	<polygon id="_448054032_13_" fill="#E265A0" points="50.08,51.68 68.38,56.6 57.78,38.23 	"/>
	<polygon id="_375838080_13_" fill="#37B6BA" points="73.28,38.28 68.38,56.6 57.78,38.23 	"/>
	<polygon id="_374226552_13_" fill="#E265A0" points="73.28,156.26 68.38,137.95 57.78,156.31 	"/>
	<polygon id="_379020712_13_" fill="#37B6BA" points="50.08,142.86 68.38,137.95 57.78,156.31 	"/>
	<polygon id="_379003696_13_" fill="#E265A0" points="133.66,142.86 115.35,137.95 125.95,156.31 	"/>
	<polygon id="_379003744_13_" fill="#37B6BA" points="110.46,156.26 115.35,137.95 125.95,156.31 	"/>
	<g>
		<polygon fill="#BDC844" points="92.56,29.99 82.05,19.48 92.56,25.95 		"/>
		<polygon fill="#BDC844" points="92.56,29.99 103.07,19.48 92.56,25.95 		"/>
	</g>
	<path fill="#FFFFFF" d="M19.8,100.76c-2.23-2.23-3.34-4.91-3.34-8.06s1.11-5.83,3.34-8.06s4.91-3.34,8.06-3.34
		c1.55,0,3.03,0.3,4.44,0.89l-1.31,3.14c-1-0.43-2.04-0.64-3.12-0.64c-2.21,0-4.09,0.79-5.65,2.36c-1.56,1.56-2.34,3.45-2.34,5.65
		c0,2.21,0.78,4.09,2.34,5.65c1.56,1.56,3.45,2.34,5.65,2.34c0.72,0,1.42-0.09,2.09-0.27v-6.09h-3.62v-3.4h7.03v11.82l-1.03,0.44
		c-1.43,0.6-2.92,0.91-4.47,0.91C24.71,104.11,22.03,102.99,19.8,100.76z"/>
	<path fill="#FFFFFF" d="M51.74,103.89h-3.83l-4.89-9.42H39.2v9.42h-3.39V81.54h8.25c1.78,0,3.3,0.64,4.56,1.91
		c1.27,1.26,1.91,2.78,1.91,4.58c0,1.31-0.37,2.51-1.11,3.59c-0.72,1.06-1.66,1.84-2.83,2.34L51.74,103.89z M44.05,91.08
		c0.84,0,1.57-0.3,2.17-0.91c0.59-0.59,0.89-1.31,0.89-2.16c0-0.85-0.3-1.58-0.89-2.19c-0.6-0.6-1.33-0.91-2.17-0.91H39.2v6.15
		H44.05z"/>
	<path fill="#FFFFFF" d="M78.03,103.89h-3.39V81.54h8.25c1.78,0,3.3,0.64,4.56,1.91c1.27,1.26,1.91,2.78,1.91,4.58
		c0,1.78-0.64,3.3-1.91,4.56c-1.26,1.26-2.78,1.89-4.56,1.89h-4.86V103.89z M78.03,91.08h4.86c0.84,0,1.57-0.3,2.17-0.91
		c0.59-0.59,0.89-1.31,0.89-2.16c0-0.85-0.3-1.58-0.89-2.19c-0.6-0.6-1.33-0.91-2.17-0.91h-4.86V91.08z"/>
	<path fill="#FFFFFF" d="M107.99,81.54v22.35h-3.39v-9.49h-9.09v9.49h-3.39V81.57h3.39V91h9.09v-9.46H107.99z"/>
	<path fill="#FFFFFF" d="M114.97,103.89h-3.39V81.57h3.39V103.89z"/>
	<path fill="#FFFFFF" d="M129.08,100.7c1.35,0,2.62-0.32,3.79-0.95v3.7c-1.23,0.44-2.49,0.66-3.79,0.66c-3.14,0-5.83-1.11-8.06-3.34
		c-2.23-2.23-3.34-4.91-3.34-8.06s1.11-5.83,3.34-8.06c2.23-2.23,4.91-3.34,8.06-3.34c1.3,0,2.57,0.21,3.79,0.64v3.72
		c-1.18-0.65-2.44-0.97-3.79-0.97c-2.21,0-4.09,0.79-5.65,2.36c-1.56,1.56-2.34,3.45-2.34,5.65c0,2.21,0.78,4.09,2.34,5.65
		C124.99,99.92,126.88,100.7,129.08,100.7z"/>
	<path fill="#FFFFFF" d="M152.82,81.54v22.35h-3.4v-5.22h-7.59l-3.3,5.22h-4.01l14.13-22.35H152.82z M143.97,95.28h5.45v-8.6
		L143.97,95.28z"/>
	<path fill="#FFFFFF" d="M160.02,81.54v18.96h8.01v3.39h-11.4V81.54H160.02z"/>
	<rect x="22.73" y="109.96" fill="none" width="138.45" height="27.06"/>
	<text transform="matrix(1 0 0 1 69.7871 125.9803)" fill="#FFFFFF" font-family="'DolceVita'" font-size="22.8446px">WEB</text>
	<polygon fill="#E265A0" points="71.54,78.07 51.77,108.32 68.79,103.01 	"/>
	<g>
		<polygon fill="#BDC844" points="33.13,64.34 18.73,68.06 29.64,62.28 		"/>
		<polygon fill="#BDC844" points="33.13,64.34 29.4,49.94 29.64,62.28 		"/>
	</g>
	<g>
		<polygon fill="#BDC844" points="150.85,64.34 165.24,68.06 154.34,62.28 		"/>
		<polygon fill="#BDC844" points="150.85,64.34 154.57,49.94 154.34,62.28 		"/>
	</g>
	<g>
		<polygon fill="#BDC844" points="92.56,165.06 82.05,175.58 92.56,169.11 		"/>
		<polygon fill="#BDC844" points="92.56,165.06 103.07,175.58 92.56,169.11 		"/>
	</g>
	<g>
		<polygon fill="#BDC844" points="33.13,130.72 18.73,127 29.64,132.77 		"/>
		<polygon fill="#BDC844" points="33.13,130.72 29.4,145.11 29.64,132.77 		"/>
	</g>
	<g>
		<polygon fill="#BDC844" points="150.85,130.72 165.24,127 154.34,132.77 		"/>
		<polygon fill="#BDC844" points="150.85,130.72 154.57,145.11 154.34,132.77 		"/>
	</g>
	<g>
		<polygon fill="#37B6BA" points="92.03,58.73 88.31,64.54 92.03,71.72 		"/>
		<polygon fill="#37B6BA" points="92.03,58.73 95.75,64.54 92.03,71.72 		"/>
		<polygon id="_448053648_10_" fill="#37B6BA" points="74.7,68.73 77.88,74.86 85.95,75.23 		"/>
		<polygon id="_377572744_10_" fill="#37B6BA" points="74.7,68.73 81.6,68.42 85.95,75.23 		"/>
		<polygon id="_374223624_10_" fill="#37B6BA" points="109.36,68.73 102.46,68.42 98.11,75.22 		"/>
		<polygon id="_374223792_10_" fill="#37B6BA" points="109.36,68.73 106.18,74.86 98.11,75.22 		"/>
	</g>
</g>
<rect x="39.22" y="613.18" fill="none" width="105.35" height="17.86"/>
<text transform="matrix(0.9715 0 0 1 39.2166 621.2095)" fill="#FFFFFF" font-family="'GothamLight'" font-size="11px">12:15 - 13:00</text>
<rect x="151.13" y="613.52" fill="none" width="154.42" height="19.98"/>
<text transform="matrix(0.9715 0 0 1 192.4187 620.8165)" fill="#FFFFFF" font-family="'GothamExtraLight'" font-size="10px">Lunch and tour</text>
<rect x="318.72" y="613.52" fill="none" width="154.42" height="19.98"/>
<text transform="matrix(0.9715 0 0 1 360.0023 620.8165)" fill="#FFFFFF" font-family="'GothamExtraLight'" font-size="10px">Lunch and tour</text>
<rect x="485.15" y="613.52" fill="none" width="154.42" height="19.98"/>
<text transform="matrix(0.9715 0 0 1 526.4302 620.8165)" fill="#FFFFFF" font-family="'GothamExtraLight'" font-size="10px">Lunch and tour</text>
<rect x="653.89" y="613.52" fill="none" width="154.42" height="19.98"/>
<text transform="matrix(0.9715 0 0 1 695.1696 620.8165)" fill="#FFFFFF" font-family="'GothamExtraLight'" font-size="10px">Lunch and tour</text>
<polygon id="_379072240_3_" fill="#36B7BC" points="55.64,661.74 -2.68,777.6 -31.39,683.04 "/>
<polygon id="_374219928_3_" fill="#36B7BC" points="793.11,560.68 851.43,444.81 880.15,539.38 "/>
<polygon id="_316591864_3_" fill="#E5007E" points="745.98,1070.6 692.72,1005.27 692.73,1039.85 "/>
<g>
	<polygon id="_376293872_3_" fill="#36B7BC" points="764.82,971.91 658.85,1000.24 765.13,1061.6 	"/>
	<polygon id="_376293200_3_" fill="#36B7BC" points="687.3,1106.19 658.85,1000.24 765.13,1061.6 	"/>
	<polygon id="_376296776_3_" fill="#E5007E" points="672.65,973.55 705.27,1007.62 653.54,1004.21 	"/>
	<polygon id="_376297016_3_" fill="#E5007E" points="629.51,1048.28 675.32,1059.49 646.5,1016.4 	"/>
	<polygon id="_376294400_3_" fill="#E5007E" points="640.67,1004.9 653.54,1004.21 653.81,1012.49 	"/>
	<polygon id="_376294568_5_" fill="#E5007E" points="640.67,1004.9 646.5,1016.4 653.81,1012.49 	"/>
	<polygon id="_374218584_3_" fill="#E5007E" points="758.53,1072.95 675.32,1059.49 705.28,1042.21 	"/>
</g>
<polygon id="_448056048_3_" fill="#E5007E" points="44.23,370.77 123.02,400.71 105.72,370.77 "/>
<polygon id="_448056216_3_" fill="#E5007E" points="44.23,370.77 123.02,340.82 105.72,370.77 "/>
<polygon id="_379017784_3_" fill="#E5007E" points="101.34,1070.6 184.55,1057.14 154.59,1039.85 "/>
<polygon id="_379017616_3_" fill="#E5007E" points="101.34,1070.6 154.6,1005.27 154.59,1039.85 "/>
<polygon id="_376293872_4_" fill="#36B7BC" points="924.83,1076.86 527.88,1182.97 925.98,1412.82 "/>
<g>
	<path fill="#FFFFFF" d="M612.22,1169.88l3.99-1.1c0.61-0.17,1.18-0.24,1.72-0.22c0.54,0.02,1.03,0.13,1.48,0.33
		c0.44,0.2,0.82,0.48,1.14,0.85c0.32,0.37,0.55,0.83,0.7,1.38l0.01,0.03c0.16,0.59,0.19,1.15,0.08,1.66
		c-0.11,0.52-0.31,0.98-0.62,1.39c-0.31,0.41-0.7,0.76-1.18,1.05c-0.48,0.29-1,0.52-1.58,0.68l-2.97,0.81l1.16,4.22l-0.82,0.22
		L612.22,1169.88z M617.79,1175.17c0.51-0.14,0.96-0.33,1.35-0.58c0.38-0.25,0.69-0.53,0.92-0.86c0.23-0.33,0.38-0.68,0.46-1.08
		s0.05-0.8-0.07-1.22l-0.01-0.03c-0.12-0.45-0.32-0.83-0.57-1.13c-0.26-0.3-0.56-0.52-0.92-0.67c-0.36-0.15-0.75-0.22-1.2-0.23
		c-0.44-0.01-0.91,0.06-1.4,0.19l-3.11,0.85l1.53,5.58L617.79,1175.17z"/>
	<path fill="#FFFFFF" d="M622.71,1167l4.62-1.27c0.68-0.19,1.31-0.25,1.89-0.2c0.58,0.06,1.08,0.21,1.51,0.46
		c0.34,0.2,0.63,0.46,0.87,0.78c0.25,0.32,0.42,0.69,0.54,1.1l0.01,0.03c0.13,0.48,0.17,0.92,0.11,1.34
		c-0.06,0.42-0.2,0.8-0.41,1.15c-0.21,0.35-0.49,0.66-0.84,0.93c-0.35,0.28-0.74,0.51-1.19,0.7l4.96,3.84l-1.04,0.28l-4.79-3.73
		l-0.03,0.01l-3.57,0.98l1.29,4.69l-0.82,0.22L622.71,1167z M628.85,1171.63c0.46-0.13,0.87-0.3,1.23-0.53
		c0.36-0.23,0.65-0.49,0.87-0.79c0.22-0.3,0.37-0.63,0.45-1c0.07-0.36,0.06-0.75-0.06-1.16l-0.01-0.03
		c-0.21-0.77-0.65-1.3-1.32-1.59c-0.67-0.29-1.51-0.3-2.52-0.02l-3.75,1.03l1.4,5.11L628.85,1171.63z"/>
	<path fill="#FFFFFF" d="M642.26,1174.02c-0.84,0.23-1.64,0.28-2.4,0.15c-0.76-0.13-1.46-0.4-2.09-0.8
		c-0.63-0.4-1.17-0.92-1.62-1.54c-0.45-0.63-0.79-1.33-1-2.11l-0.01-0.03c-0.21-0.78-0.28-1.55-0.21-2.33
		c0.07-0.78,0.28-1.5,0.61-2.17c0.33-0.67,0.8-1.26,1.39-1.77c0.59-0.5,1.31-0.87,2.15-1.1c0.83-0.23,1.62-0.27,2.39-0.14
		c0.77,0.13,1.47,0.4,2.09,0.8c0.63,0.4,1.17,0.92,1.62,1.55c0.45,0.63,0.79,1.33,1,2.11c0.01,0.01,0.02,0.02,0.01,0.03
		c0.21,0.78,0.28,1.55,0.21,2.33c-0.07,0.78-0.28,1.51-0.61,2.18c-0.33,0.67-0.8,1.26-1.4,1.77
		C643.8,1173.43,643.09,1173.79,642.26,1174.02z M642.08,1173.25c0.68-0.19,1.27-0.49,1.77-0.91c0.5-0.42,0.89-0.92,1.18-1.49
		c0.29-0.57,0.46-1.2,0.52-1.87s0-1.37-0.2-2.07l-0.01-0.03c-0.19-0.7-0.49-1.33-0.9-1.88c-0.41-0.56-0.88-1.01-1.42-1.35
		c-0.54-0.34-1.13-0.57-1.78-0.68c-0.65-0.11-1.32-0.07-2,0.11c-0.68,0.19-1.27,0.49-1.77,0.91c-0.5,0.42-0.89,0.92-1.18,1.49
		c-0.29,0.57-0.46,1.2-0.52,1.87c-0.06,0.68,0,1.37,0.2,2.07l0.01,0.03c0.19,0.7,0.49,1.33,0.9,1.89c0.41,0.55,0.88,1.01,1.42,1.35
		c0.54,0.34,1.14,0.57,1.78,0.68C640.74,1173.48,641.4,1173.44,642.08,1173.25z"/>
	<path fill="#FFFFFF" d="M646.48,1160.48l0.91-0.25l7.16,9.23l1.46-11.6l0.86-0.24l-1.71,12.73l-0.72,0.2L646.48,1160.48z"/>
	<path fill="#FFFFFF" d="M659.32,1156.96l0.82-0.22l3.11,11.32l-0.82,0.22L659.32,1156.96z"/>
	<path fill="#FFFFFF" d="M670.39,1166.27c-0.88,0.24-1.72,0.31-2.51,0.2c-0.79-0.11-1.6-0.37-2.42-0.8l0.36-0.78
		c0.39,0.21,0.75,0.38,1.11,0.51c0.36,0.13,0.71,0.22,1.06,0.26c0.35,0.05,0.71,0.06,1.07,0.04c0.36-0.03,0.75-0.09,1.16-0.21
		c0.41-0.11,0.77-0.27,1.09-0.48c0.31-0.21,0.56-0.45,0.75-0.71c0.19-0.26,0.31-0.56,0.37-0.87c0.06-0.31,0.05-0.63-0.04-0.95
		l-0.01-0.03c-0.08-0.3-0.2-0.56-0.35-0.77c-0.16-0.21-0.38-0.38-0.67-0.51s-0.65-0.22-1.1-0.26c-0.44-0.05-0.99-0.05-1.66-0.01
		c-0.7,0.04-1.31,0.03-1.83-0.03c-0.52-0.06-0.97-0.17-1.34-0.34c-0.37-0.17-0.67-0.41-0.89-0.7c-0.23-0.3-0.4-0.66-0.52-1.09
		l-0.01-0.03c-0.12-0.42-0.13-0.84-0.05-1.25c0.08-0.41,0.24-0.79,0.48-1.15c0.24-0.36,0.56-0.67,0.94-0.94
		c0.39-0.27,0.84-0.47,1.35-0.61c0.8-0.22,1.52-0.29,2.16-0.23c0.64,0.07,1.31,0.26,1.99,0.57l-0.34,0.81
		c-0.65-0.32-1.27-0.5-1.85-0.55c-0.58-0.05-1.18,0.01-1.79,0.18c-0.41,0.11-0.76,0.27-1.06,0.47c-0.3,0.2-0.54,0.44-0.72,0.69
		c-0.18,0.26-0.3,0.54-0.36,0.83c-0.05,0.29-0.04,0.58,0.04,0.88l0.01,0.03c0.08,0.3,0.2,0.56,0.36,0.78
		c0.16,0.22,0.38,0.4,0.67,0.53c0.29,0.14,0.67,0.23,1.13,0.27c0.46,0.05,1.04,0.05,1.73,0.01c1.35-0.08,2.38,0.05,3.08,0.38
		c0.7,0.34,1.16,0.92,1.39,1.75l0.01,0.03c0.12,0.45,0.15,0.9,0.07,1.33c-0.08,0.43-0.24,0.83-0.48,1.19
		c-0.24,0.36-0.57,0.67-0.97,0.94C671.39,1165.91,670.92,1166.12,670.39,1166.27z"/>
	<path fill="#FFFFFF" d="M673.68,1153.02l0.82-0.22l3.11,11.32l-0.82,0.22L673.68,1153.02z"/>
	<path fill="#FFFFFF" d="M686.06,1162c-0.84,0.23-1.64,0.28-2.4,0.15c-0.76-0.13-1.46-0.4-2.09-0.8c-0.63-0.4-1.17-0.92-1.62-1.54
		c-0.45-0.63-0.79-1.33-1-2.11l-0.01-0.03c-0.21-0.78-0.28-1.55-0.21-2.33s0.28-1.5,0.61-2.17c0.33-0.67,0.8-1.26,1.39-1.77
		c0.59-0.5,1.31-0.87,2.15-1.1c0.83-0.23,1.62-0.27,2.39-0.14c0.77,0.13,1.47,0.4,2.09,0.8c0.63,0.4,1.17,0.92,1.62,1.55
		c0.45,0.63,0.79,1.33,1,2.11c0.01,0.01,0.02,0.02,0.01,0.03c0.21,0.78,0.28,1.55,0.21,2.33c-0.07,0.78-0.28,1.51-0.61,2.18
		c-0.33,0.67-0.8,1.26-1.4,1.77C687.6,1161.4,686.89,1161.77,686.06,1162z M685.88,1161.23c0.68-0.19,1.27-0.49,1.77-0.91
		c0.5-0.42,0.89-0.92,1.18-1.49c0.29-0.57,0.46-1.2,0.52-1.87s0-1.37-0.2-2.07l-0.01-0.03c-0.19-0.7-0.49-1.33-0.9-1.88
		c-0.41-0.56-0.88-1.01-1.42-1.35c-0.54-0.34-1.13-0.57-1.78-0.68c-0.65-0.11-1.32-0.07-2,0.11c-0.68,0.19-1.27,0.49-1.77,0.91
		c-0.5,0.42-0.89,0.92-1.18,1.49c-0.29,0.57-0.46,1.2-0.52,1.87c-0.06,0.68,0,1.37,0.2,2.07l0.01,0.03c0.19,0.7,0.49,1.33,0.9,1.89
		c0.41,0.55,0.88,1.01,1.42,1.35c0.54,0.34,1.14,0.57,1.78,0.68C684.54,1161.46,685.2,1161.42,685.88,1161.23z"/>
	<path fill="#FFFFFF" d="M691.23,1148.2l0.77-0.21l10.29,7.77l-2.7-9.85l0.78-0.22l3.11,11.32l-0.61,0.17l-10.51-7.93l2.76,10.06
		l-0.79,0.22L691.23,1148.2z"/>
	<path fill="#FFFFFF" d="M707.8,1143.56l0.78-0.22l8.25,9.99l-0.9,0.25l-2.27-2.79l-6.49,1.78l-0.53,3.55l-0.85,0.23L707.8,1143.56z
		 M713.11,1150.14l-4.69-5.76l-1.11,7.35L713.11,1150.14z"/>
	<path fill="#FFFFFF" d="M716.05,1141.39l0.82-0.22l2.9,10.56l6.46-1.77l0.21,0.76l-7.27,2L716.05,1141.39z"/>
	<path fill="#FFFFFF" d="M737.36,1147.88c-0.88,0.24-1.71,0.31-2.5,0.2c-0.79-0.11-1.6-0.37-2.42-0.8l0.36-0.78
		c0.38,0.21,0.75,0.38,1.11,0.51c0.36,0.13,0.71,0.22,1.06,0.26c0.35,0.05,0.71,0.06,1.07,0.04c0.36-0.03,0.75-0.09,1.16-0.21
		c0.41-0.11,0.77-0.27,1.08-0.48s0.57-0.45,0.75-0.71c0.19-0.27,0.31-0.56,0.37-0.87c0.06-0.31,0.05-0.63-0.04-0.95l-0.01-0.03
		c-0.08-0.3-0.2-0.56-0.36-0.77c-0.15-0.21-0.38-0.38-0.66-0.51s-0.65-0.22-1.1-0.27c-0.44-0.05-0.99-0.05-1.66-0.01
		c-0.7,0.04-1.31,0.03-1.83-0.03c-0.52-0.06-0.97-0.17-1.34-0.34c-0.37-0.17-0.67-0.41-0.89-0.7c-0.23-0.3-0.4-0.66-0.52-1.09
		l-0.01-0.03c-0.12-0.42-0.13-0.84-0.05-1.25c0.08-0.41,0.24-0.79,0.48-1.15c0.24-0.36,0.55-0.67,0.94-0.94
		c0.39-0.27,0.84-0.47,1.35-0.61c0.79-0.22,1.52-0.29,2.16-0.23c0.64,0.07,1.31,0.26,1.99,0.57l-0.34,0.81
		c-0.65-0.32-1.27-0.5-1.85-0.55c-0.58-0.05-1.18,0.01-1.78,0.18c-0.41,0.11-0.76,0.27-1.06,0.47c-0.3,0.2-0.54,0.44-0.72,0.69
		c-0.18,0.26-0.3,0.54-0.35,0.83c-0.06,0.29-0.04,0.58,0.04,0.88l0.01,0.03c0.08,0.3,0.2,0.56,0.36,0.78
		c0.16,0.22,0.38,0.4,0.67,0.53c0.29,0.14,0.67,0.23,1.13,0.27c0.46,0.05,1.04,0.05,1.73,0.01c1.35-0.08,2.38,0.05,3.08,0.38
		c0.7,0.34,1.16,0.92,1.39,1.75l0.01,0.03c0.12,0.45,0.15,0.9,0.07,1.33c-0.08,0.43-0.24,0.83-0.49,1.19
		c-0.24,0.36-0.57,0.67-0.97,0.94C738.36,1147.53,737.9,1147.74,737.36,1147.88z"/>
	<path fill="#FFFFFF" d="M748.68,1144.81c-0.79,0.22-1.56,0.26-2.31,0.15c-0.75-0.12-1.45-0.37-2.08-0.76
		c-0.63-0.39-1.18-0.9-1.65-1.54c-0.47-0.64-0.81-1.36-1.03-2.17l-0.01-0.03c-0.22-0.8-0.29-1.59-0.2-2.38
		c0.08-0.79,0.29-1.52,0.63-2.18c0.34-0.67,0.8-1.25,1.39-1.74c0.59-0.49,1.28-0.85,2.07-1.06c0.49-0.13,0.95-0.21,1.37-0.24
		c0.42-0.02,0.83,0,1.21,0.07c0.38,0.07,0.76,0.17,1.12,0.31c0.36,0.14,0.72,0.31,1.07,0.5l-0.41,0.77
		c-0.31-0.17-0.62-0.32-0.94-0.45c-0.32-0.13-0.65-0.23-0.98-0.3c-0.34-0.06-0.7-0.09-1.07-0.08c-0.37,0.01-0.77,0.07-1.17,0.18
		c-0.66,0.18-1.24,0.48-1.73,0.89c-0.49,0.41-0.89,0.91-1.17,1.48c-0.29,0.57-0.47,1.2-0.53,1.88c-0.07,0.68,0,1.37,0.19,2.09
		l0.01,0.03c0.2,0.71,0.5,1.34,0.91,1.9c0.41,0.55,0.89,1,1.43,1.35c0.54,0.34,1.13,0.57,1.77,0.68s1.29,0.07,1.95-0.11
		c0.8-0.22,1.44-0.56,1.95-1.02c0.5-0.46,0.96-1.06,1.35-1.78l0.7,0.4c-0.21,0.37-0.44,0.72-0.68,1.05
		c-0.24,0.33-0.51,0.63-0.82,0.89c-0.3,0.27-0.65,0.51-1.03,0.72C749.6,1144.51,749.16,1144.68,748.68,1144.81z"/>
	<path fill="#FFFFFF" d="M752.14,1131.48l0.82-0.22l1.44,5.26l7.04-1.93l-1.44-5.26l0.82-0.22l3.11,11.32l-0.82,0.22l-1.46-5.3
		l-7.04,1.93l1.46,5.3l-0.82,0.22L752.14,1131.48z"/>
	<path fill="#FFFFFF" d="M764.08,1128.2l7.82-2.15l0.21,0.76l-7.01,1.92l1.23,4.48l6.3-1.73l0.21,0.76l-6.3,1.73l1.25,4.56
		l7.08-1.94l0.21,0.76l-7.9,2.17L764.08,1128.2z"/>
	<path fill="#FFFFFF" d="M774.6,1125.31l3.66-1c0.86-0.24,1.69-0.31,2.48-0.22c0.8,0.09,1.52,0.31,2.18,0.68
		c0.66,0.36,1.22,0.85,1.69,1.46c0.47,0.61,0.82,1.31,1.04,2.11l0.01,0.03c0.22,0.8,0.28,1.58,0.19,2.35
		c-0.09,0.77-0.33,1.48-0.71,2.13c-0.38,0.65-0.89,1.22-1.53,1.71c-0.64,0.49-1.39,0.85-2.24,1.08l-3.66,1L774.6,1125.31z
		 M781.16,1134.87c0.76-0.21,1.42-0.53,1.97-0.95c0.55-0.42,0.98-0.91,1.29-1.47c0.31-0.56,0.5-1.16,0.58-1.82
		c0.07-0.65,0.02-1.32-0.17-2l-0.01-0.03c-0.18-0.67-0.48-1.27-0.87-1.8c-0.4-0.53-0.87-0.96-1.43-1.28
		c-0.55-0.33-1.17-0.53-1.86-0.62c-0.69-0.09-1.42-0.03-2.18,0.18l-2.84,0.78l2.69,9.8L781.16,1134.87z"/>
	<path fill="#FFFFFF" d="M794.38,1132.25c-0.66,0.18-1.29,0.24-1.9,0.18c-0.61-0.06-1.17-0.24-1.69-0.55
		c-0.52-0.3-0.97-0.73-1.35-1.27c-0.39-0.54-0.69-1.21-0.91-2.01l-1.82-6.61l0.82-0.22l1.79,6.53c0.37,1.35,0.98,2.3,1.84,2.84
		c0.86,0.55,1.87,0.66,3.04,0.34c0.56-0.15,1.03-0.38,1.44-0.67c0.4-0.3,0.72-0.66,0.94-1.09c0.22-0.43,0.35-0.93,0.38-1.5
		c0.03-0.57-0.05-1.19-0.23-1.87l-1.82-6.61l0.82-0.22l1.79,6.52c0.22,0.81,0.31,1.55,0.26,2.23c-0.05,0.68-0.22,1.29-0.5,1.81
		c-0.28,0.53-0.67,0.98-1.16,1.34C795.63,1131.79,795.05,1132.07,794.38,1132.25z"/>
	<path fill="#FFFFFF" d="M798.83,1118.66l0.82-0.22l2.9,10.56l6.46-1.77l0.21,0.76l-7.27,2L798.83,1118.66z"/>
	<path fill="#FFFFFF" d="M808.55,1116l7.82-2.15l0.21,0.76l-7.01,1.92l1.23,4.48l6.3-1.73l0.21,0.76l-6.3,1.73l1.25,4.56l7.09-1.94
		l0.21,0.76l-7.9,2.17L808.55,1116z"/>
</g>
</svg>
