<?xml version="1.0" encoding="utf-8"?>
<!-- Generator: Adobe Illustrator 19.1.0, SVG Export Plug-In . SVG Version: 6.00 Build 0)  -->
<svg version="1.1" id="Layer_1" xmlns="http://www.w3.org/2000/svg" xmlns:xlink="http://www.w3.org/1999/xlink" x="0px" y="0px"
	 viewBox="0 0 210 83.3" style="enable-background:new 0 0 210 83.3;" xml:space="preserve">
<style type="text/css">
	.st0{fill:#FFFFFF;}
	.st1{fill:#BEC945;}
	.st2{fill:#E466A1;}
	.st3{fill:#36B7BC;}
	.st4{fill:#575756;}
</style>
<g>
	<path class="st4" d="M6.4,33.9h7.5c1.1,0,2,0.1,2.8,0.4c0.8,0.3,1.5,0.7,2,1.2c0.4,0.5,0.8,1,1,1.6c0.2,0.6,0.4,1.3,0.4,2v0
		c0,0.7-0.1,1.3-0.3,1.9c-0.2,0.6-0.5,1-0.8,1.5c-0.4,0.4-0.8,0.8-1.3,1.1s-1,0.5-1.6,0.7l4.5,6.4h-3.5L13,44.9h0H9.3v5.9H6.4V33.9z
		 M13.6,42.2c1.1,0,1.9-0.3,2.5-0.8c0.6-0.5,0.9-1.2,0.9-2.1v0c0-0.9-0.3-1.6-0.9-2.1c-0.6-0.5-1.5-0.7-2.6-0.7H9.3v5.7H13.6z"/>
	<path class="st4" d="M23.7,33.9h12.4v2.7h-9.5v4.3h8.4v2.7h-8.4v4.5h9.6v2.7H23.7V33.9z"/>
	<path class="st4" d="M47.8,51c-1.3,0-2.5-0.2-3.6-0.7c-1.1-0.4-2-1-2.7-1.8c-0.8-0.8-1.3-1.7-1.8-2.7s-0.6-2.2-0.6-3.4v0
		c0-1.2,0.2-2.3,0.6-3.3c0.4-1.1,1-2,1.8-2.8c0.8-0.8,1.7-1.4,2.8-1.9c1.1-0.5,2.2-0.7,3.5-0.7c0.7,0,1.4,0.1,2,0.2
		c0.6,0.1,1.2,0.3,1.7,0.4c0.5,0.2,1,0.4,1.5,0.7c0.5,0.3,0.9,0.6,1.3,1l-1.9,2.2c-0.3-0.3-0.6-0.5-1-0.7s-0.7-0.4-1.1-0.6
		c-0.4-0.2-0.8-0.3-1.2-0.4c-0.4-0.1-0.9-0.1-1.5-0.1c-0.8,0-1.5,0.2-2.1,0.5c-0.7,0.3-1.2,0.8-1.7,1.3c-0.5,0.5-0.9,1.2-1.2,1.9
		c-0.3,0.7-0.4,1.5-0.4,2.3v0c0,0.9,0.1,1.7,0.4,2.4s0.7,1.4,1.2,1.9c0.5,0.5,1.1,0.9,1.8,1.2c0.7,0.3,1.5,0.5,2.3,0.5
		c0.8,0,1.5-0.1,2.2-0.3s1.3-0.5,1.8-0.9v-3.2h-4.3v-2.6h7.2v7.1c-0.4,0.4-0.9,0.7-1.4,1c-0.5,0.3-1,0.6-1.6,0.8
		c-0.6,0.2-1.2,0.4-1.9,0.6S48.5,51,47.8,51z"/>
	<path class="st4" d="M58.8,33.9h2.9v16.8h-2.9V33.9z"/>
	<path class="st4" d="M72.1,51c-1.3,0-2.5-0.2-3.7-0.7c-1.2-0.4-2.3-1.1-3.3-2l1.8-2.1c0.8,0.7,1.6,1.2,2.5,1.6
		c0.8,0.4,1.8,0.6,2.8,0.6c0.9,0,1.6-0.2,2.2-0.6c0.5-0.4,0.8-0.9,0.8-1.5v0c0-0.3-0.1-0.6-0.2-0.8c-0.1-0.2-0.3-0.5-0.6-0.7
		c-0.3-0.2-0.7-0.4-1.2-0.6c-0.5-0.2-1.1-0.4-1.9-0.5c-0.9-0.2-1.7-0.4-2.4-0.7c-0.7-0.3-1.3-0.6-1.8-1c-0.5-0.4-0.8-0.8-1.1-1.4
		c-0.2-0.5-0.4-1.2-0.4-2v0c0-0.7,0.1-1.4,0.4-2s0.7-1.1,1.2-1.5c0.5-0.4,1.1-0.8,1.8-1c0.7-0.2,1.5-0.4,2.3-0.4
		c1.2,0,2.3,0.2,3.3,0.5s1.9,0.9,2.8,1.6L76,38c-0.8-0.6-1.5-1-2.3-1.3c-0.8-0.3-1.5-0.4-2.3-0.4c-0.9,0-1.5,0.2-2,0.6
		c-0.5,0.4-0.7,0.9-0.7,1.4v0c0,0.3,0.1,0.6,0.2,0.9c0.1,0.2,0.3,0.5,0.6,0.7s0.7,0.4,1.2,0.6c0.5,0.2,1.2,0.4,2,0.6
		c0.9,0.2,1.7,0.5,2.3,0.7c0.7,0.3,1.2,0.6,1.7,1c0.4,0.4,0.8,0.8,1,1.4c0.2,0.5,0.3,1.1,0.3,1.8v0c0,0.8-0.1,1.5-0.4,2.1
		s-0.7,1.2-1.2,1.6s-1.2,0.8-1.9,1C73.8,50.8,73,51,72.1,51z"/>
	<path class="st4" d="M85.7,36.7h-5.3v-2.7H94v2.7h-5.3v14.1h-3V36.7z"/>
	<path class="st4" d="M97.1,33.9h12.4v2.7h-9.5v4.3h8.4v2.7h-8.4v4.5h9.6v2.7H97.1V33.9z"/>
	<path class="st4" d="M113.2,33.9h7.5c1.1,0,2,0.1,2.8,0.4c0.8,0.3,1.5,0.7,2,1.2c0.4,0.5,0.8,1,1,1.6c0.2,0.6,0.4,1.3,0.4,2v0
		c0,0.7-0.1,1.3-0.3,1.9c-0.2,0.6-0.5,1-0.8,1.5s-0.8,0.8-1.3,1.1s-1,0.5-1.6,0.7l4.5,6.4H124l-4.1-5.9h0h-3.7v5.9h-2.9V33.9z
		 M120.5,42.2c1.1,0,1.9-0.3,2.5-0.8c0.6-0.5,0.9-1.2,0.9-2.1v0c0-0.9-0.3-1.6-0.9-2.1c-0.6-0.5-1.5-0.7-2.6-0.7h-4.3v5.7H120.5z"/>
	<path class="st4" d="M137.8,33.9h2.7l9,11.6V33.9h2.9v16.8h-2.5l-9.2-12v12h-2.9V33.9z"/>
	<path class="st4" d="M164.7,51c-1.3,0-2.5-0.2-3.6-0.7s-2-1.1-2.8-1.9s-1.4-1.7-1.8-2.7c-0.4-1-0.6-2.2-0.6-3.3v0
		c0-1.2,0.2-2.3,0.6-3.3c0.4-1,1-2,1.8-2.8c0.8-0.8,1.7-1.4,2.8-1.9c1.1-0.5,2.3-0.7,3.6-0.7s2.5,0.2,3.6,0.7c1.1,0.5,2,1.1,2.8,1.9
		c0.8,0.8,1.4,1.7,1.8,2.7s0.6,2.2,0.6,3.3v0c0,1.2-0.2,2.3-0.6,3.3s-1,2-1.8,2.8s-1.7,1.4-2.8,1.9C167.2,50.8,166,51,164.7,51z
		 M164.8,48.3c0.8,0,1.6-0.2,2.3-0.5c0.7-0.3,1.3-0.7,1.8-1.3c0.5-0.5,0.9-1.2,1.2-1.9c0.3-0.7,0.4-1.5,0.4-2.3v0
		c0-0.8-0.1-1.6-0.4-2.3c-0.3-0.7-0.7-1.4-1.2-1.9c-0.5-0.5-1.1-1-1.8-1.3c-0.7-0.3-1.5-0.5-2.3-0.5c-0.8,0-1.6,0.2-2.3,0.5
		c-0.7,0.3-1.3,0.7-1.8,1.3c-0.5,0.5-0.9,1.2-1.2,1.9s-0.4,1.5-0.4,2.3v0c0,0.8,0.1,1.6,0.4,2.3c0.3,0.7,0.7,1.4,1.2,1.9
		c0.5,0.5,1.1,1,1.8,1.3C163.2,48.1,164,48.3,164.8,48.3z"/>
	<path class="st4" d="M175.8,33.9h3.2l4,12.5l4.1-12.5h2.5l4.1,12.5l4-12.5h3.1L195,50.8h-2.5l-4.1-12.1l-4.1,12.1h-2.5L175.8,33.9z
		"/>
</g>
<g>
	<polygon class="st2" points="154.8,20.6 162,28.3 165.2,20.8 165.2,14.9 	"/>
	<polygon class="st2" points="175.7,20.6 168.5,28.3 165.2,20.8 165.2,14.9 	"/>
	<polygon id="_377572792_1_" class="st2" points="152,22.2 155,32.3 147,31.4 141.8,28.5 	"/>
	<polygon id="_372230688_1_" class="st2" points="152,61.7 155,51.6 147,52.5 141.8,55.5 	"/>
	<polygon id="_376306592_1_" class="st2" points="175.7,63.3 168.5,55.7 165.2,63.1 165.2,69 	"/>
	<polygon id="_376294064_1_" class="st2" points="154.8,63.3 162,55.7 165.2,63.1 165.2,69 	"/>
	<polygon id="_376300160_1_" class="st2" points="178.5,61.7 175.5,51.6 183.5,52.5 188.6,55.5 	"/>
	<polygon id="_374223960_1_" class="st2" points="178.5,22.2 175.5,32.3 183.5,31.4 188.6,28.5 	"/>
	<g>
		<polygon class="st1" points="165.2,14.9 153.2,2.9 165.2,10.3 		"/>
		<polygon class="st1" points="165.2,14.9 177.3,2.9 165.2,10.3 		"/>
		<polygon id="_377572696_1_" class="st1" points="141.8,28.5 125.4,32.9 137.8,26.1 		"/>
		<polygon id="_377572720_1_" class="st1" points="141.8,28.5 137.4,12 137.8,26.1 		"/>
		<polygon id="_372230592_1_" class="st1" points="141.8,55.5 137.4,71.9 137.8,57.8 		"/>
		<polygon id="_372230616_1_" class="st1" points="141.8,55.5 125.4,51.1 137.8,57.8 		"/>
		<polygon id="_376302320_1_" class="st1" points="165.2,69 177.3,81 165.2,73.6 		"/>
		<polygon id="_376306376_1_" class="st1" points="165.2,69 153.2,81 165.2,73.6 		"/>
		<polygon id="_376299176_1_" class="st1" points="188.6,55.5 205.1,51.1 192.7,57.8 		"/>
		<polygon id="_376299080_1_" class="st1" points="188.6,55.5 193.1,71.9 192.7,57.8 		"/>
		<polygon id="_374223288_1_" class="st1" points="188.6,28.5 193.1,12 192.7,26.1 		"/>
		<polygon id="_374223456_1_" class="st1" points="188.6,28.5 205.1,32.9 192.7,26.1 		"/>
	</g>
</g>
</svg>
