<?xml version="1.0" encoding="iso-8859-1"?>
<!-- Generator: Adobe Illustrator 16.0.0, SVG Export Plug-In . SVG Version: 6.00 Build 0)  -->
<!DOCTYPE svg PUBLIC "-//W3C//DTD SVG 1.1//EN" "http://www.w3.org/Graphics/SVG/1.1/DTD/svg11.dtd">
<svg version="1.1" id="Layer_1" xmlns="http://www.w3.org/2000/svg" xmlns:xlink="http://www.w3.org/1999/xlink" x="0px" y="0px"
	 width="300px" height="300px" viewBox="0 0 300 300" style="enable-background:new 0 0 300 300;" xml:space="preserve">
<rect x="0" style="fill:#0067B1;" width="300" height="300"/>
<path style="fill:#FFFFFF;" d="M86.862,93.526l20.331,69.134l20.337-69.134h14.724h40.4v6.872l-20.753,35.753
	c7.295,2.345,12.812,6.6,16.546,12.767c3.741,6.176,5.615,13.419,5.615,21.733c0,10.29-2.739,18.931-8.206,25.943
	c-5.472,7.013-12.552,10.521-21.245,10.521c-6.545,0-12.249-2.086-17.109-6.242c-4.859-4.16-8.462-9.794-10.798-16.893l11.5-4.776
	c1.682,4.304,3.902,7.698,6.662,10.172s6.009,3.714,9.745,3.714c3.923,0,7.246-2.195,9.958-6.587
	c2.711-4.394,4.068-9.676,4.068-15.852c0-6.823-1.454-12.11-4.348-15.843c-3.369-4.396-8.651-6.6-15.852-6.6h-5.607v-6.729
	l19.631-33.932h-23.699l-1.346,2.296l-28.821,97.271h-1.402L86.16,136.717l-21.035,70.398h-1.4L30.065,93.526H44.79l20.335,69.134
	l13.745-46.556l-6.731-22.578H86.862L86.862,93.526z"/>
<path style="fill:#FFFFFF;" d="M259.052,99.457c2.146,0,3.132,0.598,3.132,2.088c0,1.431-0.987,1.938-3.074,1.938h-1.938v-4.027
	H259.052L259.052,99.457z M259.468,97.968h-4.583v12.162h2.289v-5.188h2.266l2.474,5.188h2.564l-2.714-5.543
	c1.759-0.357,2.771-1.551,2.771-3.279C264.537,99.099,262.869,97.968,259.468,97.968L259.468,97.968z M268.502,104.347
	c0,2.474-0.953,4.771-2.714,6.469c-1.846,1.789-4.145,2.742-6.679,2.742c-2.384,0-4.739-0.983-6.496-2.774
	c-1.761-1.789-2.741-4.085-2.741-6.528c0-2.444,1.013-4.83,2.836-6.679c1.691-1.729,3.99-2.654,6.492-2.654
	c2.565,0,4.859,0.958,6.646,2.771C267.576,99.427,268.502,101.753,268.502,104.347L268.502,104.347z M259.175,93.526
	c-2.89,0-5.488,1.043-7.457,3.039c-2.079,2.116-3.246,4.857-3.246,7.691s1.103,5.456,3.131,7.512
	c2.057,2.086,4.71,3.222,7.572,3.222c2.799,0,5.513-1.133,7.631-3.189c2.026-1.968,3.127-4.592,3.127-7.544
	c0-2.861-1.131-5.543-3.097-7.542C264.776,94.629,262.089,93.526,259.175,93.526L259.175,93.526z"/>
<path style="fill:#FFFFFF;" d="M241.119,92.885l2.382,14.501l-8.439,16.151c0,0-3.242-6.854-8.626-10.645
	c-4.537-3.196-7.489-3.891-12.113-2.936c-5.936,1.223-12.662,8.319-15.604,17.067c-3.515,10.47-3.545,15.531-3.67,20.188
	c-0.198,7.472,0.979,11.879,0.979,11.879s-5.123-9.484-5.074-23.381c0.03-9.912,1.588-18.902,6.176-27.773
	c4.033-7.802,10.033-12.482,15.357-13.031c5.501-0.57,9.855,2.084,13.218,4.952c3.524,3.016,7.099,9.607,7.099,9.607L241.119,92.885
	L241.119,92.885z"/>
<path style="fill:#FFFFFF;" d="M242.16,174.939c0,0-3.728,6.666-6.059,9.23c-2.321,2.573-6.486,7.104-11.623,9.367
	c-5.138,2.264-7.83,2.69-12.907,2.199c-5.077-0.492-9.787-3.43-11.444-4.648c-1.656-1.229-5.873-4.836-8.259-8.203
	c-2.389-3.362-6.117-10.092-6.117-10.092s2.079,6.743,3.378,9.604c0.752,1.65,3.053,6.688,6.318,11.075
	c3.046,4.092,8.966,11.137,17.956,12.729c8.993,1.588,15.173-2.45,16.703-3.42c1.532-0.982,4.754-3.678,6.792-5.863
	c2.127-2.275,4.145-5.188,5.259-6.933c0.817-1.271,2.146-3.858,2.146-3.858L242.16,174.939L242.16,174.939z"/>
</svg>
