<?xml version="1.0" encoding="utf-8"?>
<!-- Generator: Adobe Illustrator 19.1.0, SVG Export Plug-In . SVG Version: 6.00 Build 0)  -->
<svg version="1.1" id="Layer_1" xmlns="http://www.w3.org/2000/svg" xmlns:xlink="http://www.w3.org/1999/xlink" x="0px" y="0px"
	 viewBox="0 0 185.9 146" style="enable-background:new 0 0 185.9 146;" xml:space="preserve">
<style type="text/css">
	.st0{fill:#5E5E5E;}
	.st1{fill:#FFFFFF;}
	.st2{fill:#BEC945;}
	.st3{fill:#E466A1;}
	.st4{fill:#36B7BC;}
	.st5{fill:none;stroke:#FFFFFF;stroke-linecap:round;stroke-miterlimit:10;}
	.st6{fill:none;stroke:#FFFFFF;stroke-linecap:round;stroke-miterlimit:10;stroke-dasharray:0,1.9982;}
	.st7{fill:none;stroke:#575756;stroke-linecap:round;stroke-miterlimit:10;}
	.st8{fill:none;stroke:#575756;stroke-linecap:round;stroke-miterlimit:10;stroke-dasharray:0,2;}
	.st9{fill:#575756;}
	.st10{opacity:0.15;}
	.st11{clip-path:url(#SVGID_2_);}
	.st12{fill:#E5007E;}
	.st13{fill:none;stroke:#FFFFFF;stroke-width:1.6159;stroke-miterlimit:10;}
	.st14{fill:#3C3C3B;}
	.st15{clip-path:url(#SVGID_4_);}
	.st16{clip-path:url(#_448054032_9_);}
	.st17{clip-path:url(#_448054032_10_);}
	.st18{clip-path:url(#_376300088_5_);}
	.st19{clip-path:url(#SVGID_6_);fill:#36B7BC;}
	.st20{clip-path:url(#SVGID_6_);fill:#E466A1;}
	.st21{clip-path:url(#SVGID_6_);}
	.st22{clip-path:url(#SVGID_8_);}
	.st23{fill:#2A2A2A;}
	.st24{fill:none;}
	.st25{clip-path:url(#SVGID_10_);}
	.st26{clip-path:url(#SVGID_12_);fill:#36B7BC;}
	.st27{clip-path:url(#SVGID_12_);fill:#E466A1;}
	.st28{clip-path:url(#SVGID_12_);}
	.st29{clip-path:url(#_376302392_6_);}
	.st30{clip-path:url(#_376304864_6_);}
	.st31{fill:none;stroke:#575756;stroke-linecap:round;stroke-miterlimit:10;stroke-dasharray:0,2.029;}
	.st32{fill:none;stroke:#575756;stroke-linecap:round;stroke-miterlimit:10;stroke-dasharray:0,1.9959;}
	.st33{fill:none;stroke:#575756;stroke-linecap:round;stroke-miterlimit:10;stroke-dasharray:0,1.9956;}
</style>
<g class="st10">
	<defs>
		<polygon id="SVGID_7_" class="st10" points="174.8,354 -667.1,354 -665.2,284.2 176.6,284.2 		"/>
	</defs>
	<clipPath id="SVGID_2_">
		<use xlink:href="#SVGID_7_"  style="overflow:visible;"/>
	</clipPath>
	<g class="st11">
	</g>
	<g class="st11">
		<polygon id="_374221440_3_" class="st12" points="115.8,68.4 138.4,69.7 138.9,55.1 		"/>
	</g>
</g>
<g>
	<g>
		<path class="st9" d="M60.8,73.4h-6.4v-3.3h16.4v3.3h-6.4v17h-3.6V73.4z"/>
		<path class="st9" d="M81.7,69.9H85l8.9,20.4h-3.8l-2.1-4.9h-9.6l-2.1,4.9h-3.6L81.7,69.9z M86.8,82.3l-3.5-8.1l-3.5,8.1H86.8z"/>
		<path class="st9" d="M97.4,70.1h3.5v17.1h10.7v3.2H97.4V70.1z"/>
		<path class="st9" d="M115.3,70.1h3.5v10.2l9.6-10.2h4.4l-8.4,8.7l8.8,11.6h-4.3l-6.9-9.1l-3.2,3.2v5.9h-3.5V70.1z"/>
	</g>
	<g>
		<polygon class="st4" points="80.3,50.4 89,59.6 93,50.7 93,43.6 		"/>
		<polygon class="st4" points="105.6,50.4 96.9,59.6 93,50.7 93,43.6 		"/>
		<polygon id="_377572792_12_" class="st4" points="77,52.4 80.6,64.5 70.9,63.4 64.7,59.9 		"/>
		<polygon id="_372230688_12_" class="st4" points="77,106 80.6,93.9 70.9,94.9 64.7,98.5 		"/>
		<polygon id="_376306592_12_" class="st4" points="105.6,107.9 96.9,98.7 93,107.7 93,114.8 		"/>
		<polygon id="_376294064_12_" class="st4" points="80.3,107.9 89,98.7 93,107.7 93,114.8 		"/>
		<polygon id="_376300160_12_" class="st4" points="108.9,106 105.3,93.9 115,94.9 121.2,98.5 		"/>
		<polygon id="_374223960_12_" class="st4" points="108.9,52.4 105.3,64.5 115,63.4 121.2,59.9 		"/>
		<polygon class="st2" points="93,43.6 78.4,29 93,38 		"/>
		<polygon class="st2" points="93,43.6 107.5,29 93,38 		"/>
		<polygon id="_377572696_12_" class="st2" points="64.7,59.9 44.9,65.2 59.9,57.1 		"/>
		<polygon id="_377572720_12_" class="st2" points="64.7,59.9 59.4,40 59.9,57.1 		"/>
		<polygon id="_372230592_12_" class="st2" points="64.7,98.5 59.4,118.4 59.9,101.3 		"/>
		<polygon id="_372230616_12_" class="st2" points="64.7,98.5 44.9,93.2 59.9,101.3 		"/>
		<polygon id="_376302320_12_" class="st2" points="93,114.8 107.5,129.3 93,120.4 		"/>
		<polygon id="_376306376_12_" class="st2" points="93,114.8 78.4,129.3 93,120.4 		"/>
		<polygon id="_376299176_12_" class="st2" points="121.2,98.5 141,93.2 126,101.3 		"/>
		<polygon id="_376299080_12_" class="st2" points="121.2,98.5 126.5,118.4 126,101.3 		"/>
		<polygon id="_374223288_12_" class="st2" points="121.2,59.9 126.5,40 126,57.1 		"/>
		<polygon id="_374223456_12_" class="st2" points="121.2,59.9 141,65.2 126,57.1 		"/>
	</g>
</g>
</svg>
