<?xml version="1.0" encoding="utf-8"?>
<!-- Generator: Adobe Illustrator 19.1.0, SVG Export Plug-In . SVG Version: 6.00 Build 0)  -->
<!DOCTYPE svg PUBLIC "-//W3C//DTD SVG 1.1//EN" "http://www.w3.org/Graphics/SVG/1.1/DTD/svg11.dtd">
<svg version="1.1" id="Layer_1" xmlns="http://www.w3.org/2000/svg" xmlns:xlink="http://www.w3.org/1999/xlink" x="0px" y="0px"
	 viewBox="0 0 130.5 109.9" enable-background="new 0 0 130.5 109.9" xml:space="preserve">
<g>
	<g>
		<path fill="#575756" d="M31.7,49h-6.4v-3.3h16.4V49h-6.4v17h-3.6V49z"/>
		<path fill="#575756" d="M52.7,45.6H56L64.9,66h-3.8l-2.1-4.9h-9.6L47.4,66h-3.6L52.7,45.6z M57.8,57.9l-3.5-8.1l-3.5,8.1H57.8z"/>
		<path fill="#575756" d="M68.4,45.7h3.5v17.1h10.7V66H68.4V45.7z"/>
		<path fill="#575756" d="M86.3,45.7h3.5v10.2l9.6-10.2h4.4l-8.4,8.7l8.8,11.6h-4.3L93,56.8l-3.2,3.2V66h-3.5V45.7z"/>
	</g>
	<g>
		<polygon fill="#36B7BC" points="51.3,26 60,35.3 64,26.3 64,19.2 		"/>
		<polygon fill="#36B7BC" points="76.6,26 67.9,35.3 64,26.3 64,19.2 		"/>
		<polygon id="_377572792_2_" fill="#36B7BC" points="48,28 51.6,40.1 41.9,39 35.7,35.5 		"/>
		<polygon id="_372230688_2_" fill="#36B7BC" points="48,81.6 51.6,69.5 41.9,70.6 35.7,74.1 		"/>
		<polygon id="_376306592_2_" fill="#36B7BC" points="76.6,83.6 67.9,74.4 64,83.3 64,90.4 		"/>
		<polygon id="_376294064_2_" fill="#36B7BC" points="51.3,83.6 60,74.4 64,83.3 64,90.4 		"/>
		<polygon id="_376300160_2_" fill="#36B7BC" points="79.9,81.6 76.3,69.5 86,70.6 92.2,74.1 		"/>
		<polygon id="_374223960_2_" fill="#36B7BC" points="79.9,28 76.3,40.1 86,39 92.2,35.5 		"/>
		<polygon fill="#BEC945" points="64,19.2 49.4,4.7 64,13.6 		"/>
		<polygon fill="#BEC945" points="64,19.2 78.5,4.7 64,13.6 		"/>
		<polygon id="_377572696_2_" fill="#BEC945" points="35.7,35.5 15.9,40.8 30.9,32.7 		"/>
		<polygon id="_377572720_2_" fill="#BEC945" points="35.7,35.5 30.4,15.6 30.9,32.7 		"/>
		<polygon id="_372230592_2_" fill="#BEC945" points="35.7,74.1 30.4,94 30.9,76.9 		"/>
		<polygon id="_372230616_2_" fill="#BEC945" points="35.7,74.1 15.9,68.8 30.9,76.9 		"/>
		<polygon id="_376302320_2_" fill="#BEC945" points="64,90.4 78.5,105 64,96 		"/>
		<polygon id="_376306376_2_" fill="#BEC945" points="64,90.4 49.4,105 64,96 		"/>
		<polygon id="_376299176_2_" fill="#BEC945" points="92.2,74.1 112,68.8 97,76.9 		"/>
		<polygon id="_376299080_2_" fill="#BEC945" points="92.2,74.1 97.5,94 97,76.9 		"/>
		<polygon id="_374223288_2_" fill="#BEC945" points="92.2,35.5 97.5,15.6 97,32.7 		"/>
		<polygon id="_374223456_2_" fill="#BEC945" points="92.2,35.5 112,40.8 97,32.7 		"/>
	</g>
</g>
</svg>
