<?xml version="1.0" encoding="utf-8"?>
<!-- Generator: Adobe Illustrator 19.1.0, SVG Export Plug-In . SVG Version: 6.00 Build 0)  -->
<!DOCTYPE svg PUBLIC "-//W3C//DTD SVG 1.1//EN" "http://www.w3.org/Graphics/SVG/1.1/DTD/svg11.dtd">
<svg version="1.1" id="Layer_1" xmlns="http://www.w3.org/2000/svg" xmlns:xlink="http://www.w3.org/1999/xlink" x="0px" y="0px"
	 viewBox="0 0 130.5 109.9" enable-background="new 0 0 130.5 109.9" xml:space="preserve">
<g>
	<g>
		<polygon fill="#E466A1" points="51.2,25.9 59.9,35.1 63.8,26.2 63.8,19 		"/>
		<polygon fill="#E466A1" points="76.4,25.9 67.7,35.1 63.8,26.2 63.8,19 		"/>
		<polygon id="_377572792_5_" fill="#E466A1" points="47.8,27.8 51.5,40 41.7,38.9 35.6,35.3 		"/>
		<polygon id="_372230688_5_" fill="#E466A1" points="47.8,81.5 51.5,69.3 41.8,70.4 35.6,74 		"/>
		<polygon id="_376306592_5_" fill="#E466A1" points="76.5,83.4 67.7,74.2 63.8,83.1 63.8,90.3 		"/>
		<polygon id="_376294064_5_" fill="#E466A1" points="51.2,83.4 59.9,74.2 63.8,83.1 63.8,90.3 		"/>
		<polygon id="_376300160_5_" fill="#E466A1" points="79.8,81.5 76.2,69.3 85.9,70.4 92,74 		"/>
		<polygon id="_374223960_5_" fill="#E466A1" points="79.8,27.8 76.2,40 85.9,38.9 92,35.3 		"/>
		<polygon fill="#BEC945" points="63.8,19 49.3,4.5 63.8,13.4 		"/>
		<polygon fill="#BEC945" points="63.8,19 78.3,4.5 63.8,13.4 		"/>
		<polygon id="_377572696_6_" fill="#BEC945" points="35.6,35.3 15.7,40.6 30.7,32.5 		"/>
		<polygon id="_377572720_6_" fill="#BEC945" points="35.6,35.3 30.3,15.5 30.7,32.5 		"/>
		<polygon id="_372230592_8_" fill="#BEC945" points="35.6,74 30.3,93.8 30.7,76.8 		"/>
		<polygon id="_372230616_8_" fill="#BEC945" points="35.6,74 15.7,68.7 30.7,76.8 		"/>
		<polygon id="_376302320_8_" fill="#BEC945" points="63.8,90.3 78.3,104.8 63.8,95.9 		"/>
		<polygon id="_376306376_8_" fill="#BEC945" points="63.8,90.3 49.3,104.8 63.8,95.9 		"/>
		<polygon id="_376299176_8_" fill="#BEC945" points="92,74 111.9,68.6 96.9,76.8 		"/>
		<polygon id="_376299080_8_" fill="#BEC945" points="92,74 97.4,93.8 96.9,76.8 		"/>
		<polygon id="_374223288_6_" fill="#BEC945" points="92,35.3 97.4,15.5 96.9,32.5 		"/>
		<polygon id="_374223456_6_" fill="#BEC945" points="92,35.3 111.9,40.6 96.9,32.5 		"/>
	</g>
	<g>
		<path fill="#585756" d="M9.7,48.9H3.4v-3.2h16.1v3.2h-6.3v16.6H9.7V48.9z"/>
		<path fill="#585756" d="M23.4,45.6h3.5v19.9h-3.5V45.6z"/>
		<path fill="#585756" d="M41.4,65.8c-1.5,0-2.8-0.3-4-0.8c-1.2-0.5-2.3-1.3-3.2-2.2c-0.9-0.9-1.6-2-2.1-3.2c-0.5-1.2-0.8-2.6-0.8-4
			v-0.1c0-1.4,0.3-2.7,0.8-4c0.5-1.2,1.2-2.3,2.1-3.3c0.9-0.9,2-1.7,3.2-2.2c1.2-0.5,2.6-0.8,4.1-0.8c0.9,0,1.7,0.1,2.5,0.2
			c0.7,0.2,1.4,0.4,2.1,0.6c0.6,0.3,1.2,0.6,1.7,1c0.5,0.4,1,0.8,1.5,1.2L47.1,51c-0.8-0.7-1.6-1.3-2.5-1.8c-0.9-0.5-1.9-0.7-3-0.7
			c-0.9,0-1.8,0.2-2.6,0.6c-0.8,0.4-1.5,0.9-2.1,1.5c-0.6,0.6-1,1.4-1.4,2.2c-0.3,0.9-0.5,1.8-0.5,2.7v0.1c0,1,0.2,1.9,0.5,2.7
			c0.3,0.9,0.8,1.6,1.4,2.3c0.6,0.6,1.3,1.1,2.1,1.5c0.8,0.4,1.7,0.6,2.6,0.6c1.2,0,2.3-0.2,3.1-0.7c0.9-0.5,1.7-1.1,2.6-1.9
			l2.2,2.3c-0.5,0.5-1,1-1.6,1.5c-0.6,0.4-1.2,0.8-1.8,1.1c-0.6,0.3-1.3,0.5-2.1,0.7C43.2,65.8,42.3,65.8,41.4,65.8z"/>
		<path fill="#585756" d="M53.1,45.6h3.5v10l9.5-10h4.3l-8.3,8.5l8.6,11.3h-4.2l-6.8-8.9l-3.1,3.2v5.8h-3.5V45.6z"/>
		<path fill="#585756" d="M73.7,45.6h14.7v3.2H77.2v5.1h10V57h-10v5.3h11.4v3.1H73.7V45.6z"/>
		<path fill="#585756" d="M97.6,48.9h-6.3v-3.2h16.1v3.2h-6.3v16.6h-3.5V48.9z"/>
		<path fill="#585756" d="M118.1,65.8c-1.5,0-3-0.3-4.4-0.8c-1.4-0.5-2.7-1.3-3.9-2.4l2.1-2.5c1,0.8,1.9,1.5,2.9,1.9
			c1,0.4,2.1,0.7,3.3,0.7c1.1,0,1.9-0.2,2.6-0.7c0.6-0.5,1-1.1,1-1.8v-0.1c0-0.4-0.1-0.7-0.2-1c-0.1-0.3-0.4-0.5-0.7-0.8
			c-0.3-0.2-0.8-0.5-1.4-0.7s-1.3-0.4-2.3-0.6c-1.1-0.2-2-0.5-2.8-0.8c-0.8-0.3-1.5-0.7-2.1-1.1c-0.6-0.4-1-1-1.3-1.6
			s-0.4-1.4-0.4-2.3v-0.1c0-0.9,0.2-1.6,0.5-2.3c0.3-0.7,0.8-1.3,1.4-1.8c0.6-0.5,1.3-0.9,2.1-1.2c0.8-0.3,1.7-0.4,2.7-0.4
			c1.5,0,2.8,0.2,3.9,0.6c1.2,0.4,2.3,1,3.3,1.9l-1.9,2.6c-0.9-0.7-1.8-1.2-2.7-1.5c-0.9-0.4-1.8-0.5-2.7-0.5c-1,0-1.8,0.2-2.4,0.7
			c-0.6,0.5-0.9,1-0.9,1.7v0.1c0,0.4,0.1,0.7,0.2,1c0.1,0.3,0.4,0.6,0.7,0.8c0.4,0.2,0.8,0.5,1.5,0.7c0.6,0.2,1.4,0.4,2.3,0.7
			c1,0.3,2,0.6,2.8,0.9c0.8,0.3,1.5,0.7,2,1.2c0.5,0.5,0.9,1,1.2,1.6c0.3,0.6,0.4,1.3,0.4,2.1v0.1c0,0.9-0.2,1.8-0.5,2.5
			c-0.3,0.7-0.8,1.4-1.5,1.9s-1.4,0.9-2.2,1.2C120.1,65.7,119.1,65.8,118.1,65.8z"/>
	</g>
</g>
</svg>
