<?xml version="1.0" encoding="utf-8"?>
<!-- Generator: Adobe Illustrator 19.1.0, SVG Export Plug-In . SVG Version: 6.00 Build 0)  -->
<svg version="1.1" id="Layer_1" xmlns="http://www.w3.org/2000/svg" xmlns:xlink="http://www.w3.org/1999/xlink" x="0px" y="0px"
	 viewBox="0 0 84.7 84.7" style="enable-background:new 0 0 84.7 84.7;" xml:space="preserve">
<style type="text/css">
	.st0{fill:#FFFFFF;}
	.st1{fill:#BEC945;}
	.st2{fill:#E466A1;}
	.st3{fill:#36B7BC;}
</style>
<g>
	<polygon class="st2" points="31.1,20.5 38.3,28.2 41.5,20.7 41.5,14.8 	"/>
	<polygon class="st2" points="52,20.5 44.8,28.2 41.5,20.7 41.5,14.8 	"/>
	<polygon id="_377572792_5_" class="st2" points="28.3,22.1 31.3,32.2 23.3,31.3 18.1,28.3 	"/>
	<polygon id="_372230688_5_" class="st2" points="28.3,61.6 31.3,51.5 23.3,52.4 18.1,55.4 	"/>
	<polygon id="_376306592_5_" class="st2" points="52,63.2 44.8,55.6 41.5,63 41.5,68.9 	"/>
	<polygon id="_376294064_5_" class="st2" points="31.1,63.2 38.3,55.6 41.5,63 41.5,68.9 	"/>
	<polygon id="_376300160_5_" class="st2" points="54.8,61.6 51.8,51.5 59.8,52.4 64.9,55.4 	"/>
	<polygon id="_374223960_5_" class="st2" points="54.8,22.1 51.8,32.2 59.8,31.3 64.9,28.3 	"/>
	<g>
		<polygon class="st1" points="41.5,14.8 29.5,2.8 41.5,10.2 		"/>
		<polygon class="st1" points="41.5,14.8 53.6,2.8 41.5,10.2 		"/>
		<polygon id="_377572696_6_" class="st1" points="18.1,28.3 1.7,32.8 14.1,26 		"/>
		<polygon id="_377572720_6_" class="st1" points="18.1,28.3 13.7,11.9 14.1,26 		"/>
		<polygon id="_372230592_8_" class="st1" points="18.1,55.4 13.7,71.8 14.1,57.7 		"/>
		<polygon id="_372230616_8_" class="st1" points="18.1,55.4 1.7,51 14.1,57.7 		"/>
		<polygon id="_376302320_8_" class="st1" points="41.5,68.9 53.6,80.9 41.5,73.5 		"/>
		<polygon id="_376306376_8_" class="st1" points="41.5,68.9 29.5,80.9 41.5,73.5 		"/>
		<polygon id="_376299176_8_" class="st1" points="64.9,55.4 81.4,51 69,57.7 		"/>
		<polygon id="_376299080_8_" class="st1" points="64.9,55.4 69.4,71.8 69,57.7 		"/>
		<polygon id="_374223288_6_" class="st1" points="64.9,28.3 69.4,11.9 69,26 		"/>
		<polygon id="_374223456_6_" class="st1" points="64.9,28.3 81.4,32.8 69,26 		"/>
	</g>
</g>
</svg>
